<svg width="1440" height="691" viewBox="0 0 1440 691" fill="none" xmlns="http://www.w3.org/2000/svg">
<g clip-path="url(#clip0_22_43)">
<path fill-rule="evenodd" clip-rule="evenodd" d="M1440 0H0V500V529V587.184L40 576.097C40.8704 575.867 41.7598 575.631 42.6677 575.39C83.4818 564.57 161.741 543.823 240 565.514C278.436 575.925 316.872 596.341 355.307 616.756C396.872 638.833 438.436 660.911 480 670.336C560 688.479 640 659.753 720 630.524L722.963 629.46C801.976 601.083 880.988 572.706 960 583.656C1004.14 589.495 1048.28 607.606 1092.41 625.718C1128.28 640.433 1164.14 655.148 1200 663.281C1278.81 681.153 1357.61 667.238 1398.18 660.074L1400 659.753L1440 652.194V529V500V0Z" fill="url(#paint0_linear_22_43)"/>
<path d="M202.908 37.2014C261.758 49.9458 297.504 105.171 339.681 166.947C381.404 228.883 429.712 297.039 415.775 362.222C402.139 427.574 327.165 489.632 247.364 495.121C167.862 500.781 83.5341 449.872 38.1674 372.106C-6.74576 294.179 -13.151 189.555 24.4734 122.29C62.5513 54.8633 144.205 24.9572 202.908 37.2014Z" fill="url(#paint1_linear_22_43)" fill-opacity="0.49"/>
<path d="M215.299 95.1844C261.496 105.178 289.545 148.542 322.641 197.048C355.382 245.681 393.29 299.197 382.334 350.395C371.614 401.726 312.743 450.486 250.095 454.82C187.683 459.286 121.493 419.326 85.8963 358.262C50.6554 297.07 45.6507 214.901 75.2023 162.061C105.11 109.094 169.218 85.5839 215.299 95.1844Z" fill="url(#paint2_linear_22_43)" fill-opacity="0.37"/>
<path fill-rule="evenodd" clip-rule="evenodd" d="M1195.42 -390L886.654 -232.684L886.714 -232.567L714.399 -144.773L743.606 -135.209C745.192 -134.633 746.867 -134.031 748.621 -133.4C778.748 -122.57 831.957 -103.442 850.92 -66.2231C870.64 -27.5186 852.227 31.3293 834.079 89.3314L833.925 89.8237C815.352 148.895 797.445 207.627 821.884 244.065C840.249 271.548 882.333 286.55 924.64 301.63C939.304 306.857 953.994 312.094 967.732 317.863C1021.48 339.366 1060.87 368.908 1070.94 413.384C1075.78 433.545 1074.4 457.026 1073.02 480.519C1071.42 507.793 1069.81 535.083 1077.93 557.211C1093.26 598.762 1141.27 622.947 1166.22 635.512L1166.59 635.701L1190.47 647.98L1305.72 589.259L1305.66 589.142L1614.2 431.943L1195.42 -390Z" fill="url(#paint3_linear_22_43)"/>
<path fill-rule="evenodd" clip-rule="evenodd" d="M1239.42 -413L930.654 -255.684L930.714 -255.567L758.399 -167.773L787.606 -158.209C789.192 -157.633 790.867 -157.031 792.621 -156.4C822.748 -145.57 875.957 -126.442 894.92 -89.2231C914.64 -50.5186 896.227 8.32921 878.079 66.3313L877.925 66.8237C859.352 125.895 841.445 184.627 865.884 221.065C884.249 248.548 926.333 263.55 968.64 278.631C983.304 283.857 997.994 289.094 1011.73 294.863C1065.48 316.366 1104.87 345.908 1114.94 390.384C1119.78 410.545 1118.4 434.026 1117.02 457.519C1115.42 484.793 1113.81 512.083 1121.93 534.211C1137.26 575.762 1185.27 599.947 1210.22 612.512L1210.59 612.701L1234.47 624.98L1349.72 566.259L1349.66 566.142L1658.2 408.943L1239.42 -413Z" fill="url(#paint4_linear_22_43)"/>
<path fill-rule="evenodd" clip-rule="evenodd" d="M1292.42 -442L983.654 -284.684L983.714 -284.567L811.399 -196.773L840.606 -187.209C842.192 -186.633 843.867 -186.031 845.621 -185.4C875.748 -174.57 928.957 -155.442 947.92 -118.223C967.64 -79.5186 949.227 -20.6707 931.079 37.3315L930.925 37.8237C912.352 96.8952 894.445 155.627 918.884 192.065C937.249 219.549 979.333 234.55 1021.64 249.631C1036.3 254.857 1050.99 260.094 1064.73 265.863C1118.48 287.366 1157.87 316.908 1167.94 361.384C1172.78 381.545 1171.4 405.026 1170.02 428.519C1168.42 455.793 1166.81 483.083 1174.93 505.211C1190.26 546.762 1238.27 570.947 1263.22 583.512L1263.59 583.701L1287.47 595.98L1402.72 537.259L1402.66 537.142L1711.2 379.943L1292.42 -442Z" fill="url(#paint5_linear_22_43)"/>
<path d="M1354.71 85.3729C1392.72 93.6036 1415.8 129.27 1443.04 169.167C1469.99 209.167 1501.19 253.184 1492.19 295.282C1483.38 337.489 1434.96 377.567 1383.42 381.113C1332.08 384.768 1277.62 351.89 1248.32 301.666C1219.31 251.337 1215.17 183.768 1239.47 140.326C1264.06 96.7796 1316.8 77.4652 1354.71 85.3729Z" fill="url(#paint6_linear_22_43)" fill-opacity="0.49"/>
<path d="M1362.71 122.82C1392.55 129.274 1410.66 157.28 1432.04 188.607C1453.18 220.016 1477.67 254.578 1470.59 287.644C1463.67 320.795 1425.65 352.286 1385.19 355.085C1344.88 357.97 1302.13 332.162 1279.14 292.724C1256.38 253.205 1253.15 200.137 1272.23 166.012C1291.55 131.804 1332.95 116.62 1362.71 122.82Z" fill="url(#paint7_linear_22_43)"/>
</g>
<defs>
<linearGradient id="paint0_linear_22_43" x1="1412" y1="858.738" x2="31.9999" y2="134.738" gradientUnits="userSpaceOnUse">
<stop stop-color="#2B8883"/>
<stop offset="1" stop-color="#304495"/>
</linearGradient>
<linearGradient id="paint1_linear_22_43" x1="524.631" y1="221.886" x2="199.743" y2="581.064" gradientUnits="userSpaceOnUse">
<stop stop-color="#7E97E1" stop-opacity="0.25"/>
<stop offset="1" stop-color="#67AAB9" stop-opacity="0.19"/>
</linearGradient>
<linearGradient id="paint2_linear_22_43" x1="467.821" y1="240.146" x2="212.581" y2="522.232" gradientUnits="userSpaceOnUse">
<stop stop-color="#9F91EF" stop-opacity="0.15"/>
<stop offset="1" stop-color="#64A9C2" stop-opacity="0.28"/>
</linearGradient>
<linearGradient id="paint3_linear_22_43" x1="918.711" y1="-249.017" x2="1337.55" y2="573.044" gradientUnits="userSpaceOnUse">
<stop stop-color="#5A76B6" stop-opacity="0.46"/>
<stop offset="1" stop-color="#368DBD" stop-opacity="0"/>
</linearGradient>
<linearGradient id="paint4_linear_22_43" x1="962.711" y1="-272.017" x2="1381.55" y2="550.044" gradientUnits="userSpaceOnUse">
<stop stop-color="#5A76B6" stop-opacity="0.57"/>
<stop offset="1" stop-color="#368DBD" stop-opacity="0"/>
</linearGradient>
<linearGradient id="paint5_linear_22_43" x1="1015.71" y1="-301.017" x2="1434.55" y2="521.044" gradientUnits="userSpaceOnUse">
<stop stop-color="#5A76B6" stop-opacity="0.51"/>
<stop offset="1" stop-color="#368DBD" stop-opacity="0"/>
</linearGradient>
<linearGradient id="paint6_linear_22_43" x1="1562.49" y1="204.648" x2="1352.67" y2="436.617" gradientUnits="userSpaceOnUse">
<stop stop-color="#7E97E1" stop-opacity="0.36"/>
<stop offset="1" stop-color="#67AAB9" stop-opacity="0.19"/>
</linearGradient>
<linearGradient id="paint7_linear_22_43" x1="1525.8" y1="216.441" x2="1360.96" y2="398.622" gradientUnits="userSpaceOnUse">
<stop stop-color="#9F91EF" stop-opacity="0.38"/>
<stop offset="1" stop-color="#64A9C2" stop-opacity="0.28"/>
</linearGradient>
<clipPath id="clip0_22_43">
<rect width="1440" height="691" fill="white"/>
</clipPath>
</defs>
</svg>
