<svg width="453" height="360" viewBox="0 0 453 360" fill="none" xmlns="http://www.w3.org/2000/svg">
<path d="M380.1 46.6977C404.6 95.5177 396.85 157.148 366.22 202.388C335.59 247.628 284.65 276.938 231.07 287.568C192.83 295.188 151.68 293.638 116.74 276.328C81.8 259.018 54.32 224.208 52.23 185.268C51.43 170.558 54.55 154.938 64.36 143.938C80.03 126.408 106.79 125.788 130.3 126.508C153.81 127.228 180.54 126.688 196.3 109.218C208.4 95.7977 210.18 76.3277 216.56 59.4177C227.4 30.6677 253.56 8.21773 283.62 1.86773C287.777 1.00009 291.991 0.431965 296.23 0.167731C329.29 -1.89227 360.65 15.1677 378 43.3477L380.1 46.6977Z" fill="#BAC1ED" fill-opacity="0.62"/>
<path d="M452.67 353.308C452.67 353.448 351.33 353.568 226.35 353.568C101.37 353.568 0 353.448 0 353.308C0 353.168 101.32 353.048 226.35 353.048C351.38 353.048 452.67 353.158 452.67 353.308Z" fill="#263238"/>
<path d="M306.5 63.3578H141.96C135.581 63.3578 130.41 68.5289 130.41 74.9078V341.428C130.41 347.807 135.581 352.978 141.96 352.978H306.5C312.879 352.978 318.05 347.807 318.05 341.428V74.9078C318.05 68.5289 312.879 63.3578 306.5 63.3578Z" fill="#455A64"/>
<path d="M229.98 339.508C229.879 340.91 229.37 342.252 228.517 343.37C227.664 344.487 226.503 345.331 225.177 345.798C223.851 346.265 222.417 346.335 221.052 345.998C219.687 345.662 218.45 344.935 217.492 343.905C216.535 342.876 215.899 341.59 215.662 340.204C215.425 338.818 215.598 337.393 216.16 336.104C216.721 334.815 217.647 333.718 218.823 332.948C219.999 332.178 221.374 331.768 222.78 331.768C224.76 331.843 226.629 332.7 227.978 334.151C229.328 335.602 230.048 337.528 229.98 339.508V339.508Z" fill="#263238"/>
<path d="M251.26 71.6978H197.19C196.516 71.6978 195.97 72.244 195.97 72.9178V73.6778C195.97 74.3516 196.516 74.8978 197.19 74.8978H251.26C251.934 74.8978 252.48 74.3516 252.48 73.6778V72.9178C252.48 72.244 251.934 71.6978 251.26 71.6978Z" fill="#263238"/>
<path d="M312.61 79.9778H136.81V324.328H312.61V79.9778Z" fill="#263238"/>
<path d="M266.97 299.108L267.62 299.048C268.252 299.009 268.88 298.925 269.5 298.798C270.504 298.584 271.478 298.248 272.4 297.798C273.666 297.2 274.82 296.388 275.81 295.398C277.062 294.164 278.037 292.678 278.67 291.038C279.409 289.088 279.687 286.993 279.48 284.918C279.257 282.377 278.264 279.965 276.635 278.004C275.005 276.042 272.816 274.624 270.36 273.938C269.678 273.753 268.982 273.619 268.28 273.538C267.56 273.538 266.84 273.458 266.09 273.468H261.53H251.86H230.51H181.6C179.48 273.483 177.397 274.026 175.54 275.048C173.72 276.079 172.189 277.55 171.086 279.327C169.984 281.104 169.345 283.13 169.23 285.218C169.068 287.261 169.379 289.314 170.14 291.218C170.918 293.054 172.112 294.684 173.63 295.978C175.131 297.234 176.905 298.12 178.81 298.568C180.706 298.91 182.636 299.027 184.56 298.918H190.23L230.18 298.978L257.11 299.058L264.43 299.108H266.33H266.98H266.33H264.43H257.11L230.18 299.188L190.23 299.248H181.62C181.13 299.248 180.62 299.248 180.13 299.158C179.636 299.096 179.145 299.01 178.66 298.898C176.677 298.436 174.831 297.514 173.27 296.208C171.689 294.863 170.443 293.168 169.63 291.258C168.846 289.297 168.521 287.183 168.68 285.078C168.811 282.945 169.482 280.88 170.63 279.078C171.783 277.228 173.386 275.7 175.29 274.638C177.226 273.568 179.398 273.001 181.61 272.988H230.52H251.87H266.1C266.84 272.988 267.59 272.988 268.33 273.058C269.053 273.149 269.768 273.293 270.47 273.488C273.008 274.212 275.261 275.699 276.925 277.747C278.588 279.795 279.582 282.306 279.77 284.938C279.967 287.054 279.67 289.187 278.9 291.168C278.243 292.829 277.241 294.333 275.96 295.578C274.944 296.574 273.763 297.386 272.47 297.978C271.531 298.43 270.54 298.766 269.52 298.978C268.893 299.092 268.257 299.155 267.62 299.168C267.23 299.118 266.97 299.108 266.97 299.108Z" fill="white"/>
<path d="M202.16 284.518L201.54 285.298C201.318 285.052 201.048 284.855 200.747 284.717C200.447 284.58 200.121 284.505 199.79 284.498C199.486 284.477 199.182 284.52 198.896 284.622C198.609 284.724 198.347 284.884 198.125 285.091C197.903 285.299 197.726 285.55 197.604 285.829C197.483 286.108 197.421 286.409 197.421 286.713C197.421 287.017 197.483 287.318 197.604 287.597C197.726 287.876 197.903 288.127 198.125 288.334C198.347 288.542 198.609 288.702 198.896 288.804C199.182 288.906 199.486 288.948 199.79 288.928C200.446 288.914 201.072 288.649 201.54 288.188L202.17 288.888C201.513 289.519 200.641 289.877 199.73 289.888C199.297 289.912 198.863 289.848 198.455 289.699C198.048 289.55 197.675 289.319 197.36 289.021C197.044 288.723 196.793 288.363 196.622 287.965C196.45 287.566 196.361 287.137 196.361 286.703C196.361 286.269 196.45 285.839 196.622 285.441C196.793 285.042 197.044 284.683 197.36 284.385C197.675 284.087 198.048 283.856 198.455 283.707C198.863 283.558 199.297 283.494 199.73 283.518C200.639 283.521 201.512 283.88 202.16 284.518V284.518Z" fill="white"/>
<path d="M209.23 286.728C209.262 287.394 209.093 288.055 208.746 288.625C208.399 289.195 207.89 289.648 207.283 289.925C206.676 290.203 206 290.292 205.342 290.182C204.684 290.072 204.074 289.767 203.591 289.307C203.107 288.847 202.773 288.252 202.631 287.6C202.488 286.949 202.544 286.269 202.792 285.649C203.039 285.03 203.467 284.498 204.019 284.124C204.571 283.749 205.223 283.549 205.89 283.548C206.319 283.532 206.748 283.602 207.15 283.754C207.552 283.906 207.919 284.137 208.23 284.433C208.542 284.73 208.791 285.086 208.962 285.48C209.134 285.874 209.225 286.298 209.23 286.728V286.728ZM203.63 286.728C203.635 287.325 203.877 287.897 204.302 288.316C204.728 288.736 205.302 288.97 205.9 288.968C206.342 288.962 206.772 288.825 207.136 288.576C207.5 288.326 207.783 287.974 207.948 287.564C208.113 287.155 208.153 286.705 208.063 286.273C207.973 285.84 207.758 285.444 207.443 285.134C207.129 284.823 206.73 284.613 206.296 284.529C205.862 284.445 205.413 284.491 205.006 284.661C204.598 284.832 204.25 285.119 204.005 285.486C203.761 285.854 203.63 286.286 203.63 286.728Z" fill="white"/>
<path d="M214.83 289.878L211.47 285.358V289.878H210.41V283.578H211.41L214.79 288.108V283.578H215.79V289.878H214.83Z" fill="white"/>
<path d="M218.6 284.528V286.348H221.46V287.298H218.6V289.878H217.53V283.578H221.77V284.528H218.6Z" fill="white"/>
<path d="M222.71 289.878V283.578H223.77V289.878H222.71Z" fill="white"/>
<path d="M228.23 287.938H226.45V289.838H225.43V283.538H227.98C229.59 283.538 230.52 284.318 230.52 285.688C230.547 286.117 230.435 286.543 230.201 286.903C229.967 287.263 229.623 287.538 229.22 287.688L230.63 289.798H229.42L228.23 287.938ZM227.94 286.998C228.94 286.998 229.47 286.578 229.47 285.728C229.47 284.878 228.92 284.498 227.94 284.498H226.45V286.998H227.94Z" fill="white"/>
<path d="M237.61 289.878V285.168L235.61 289.168H234.91L232.91 285.168V289.878H231.91V283.578H233.23L235.31 287.758L237.38 283.578H238.64V289.878H237.61Z" fill="white"/>
<path d="M241.32 284.528V286.228H244.4V287.228H241.32V288.938H244.87V289.888H240.23V283.588H244.73V284.538L241.32 284.528Z" fill="white"/>
<path d="M248.75 283.578C249.585 283.578 250.387 283.91 250.977 284.5C251.568 285.091 251.9 285.892 251.9 286.728C251.9 287.563 251.568 288.364 250.977 288.955C250.387 289.546 249.585 289.878 248.75 289.878H246.19V283.578H248.75ZM247.23 288.938H248.77C249.058 288.945 249.345 288.893 249.612 288.785C249.879 288.677 250.121 288.515 250.324 288.31C250.526 288.105 250.684 287.86 250.789 287.592C250.893 287.323 250.941 287.036 250.93 286.748C250.938 286.456 250.887 286.166 250.779 285.895C250.672 285.624 250.51 285.377 250.305 285.17C250.099 284.964 249.853 284.801 249.582 284.692C249.312 284.583 249.022 284.531 248.73 284.538H247.23V288.938Z" fill="white"/>
<path d="M156.78 165.158L289.94 164.198L293.65 254.728L155.77 253.448L156.78 165.158Z" fill="#407BFF"/>
<path d="M156.78 165.158L224.38 110.458L289.94 164.198" fill="#407BFF"/>
<g opacity="0.3">
<path opacity="0.3" d="M156.78 165.158L224.38 110.458L289.94 164.198" fill="black"/>
</g>
<path d="M155.77 253.448C155.6 253.298 166.26 241.658 179.58 227.448C192.9 213.238 203.82 201.858 203.99 202.018C204.16 202.178 193.5 213.808 180.18 228.018C166.86 242.228 155.94 253.608 155.77 253.448Z" fill="#263238"/>
<path d="M293.65 254.728C293.48 254.878 283.1 243.478 270.47 229.258C257.84 215.038 247.73 203.388 247.9 203.258C248.07 203.128 258.45 214.508 271.08 228.728C283.71 242.948 293.82 254.578 293.65 254.728Z" fill="#263238"/>
<g opacity="0.5">
<path opacity="0.5" d="M289.94 164.198L223.07 217.618L156.78 165.158" fill="black"/>
</g>
<path d="M163.49 170.108L163.29 131.378L279.92 128.518L281.19 170.898L223.07 216.918L163.49 170.108Z" fill="#EBEBEB"/>
<path d="M224.7 202.998C220.608 203.009 216.561 202.153 212.824 200.488C209.086 198.824 205.743 196.387 203.015 193.338C200.286 190.289 198.233 186.697 196.992 182.799C195.75 178.9 195.347 174.783 195.81 170.718C196.676 163.072 200.544 156.083 206.563 151.288C212.582 146.494 220.259 144.287 227.905 145.153C235.551 146.019 242.54 149.887 247.335 155.906C252.129 161.925 254.336 169.602 253.47 177.248C252.672 184.323 249.299 190.858 243.993 195.607C238.688 200.355 231.82 202.986 224.7 202.998V202.998ZM224.62 145.998C219.219 146.004 213.934 147.572 209.404 150.513C204.873 153.454 201.29 157.642 199.086 162.574C196.883 167.505 196.152 172.969 196.983 178.306C197.814 183.643 200.171 188.626 203.77 192.654C207.369 196.681 212.056 199.582 217.266 201.007C222.477 202.431 227.988 202.318 233.135 200.681C238.282 199.044 242.846 195.954 246.277 191.782C249.708 187.61 251.858 182.534 252.47 177.168V177.168C252.887 173.511 252.58 169.809 251.565 166.271C250.551 162.733 248.849 159.431 246.556 156.552C244.264 153.672 241.427 151.273 238.207 149.492C234.987 147.71 231.447 146.58 227.79 146.168C226.738 146.032 225.68 145.955 224.62 145.938V145.998Z" fill="#407BFF"/>
<path d="M204.92 178.008L209.77 172.068L221.11 180.258L239.54 158.538L245.1 163.428L221.39 190.748L204.92 178.008Z" fill="#407BFF"/>
<path d="M350.16 217.278C350.209 217.456 350.299 217.62 350.422 217.757C350.545 217.894 350.698 218.002 350.869 218.07C351.041 218.139 351.225 218.167 351.409 218.153C351.593 218.139 351.771 218.082 351.93 217.988C352.237 217.763 352.473 217.456 352.611 217.101C352.749 216.747 352.783 216.361 352.71 215.988C352.55 215.25 352.248 214.55 351.82 213.928C352.112 214.091 352.438 214.186 352.772 214.204C353.106 214.223 353.44 214.165 353.748 214.035C354.056 213.905 354.331 213.706 354.551 213.454C354.771 213.202 354.931 212.903 355.018 212.58C355.105 212.257 355.117 211.918 355.053 211.589C354.99 211.261 354.852 210.951 354.651 210.684C354.449 210.417 354.19 210.199 353.892 210.047C353.593 209.895 353.265 209.813 352.93 209.808C353.881 209.669 354.781 209.294 355.55 208.718C355.924 208.417 356.196 208.007 356.329 207.545C356.461 207.083 356.448 206.592 356.29 206.138C356.192 205.926 356.044 205.741 355.861 205.596C355.677 205.452 355.461 205.354 355.232 205.309C355.003 205.264 354.766 205.274 354.542 205.338C354.317 205.402 354.111 205.519 353.94 205.678C354.457 205.39 354.91 204.998 355.27 204.528C355.446 204.29 355.547 204.005 355.56 203.709C355.572 203.413 355.496 203.12 355.34 202.868C355.105 202.62 354.797 202.454 354.46 202.392C354.124 202.331 353.777 202.379 353.47 202.528C352.859 202.822 352.268 203.157 351.7 203.528C350.98 203.91 350.172 204.095 349.357 204.065C348.543 204.035 347.75 203.791 347.06 203.358L343.33 206.438L350.16 217.278Z" fill="#263238"/>
<path d="M330.23 200.348C329.196 200.69 328.281 201.321 327.593 202.166C326.906 203.011 326.474 204.035 326.35 205.118C326.288 205.511 326.305 205.912 326.399 206.298C326.493 206.684 326.664 207.048 326.9 207.368C327.234 207.711 327.655 207.959 328.117 208.086C328.579 208.212 329.067 208.213 329.53 208.088C330.449 207.832 331.305 207.386 332.04 206.778C332.624 206.442 333.134 205.992 333.539 205.454C333.945 204.916 334.238 204.302 334.4 203.648C334.434 202.983 334.259 202.324 333.901 201.763C333.542 201.202 333.018 200.767 332.4 200.518C331.782 200.284 331.121 200.182 330.462 200.22C329.802 200.258 329.157 200.434 328.57 200.738" fill="#263238"/>
<path d="M333.46 218.818C333.133 220.145 332.574 221.404 331.81 222.538C331.426 223.103 330.927 223.58 330.347 223.94C329.766 224.3 329.117 224.535 328.44 224.628C327.762 224.703 327.078 224.554 326.493 224.204C325.908 223.853 325.454 223.321 325.2 222.688C325.088 223.076 324.875 223.429 324.584 223.71C324.293 223.99 323.933 224.19 323.54 224.288C323.143 224.373 322.73 224.33 322.36 224.164C321.989 223.999 321.681 223.72 321.48 223.368C321.3 223.006 321.26 222.591 321.367 222.202C321.474 221.812 321.72 221.476 322.06 221.258C321.26 221.708 320.26 222.168 319.47 221.698C319.131 221.484 318.882 221.153 318.77 220.768C318.36 219.508 319.14 218.188 320.01 217.188C320.88 216.188 321.9 215.188 322.11 213.908C322.171 212.846 322.011 211.784 321.64 210.788C321.314 209.649 321.266 208.449 321.5 207.288C321.62 206.705 321.86 206.153 322.204 205.668C322.548 205.182 322.99 204.774 323.5 204.468C324.01 204.168 324.598 204.027 325.189 204.061C325.779 204.094 326.347 204.302 326.82 204.658L326.99 206.358L333.49 218.818" fill="#263238"/>
<path d="M349.01 238.638C349.01 238.638 351.34 263.288 349.38 266.498C347.42 269.708 323.38 303.258 323.38 303.258H323.44C322.97 303.458 322.44 303.648 321.92 303.858C321.082 304.155 320.199 304.311 319.31 304.318C318.207 304.369 317.103 304.264 316.03 304.008C315.03 303.668 314.2 304.678 314.72 305.438C315.24 306.198 317.87 307.178 321.13 306.868C324.39 306.558 320.72 310.168 319.41 311.508C318.1 312.848 314.24 317.198 314.34 317.928C314.48 318.998 315.65 319.048 316.93 317.678C318.21 316.308 322.32 312.458 323 313.188C323.68 313.918 316.9 320.648 316.9 320.648C316.9 320.648 315.22 321.858 315.98 322.728C317.33 324.288 323.98 316.588 324.61 315.838C325.04 315.318 325.8 316.078 325.31 316.608C324.82 317.138 318.41 323.188 319.78 324.788C320.83 326.018 325.32 318.498 327.34 317.988C329.36 317.478 323.34 323.338 324.41 324.478C324.8 324.898 325.15 325.158 328.11 321.288C330.452 317.916 332.606 314.418 334.56 310.808C337.71 307.398 368.76 273.688 369 267.388C369.25 260.758 370.44 238.318 370.44 238.318L349.01 238.638Z" fill="#EB996E"/>
<path d="M311.98 348.358L311.69 339.208L328.83 338.568L329.39 351.948L328.33 352.058C323.61 352.498 304.33 353.958 301.1 353.118C297.54 352.178 311.98 348.358 311.98 348.358Z" fill="#407BFF"/>
<g opacity="0.4">
<path opacity="0.4" d="M304.93 350.478C304.93 350.478 299.88 352.138 300.55 352.958C301.22 353.778 320.78 353.028 329.39 351.958L329.34 351.578L306.53 352.638C306.53 352.638 305.93 350.478 304.93 350.478Z" fill="white"/>
</g>
<path d="M329.61 351.548H329.32L328.48 351.628L325.37 351.888C322.74 352.078 319.11 352.298 315.09 352.458C311.07 352.618 307.43 352.668 304.8 352.678H301.68H300.83C300.73 352.693 300.629 352.693 300.53 352.678H300.83H301.68L304.79 352.628C307.43 352.578 311.07 352.498 315.08 352.338C319.09 352.178 322.73 351.988 325.36 351.828L328.47 351.638H329.32L329.61 351.548Z" fill="#263238"/>
<path d="M306.54 352.938C306.387 352.425 306.176 351.932 305.91 351.468C305.583 351.045 305.211 350.659 304.8 350.318C305.334 350.483 305.79 350.839 306.08 351.318C306.438 351.777 306.603 352.358 306.54 352.938V352.938Z" fill="#263238"/>
<path d="M311.5 350.138C311.5 350.138 311.2 349.888 310.94 349.498C310.751 349.282 310.614 349.025 310.54 348.748C310.59 348.748 310.84 348.998 311.11 349.378C311.38 349.758 311.55 350.108 311.5 350.138Z" fill="#263238"/>
<path d="M312.86 349.348C312.86 349.348 312.55 349.228 312.24 348.968C311.93 348.708 311.72 348.478 311.76 348.428C311.8 348.378 312.07 348.558 312.38 348.808C312.69 349.058 312.9 349.308 312.86 349.348Z" fill="#263238"/>
<path d="M313.68 347.698C313.398 347.812 313.094 347.863 312.79 347.848C312.764 347.955 312.7 348.049 312.61 348.112C312.519 348.175 312.409 348.203 312.299 348.19C312.19 348.177 312.089 348.124 312.016 348.042C311.943 347.959 311.902 347.853 311.902 347.743C311.902 347.633 311.943 347.526 312.016 347.444C312.089 347.361 312.19 347.309 312.299 347.296C312.409 347.283 312.519 347.311 312.61 347.374C312.7 347.437 312.764 347.531 312.79 347.638C313.087 347.592 313.391 347.613 313.68 347.698Z" fill="#263238"/>
<path d="M313.94 346.548C313.647 346.754 313.299 346.869 312.94 346.878C312.604 346.937 312.258 346.902 311.94 346.778C312.27 346.714 312.604 346.677 312.94 346.668C313.269 346.595 313.603 346.555 313.94 346.548V346.548Z" fill="#263238"/>
<path d="M310.86 348.668C310.496 348.732 310.124 348.732 309.76 348.668C309.361 348.633 308.966 348.563 308.58 348.458C308.345 348.398 308.118 348.314 307.9 348.208C307.764 348.134 307.661 348.013 307.61 347.868C307.59 347.788 307.594 347.704 307.62 347.626C307.647 347.548 307.695 347.479 307.76 347.428C308.171 347.201 308.648 347.125 309.109 347.215C309.57 347.305 309.984 347.553 310.28 347.918C310.46 348.127 310.593 348.372 310.67 348.638C310.692 348.736 310.692 348.839 310.67 348.938C310.543 348.603 310.361 348.292 310.13 348.018C309.861 347.73 309.513 347.528 309.13 347.438C308.913 347.373 308.686 347.352 308.461 347.376C308.236 347.4 308.018 347.469 307.82 347.578C307.65 347.718 307.73 347.918 307.93 348.028C308.128 348.128 308.336 348.209 308.55 348.268C308.926 348.384 309.31 348.467 309.7 348.518C310.44 348.648 310.86 348.628 310.86 348.668Z" fill="#263238"/>
<path d="M310.58 348.728C310.439 348.501 310.385 348.231 310.43 347.968C310.447 347.679 310.54 347.399 310.7 347.158C310.783 346.989 310.909 346.845 311.065 346.739C311.221 346.634 311.402 346.571 311.59 346.558C311.701 346.577 311.801 346.639 311.868 346.731C311.935 346.822 311.965 346.935 311.95 347.048C311.936 347.226 311.878 347.398 311.78 347.548C311.647 347.798 311.482 348.03 311.29 348.238C310.95 348.588 310.69 348.728 310.67 348.708C310.65 348.688 310.88 348.498 311.18 348.138C311.347 347.931 311.491 347.706 311.61 347.468C311.75 347.228 311.84 346.798 311.56 346.768C311.28 346.738 311.02 347.028 310.86 347.258C310.713 347.478 310.614 347.727 310.57 347.988C310.551 348.234 310.554 348.482 310.58 348.728V348.728Z" fill="#263238"/>
<path d="M329.08 346.868C329.08 346.868 328.59 346.868 327.82 346.958C326.816 347.118 325.876 347.551 325.1 348.208C324.337 348.875 323.772 349.74 323.47 350.708C323.23 351.458 323.23 351.948 323.19 351.948C323.173 351.832 323.173 351.714 323.19 351.598C323.209 351.284 323.259 350.972 323.34 350.668C323.609 349.649 324.18 348.736 324.978 348.049C325.776 347.362 326.763 346.933 327.81 346.818C328.122 346.783 328.438 346.783 328.75 346.818C328.862 346.814 328.974 346.831 329.08 346.868V346.868Z" fill="#263238"/>
<path d="M327.04 339.808C327.202 340.971 327.295 342.143 327.32 343.318C327.416 344.492 327.44 345.671 327.39 346.848C327.234 345.68 327.14 344.505 327.11 343.328C327.013 342.157 326.99 340.981 327.04 339.808Z" fill="#263238"/>
<path d="M320.95 350.458C320.138 350.678 319.301 350.792 318.46 350.798C317.619 350.87 316.772 350.837 315.94 350.698C315.94 350.638 317.07 350.698 318.45 350.588C319.83 350.478 320.94 350.398 320.95 350.458Z" fill="#263238"/>
<path d="M324.31 350.328C324.31 350.328 324.22 350.568 324.12 350.828C324.02 351.088 323.96 351.318 323.9 351.318C323.84 351.318 323.8 351.048 323.9 350.748C324 350.448 324.23 350.288 324.31 350.328Z" fill="#263238"/>
<path d="M325.51 348.698C325.51 348.698 325.45 348.918 325.28 349.108C325.11 349.298 324.94 349.418 324.89 349.378C324.84 349.338 324.96 349.158 325.13 348.968C325.3 348.778 325.47 348.658 325.51 348.698Z" fill="#263238"/>
<path d="M327.3 347.938C327.3 347.998 327.06 348.008 326.81 348.108C326.56 348.208 326.38 348.348 326.34 348.308C326.3 348.268 326.43 348.028 326.74 347.908C327.05 347.788 327.31 347.858 327.3 347.938Z" fill="#263238"/>
<path d="M328.57 347.528C328.57 347.578 328.5 347.668 328.36 347.728C328.22 347.788 328.09 347.798 328.06 347.728C328.03 347.658 328.14 347.578 328.28 347.518C328.42 347.458 328.55 347.468 328.57 347.528Z" fill="#263238"/>
<g opacity="0.3">
<path opacity="0.3" d="M329.04 346.408L311.91 346.778L311.86 344.708L329.14 345.318L329.04 346.408Z" fill="black"/>
</g>
<path d="M376.5 286.278L322.32 285.538C322.32 285.538 307.23 286.938 307.23 306.578L309.14 345.248H332.23L330.66 308.188C331.95 308.188 349.43 308.768 349.43 308.768L376.5 286.278Z" fill="#263238"/>
<path d="M309.15 345.248C309.103 345.027 309.08 344.803 309.08 344.578C309.08 344.088 309.01 343.448 308.97 342.658L308.56 335.598C308.21 329.598 307.56 321.408 307.08 312.288C306.92 307.738 306.57 303.378 307.08 299.408C307.202 298.441 307.399 297.484 307.67 296.548C307.952 295.668 308.324 294.821 308.78 294.018C309.601 292.581 310.663 291.295 311.92 290.218C312.956 289.336 314.098 288.586 315.32 287.988C316.248 287.57 317.212 287.235 318.2 286.988L319.28 286.728L320.09 286.598C320.31 286.552 320.535 286.529 320.76 286.528C320.551 286.61 320.333 286.667 320.11 286.698L319.32 286.878L318.25 287.178C317.291 287.481 316.356 287.852 315.45 288.288C314.267 288.898 313.162 289.65 312.16 290.528C310.961 291.601 309.948 292.865 309.16 294.268C308.747 295.053 308.412 295.877 308.16 296.728C307.906 297.643 307.719 298.575 307.6 299.518C307.09 303.398 307.45 307.758 307.6 312.308C308.05 321.408 308.67 329.638 308.93 335.618C309.07 338.618 309.14 341.018 309.17 342.688C309.17 343.488 309.17 344.118 309.17 344.618C309.186 344.828 309.18 345.039 309.15 345.248Z" fill="#455A64"/>
<path d="M412.56 348.368L403.42 348.978L402.23 331.878L415.58 330.878L415.73 331.878C416.33 336.578 418.47 355.878 417.73 359.048C416.89 362.668 412.56 348.368 412.56 348.368Z" fill="#407BFF"/>
<g opacity="0.4">
<path opacity="0.4" d="M414.93 355.338C414.93 355.338 416.76 360.338 417.56 359.628C418.36 358.918 416.92 339.408 415.56 330.848H415.18L417.05 353.618C417.05 353.618 414.89 354.338 414.93 355.338Z" fill="white"/>
</g>
<path d="M415.12 330.638C415.152 330.731 415.172 330.829 415.18 330.928C415.18 331.178 415.25 331.458 415.29 331.768C415.39 332.608 415.51 333.648 415.65 334.868C415.94 337.488 416.29 341.108 416.58 345.118C416.87 349.128 417.07 352.758 417.17 355.398C417.17 356.618 417.24 357.668 417.27 358.508C417.27 358.828 417.27 359.108 417.27 359.358C417.281 359.457 417.281 359.558 417.27 359.658C417.263 359.558 417.263 359.458 417.27 359.358C417.27 359.108 417.27 358.828 417.22 358.518C417.22 357.668 417.12 356.628 417.05 355.398C416.91 352.768 416.7 349.138 416.41 345.128C416.12 341.118 415.78 337.498 415.53 334.878C415.42 333.658 415.32 332.618 415.24 331.778C415.24 331.458 415.19 331.188 415.16 330.928C415.13 330.668 415.12 330.638 415.12 330.638Z" fill="#263238"/>
<path d="M417.28 353.638C416.778 353.819 416.295 354.05 415.84 354.328C415.425 354.666 415.053 355.052 414.73 355.478C414.886 354.928 415.243 354.457 415.73 354.158C416.166 353.801 416.717 353.616 417.28 353.638Z" fill="#263238"/>
<path d="M414.35 348.778C414.35 348.828 414.11 349.088 413.74 349.368C413.37 349.648 413.03 349.838 412.99 349.788C412.95 349.738 413.24 349.478 413.61 349.198C413.826 349.009 414.077 348.866 414.35 348.778V348.778Z" fill="#263238"/>
<path d="M413.52 347.448C413.52 347.448 413.4 347.768 413.16 348.088C412.92 348.408 412.68 348.628 412.64 348.588C412.6 348.548 412.75 348.268 413 347.958C413.25 347.648 413.47 347.418 413.52 347.448Z" fill="#263238"/>
<path d="M411.84 346.698C411.9 346.698 411.98 347.088 412.02 347.578C412.088 347.874 412.088 348.182 412.02 348.478C411.96 348.478 411.88 348.088 411.84 347.598C411.8 347.108 411.78 346.698 411.84 346.698Z" fill="#263238"/>
<path d="M410.68 346.478C410.902 346.765 411.028 347.115 411.04 347.478C411.117 347.81 411.096 348.157 410.98 348.478C410.901 348.15 410.854 347.815 410.84 347.478C410.754 347.151 410.7 346.816 410.68 346.478V346.478Z" fill="#263238"/>
<path d="M412.9 349.468C412.994 349.826 413.021 350.199 412.98 350.568C412.958 350.969 412.897 351.368 412.8 351.758C412.751 351.995 412.677 352.226 412.58 352.448C412.513 352.583 412.399 352.689 412.26 352.748C412.179 352.772 412.093 352.772 412.011 352.749C411.93 352.726 411.857 352.68 411.8 352.618C411.559 352.214 411.467 351.738 411.542 351.273C411.617 350.809 411.854 350.385 412.21 350.078C412.414 349.892 412.657 349.752 412.92 349.668C413.011 349.627 413.111 349.61 413.21 349.618C412.877 349.75 412.572 349.943 412.31 350.188C412.034 350.46 411.846 350.808 411.77 351.188C411.711 351.406 411.697 351.634 411.73 351.858C411.763 352.081 411.841 352.296 411.96 352.488C412.1 352.658 412.3 352.578 412.4 352.368C412.493 352.165 412.566 351.954 412.62 351.738C412.721 351.357 412.791 350.969 412.83 350.578C412.9 349.938 412.87 349.478 412.9 349.468Z" fill="#263238"/>
<path d="M412.98 349.748C412.759 349.903 412.488 349.971 412.22 349.938C411.932 349.921 411.651 349.839 411.4 349.698C411.229 349.616 411.082 349.493 410.972 349.339C410.861 349.185 410.792 349.006 410.77 348.818C410.787 348.706 410.847 348.606 410.936 348.537C411.025 348.468 411.138 348.436 411.25 348.448C411.429 348.456 411.604 348.508 411.76 348.598C412.014 348.721 412.25 348.879 412.46 349.068C412.667 349.223 412.835 349.425 412.95 349.658C412.95 349.658 412.74 349.458 412.37 349.178C412.153 349.02 411.922 348.883 411.68 348.768C411.43 348.638 411.01 348.558 410.98 348.838C410.95 349.118 411.27 349.378 411.5 349.528C411.724 349.668 411.977 349.757 412.24 349.788C412.487 349.802 412.735 349.788 412.98 349.748V349.748Z" fill="#263238"/>
<path d="M410.47 331.328C410.47 331.328 410.47 331.818 410.61 332.588C410.8 333.583 411.26 334.506 411.94 335.258C412.637 335.997 413.522 336.532 414.5 336.808C415.26 337.008 415.75 336.998 415.75 337.038C415.634 337.057 415.516 337.057 415.4 337.038C415.087 337.032 414.775 336.992 414.47 336.918C413.443 336.682 412.512 336.142 411.798 335.367C411.084 334.593 410.621 333.62 410.47 332.578C410.433 332.266 410.433 331.95 410.47 331.638C410.454 331.535 410.454 331.43 410.47 331.328Z" fill="#263238"/>
<path d="M403.48 333.618C404.638 333.418 405.807 333.285 406.98 333.218C408.148 333.079 409.324 333.012 410.5 333.018C409.343 333.224 408.174 333.358 407 333.418C405.832 333.557 404.656 333.623 403.48 333.618V333.618Z" fill="#263238"/>
<path d="M414.34 339.328C414.59 340.132 414.734 340.966 414.77 341.808C414.885 342.644 414.885 343.492 414.77 344.328C414.71 344.328 414.7 343.208 414.58 341.828C414.46 340.448 414.28 339.348 414.34 339.328Z" fill="#263238"/>
<path d="M414.09 335.938C414.09 335.938 414.33 336.018 414.6 336.108C414.87 336.198 415.09 336.248 415.09 336.308C415.09 336.368 414.83 336.418 414.53 336.308C414.23 336.198 414.05 336.018 414.09 335.938Z" fill="#263238"/>
<path d="M412.42 334.828C412.42 334.828 412.65 334.888 412.84 335.048C413.03 335.208 413.16 335.378 413.12 335.428C413.08 335.478 412.9 335.368 412.7 335.208C412.5 335.048 412.39 334.878 412.42 334.828Z" fill="#263238"/>
<path d="M411.57 333.078C411.63 333.078 411.65 333.308 411.75 333.558C411.85 333.808 412.01 333.978 411.97 334.018C411.93 334.058 411.69 333.948 411.56 333.638C411.43 333.328 411.52 333.068 411.57 333.078Z" fill="#263238"/>
<path d="M411.14 331.818C411.14 331.818 411.29 331.878 411.35 332.018C411.41 332.158 411.43 332.288 411.35 332.318C411.27 332.348 411.2 332.248 411.13 332.108C411.06 331.968 411.09 331.838 411.14 331.818Z" fill="#263238"/>
<g opacity="0.3">
<path opacity="0.3" d="M410.01 331.378L410.98 348.488L408.92 348.618V331.328L410.01 331.378Z" fill="black"/>
</g>
<path d="M356.53 331.458C356.53 331.458 402.7 306.248 407.93 298.038C409.498 295.634 410.458 292.885 410.727 290.028C410.995 287.171 410.564 284.291 409.47 281.638L370.62 286.828L342.99 314.498C336.99 319.268 326.12 329.238 326.12 339.068C326.12 355.888 347.87 353.138 363.48 353.178C384.82 353.228 408.77 353.318 408.77 353.318L408.83 330.388L356.53 331.458Z" fill="#263238"/>
<path d="M345.56 336.258C347.507 335.65 349.409 334.905 351.25 334.028C353.15 333.283 354.992 332.397 356.76 331.378C354.812 331.986 352.91 332.735 351.07 333.618C349.17 334.36 347.328 335.242 345.56 336.258V336.258Z" fill="#455A64"/>
<path d="M349.23 330.638C350.547 330.898 351.888 331.015 353.23 330.988C354.583 331.102 355.944 331.071 357.29 330.898C355.973 330.639 354.632 330.518 353.29 330.538C351.937 330.416 350.575 330.45 349.23 330.638V330.638Z" fill="#455A64"/>
<path d="M367.58 290.718C367.451 290.89 367.308 291.051 367.15 291.198L365.83 292.498L360.92 297.228L344.59 312.688C341.4 315.688 338.3 318.518 335.59 321.188C333.174 323.514 331.04 326.115 329.23 328.938C328.027 330.849 327.143 332.943 326.61 335.138L326.38 336.138C326.38 336.438 326.31 336.688 326.27 336.918C326.257 337.132 326.217 337.344 326.15 337.548C326.126 337.335 326.126 337.12 326.15 336.908C326.15 336.678 326.15 336.418 326.21 336.118C326.27 335.818 326.32 335.458 326.39 335.058C326.854 332.812 327.703 330.664 328.9 328.708C330.683 325.825 332.808 323.169 335.23 320.798C337.92 318.088 341.01 315.278 344.23 312.258L360.67 296.938L365.67 292.338L367.06 291.098C367.223 290.958 367.397 290.831 367.58 290.718V290.718Z" fill="#455A64"/>
<path d="M353.72 240.628C352.745 241.154 351.67 241.469 350.565 241.553C349.46 241.638 348.35 241.489 347.306 241.116C346.262 240.744 345.308 240.156 344.506 239.392C343.704 238.627 343.072 237.702 342.65 236.678L340.89 232.388C340.89 232.388 334.89 234.508 331.89 229.038C330.19 225.968 327.78 220.728 326 216.718C325.264 215.05 324.97 213.221 325.145 211.407C325.32 209.593 325.959 207.854 327 206.358V206.358C331.89 200.188 335.77 201.218 343.54 202.478L344.7 202.668L357.21 230.418C358.029 232.245 358.124 234.315 357.476 236.21C356.828 238.105 355.486 239.684 353.72 240.628Z" fill="#FFBE9D"/>
<path d="M329.81 219.428C329.872 219.258 329.881 219.074 329.838 218.898C329.795 218.723 329.7 218.564 329.566 218.443C329.432 218.321 329.265 218.243 329.086 218.216C328.908 218.19 328.725 218.218 328.562 218.296C328.399 218.374 328.263 218.499 328.171 218.654C328.079 218.81 328.036 218.989 328.046 219.17C328.057 219.35 328.121 219.523 328.23 219.667C328.339 219.811 328.489 219.919 328.66 219.978C328.772 220.017 328.89 220.034 329.008 220.028C329.126 220.022 329.242 219.993 329.349 219.941C329.456 219.89 329.552 219.819 329.631 219.731C329.71 219.642 329.771 219.539 329.81 219.428Z" fill="#263238"/>
<path d="M327.35 218.508C327.49 218.558 327.8 217.848 328.56 217.438C329.32 217.028 330.08 217.118 330.11 216.978C330.14 216.838 329.95 216.788 329.61 216.738C329.161 216.671 328.702 216.759 328.31 216.988C327.908 217.213 327.591 217.564 327.41 217.988C327.23 218.278 327.29 218.488 327.35 218.508Z" fill="#263238"/>
<path d="M336.39 214.938C336.299 215.093 336.257 215.272 336.268 215.452C336.279 215.632 336.343 215.805 336.452 215.948C336.561 216.091 336.711 216.199 336.881 216.257C337.052 216.316 337.236 216.322 337.41 216.276C337.584 216.229 337.741 216.132 337.86 215.997C337.978 215.862 338.055 215.694 338.078 215.515C338.102 215.337 338.072 215.155 337.992 214.993C337.912 214.832 337.786 214.698 337.63 214.608C337.527 214.547 337.413 214.507 337.295 214.491C337.177 214.475 337.056 214.482 336.941 214.513C336.825 214.544 336.717 214.597 336.623 214.67C336.528 214.743 336.449 214.834 336.39 214.938V214.938Z" fill="#263238"/>
<path d="M335.63 214.758C335.77 214.808 336.08 214.098 336.84 213.688C337.6 213.278 338.36 213.368 338.39 213.228C338.42 213.088 338.23 213.038 337.89 212.988C337.441 212.921 336.982 213.009 336.59 213.238C336.188 213.463 335.872 213.814 335.69 214.238C335.55 214.528 335.57 214.738 335.63 214.758Z" fill="#263238"/>
<path d="M336.23 222.788C335.756 222.835 335.294 222.971 334.87 223.188C334.66 223.268 334.48 223.308 334.41 223.188C334.296 222.994 334.237 222.773 334.24 222.548C334.17 221.938 334.09 221.328 334.01 220.688C333.882 219.077 333.583 217.485 333.12 215.938C333.097 217.551 333.234 219.162 333.53 220.748C333.62 221.388 333.71 221.998 333.8 222.608C333.805 222.93 333.922 223.241 334.13 223.488C334.198 223.549 334.28 223.593 334.369 223.615C334.458 223.638 334.551 223.639 334.64 223.618C334.77 223.59 334.894 223.543 335.01 223.478C335.83 223.118 336.3 222.848 336.23 222.788Z" fill="#263238"/>
<path d="M340.84 232.318C343.407 230.996 345.521 228.938 346.91 226.408C346.91 226.408 347.35 231.278 341.6 233.748L340.84 232.318Z" fill="#EB996E"/>
<path d="M347.16 208.828C347.25 208.728 351.56 206.178 352.84 210.878C353.95 214.948 349.35 215.648 349.29 215.518C349.23 215.388 347.16 208.828 347.16 208.828Z" fill="#FFBE9D"/>
<path d="M350.12 213.128C350.12 213.128 350.2 213.128 350.34 213.128C350.527 213.134 350.709 213.07 350.85 212.948C351.041 212.695 351.162 212.397 351.2 212.082C351.239 211.768 351.194 211.449 351.07 211.158C350.958 210.819 350.77 210.512 350.52 210.258C350.439 210.15 350.333 210.064 350.211 210.006C350.089 209.949 349.955 209.922 349.82 209.928C349.736 209.938 349.658 209.976 349.598 210.036C349.539 210.096 349.5 210.174 349.49 210.258C349.49 210.388 349.49 210.458 349.49 210.468C349.49 210.478 349.38 210.468 349.36 210.268C349.342 210.164 349.364 210.057 349.42 209.968C349.497 209.846 349.62 209.76 349.76 209.728C349.931 209.699 350.107 209.715 350.27 209.775C350.433 209.834 350.578 209.935 350.69 210.068C350.977 210.345 351.194 210.688 351.32 211.068C351.459 211.401 351.498 211.768 351.433 212.123C351.367 212.478 351.199 212.806 350.95 213.068C350.858 213.137 350.752 213.185 350.64 213.207C350.527 213.23 350.411 213.227 350.3 213.198C350.16 213.228 350.11 213.148 350.12 213.128Z" fill="#EB996E"/>
<path d="M345.16 239.938C345.16 239.938 355.91 221.938 372.53 237.088C383.38 246.988 401.08 267.408 407.4 275.408C408.82 277.198 411.03 279.928 409.48 281.608C404.74 286.728 391.82 298.208 367.91 289.608L345.23 258.068C343.336 255.43 342.31 252.269 342.294 249.022C342.277 245.775 343.272 242.604 345.14 239.948L345.16 239.938Z" fill="#407BFF"/>
<path d="M358.94 231.368L355.91 226.408L340.43 238.728L343.32 243.378L358.94 231.368Z" fill="#407BFF"/>
<g opacity="0.3">
<path opacity="0.3" d="M358.28 232.008C358.28 232.008 346.09 242.548 345.92 242.368C345.75 242.188 341.05 238.808 341.05 238.808L345.34 241.218L358.28 232.008Z" fill="black"/>
</g>
<path d="M359.07 231.308C358.793 231.414 358.531 231.555 358.29 231.728C357.81 232.028 357.12 232.478 356.29 233.058C354.61 234.208 352.36 235.878 349.88 237.718C348.19 238.968 346.6 240.118 345.24 241.058H345.44C343.99 240.278 342.78 239.628 341.93 239.198C341.495 238.942 341.036 238.727 340.56 238.558C340.948 238.88 341.371 239.158 341.82 239.388C342.64 239.888 343.82 240.578 345.25 241.388L345.35 241.438L345.45 241.378C346.84 240.458 348.45 239.328 350.14 238.078L356.47 233.318L358.39 231.878C358.639 231.717 358.868 231.525 359.07 231.308Z" fill="#263238"/>
<path d="M292.98 278.628L290.04 277.438C288.314 276.964 286.639 276.321 285.04 275.518C284.239 275.137 283.512 274.619 282.89 273.988C282.081 273.235 281.381 272.374 280.81 271.428C280.748 271.213 280.617 271.025 280.436 270.894C280.255 270.763 280.036 270.696 279.813 270.704C279.589 270.712 279.375 270.794 279.204 270.938C279.034 271.082 278.916 271.279 278.87 271.498C278.7 272.408 279.87 274.968 282.34 277.068C284.81 279.168 279.7 279.068 277.83 279.068C275.96 279.068 270.15 279.368 269.69 279.948C269.02 280.788 269.81 281.658 271.69 281.608C273.57 281.558 279.2 281.808 279.15 282.798C279.1 283.788 269.56 283.678 269.56 283.678C269.56 283.678 267.56 283.328 267.43 284.468C267.27 286.538 277.43 285.888 278.43 285.798C279.1 285.738 279.09 286.798 278.36 286.848C277.63 286.898 268.84 286.528 268.65 288.628C268.51 290.238 277.02 288.178 278.8 289.258C280.58 290.338 272.19 290.168 272.12 291.708C272.12 292.288 272.12 292.708 276.99 292.118C281.86 291.528 295.08 287.678 295.08 287.678L292.86 278.468" fill="#FFBE9D"/>
<path d="M350.42 246.218C350.42 246.218 334.61 268.018 330.95 268.868C327.29 269.718 286.53 276.128 286.53 276.128L288.53 289.428C288.53 289.428 339.12 288.008 344.02 283.538C348.92 279.068 363.72 256.338 363.72 256.338L350.42 246.218Z" fill="#FFBE9D"/>
<path d="M339.29 283.158C339.29 283.158 339.4 283.338 339.71 283.528C340.168 283.778 340.69 283.886 341.21 283.838C341.603 283.805 341.983 283.682 342.321 283.479C342.659 283.276 342.946 282.999 343.16 282.668C343.436 282.264 343.595 281.79 343.618 281.301C343.641 280.812 343.527 280.326 343.29 279.898C343.042 279.431 342.628 279.074 342.13 278.898C341.657 278.746 341.144 278.786 340.7 279.008C340.515 279.105 340.353 279.24 340.222 279.403C340.091 279.566 339.995 279.754 339.94 279.955C339.885 280.157 339.871 280.367 339.901 280.574C339.93 280.781 340.001 280.979 340.11 281.158C340.273 281.381 340.506 281.545 340.771 281.625C341.036 281.704 341.32 281.695 341.58 281.598C341.93 281.448 342.02 281.228 342 281.218C341.98 281.208 341.84 281.348 341.52 281.428C341.308 281.48 341.085 281.465 340.881 281.386C340.677 281.308 340.502 281.169 340.38 280.988C340.307 280.849 340.263 280.697 340.249 280.54C340.235 280.384 340.252 280.226 340.3 280.077C340.347 279.927 340.424 279.788 340.525 279.668C340.626 279.548 340.75 279.45 340.89 279.378C341.235 279.218 341.629 279.196 341.99 279.318C342.379 279.457 342.703 279.735 342.9 280.098C343.073 280.429 343.164 280.797 343.166 281.171C343.168 281.545 343.081 281.914 342.912 282.248C342.743 282.581 342.497 282.869 342.194 283.089C341.891 283.308 341.54 283.451 341.17 283.508C340.523 283.572 339.871 283.451 339.29 283.158Z" fill="#EB996E"/>
<path d="M368.47 252.858L353.47 278.608L336.17 264.288C336.17 264.288 348.17 244.668 353.82 238.588L368.47 252.858Z" fill="#407BFF"/>
<path d="M325.45 302.018C326.839 302.518 328.054 303.407 328.952 304.579C329.849 305.751 330.39 307.157 330.51 308.628C329.606 305.923 327.825 303.596 325.45 302.018V302.018Z" fill="#455A64"/>
<path d="M343.36 211.168C343.468 211.371 343.621 211.547 343.809 211.68C343.996 211.814 344.212 211.902 344.44 211.938C344.89 212.028 345.35 212.018 345.81 212.108C346.525 212.243 347.171 212.621 347.64 213.178C347.826 213.432 348.037 213.666 348.27 213.878C348.39 213.98 348.539 214.043 348.696 214.06C348.853 214.076 349.011 214.044 349.15 213.968C349.55 213.668 349.37 213.048 349.15 212.598C348.21 210.738 347.277 208.878 346.35 207.018L341.05 208.168L343.33 210.818" fill="#263238"/>
<path d="M326.05 204.838C326.66 204.108 327.57 203.508 328.29 204.138C328.956 204.836 329.39 205.723 329.53 206.678C329.679 207.627 329.997 208.542 330.47 209.378C330.812 209.878 331.284 210.275 331.835 210.528C332.385 210.781 332.994 210.88 333.596 210.814C334.199 210.749 334.772 210.521 335.255 210.155C335.738 209.79 336.113 209.3 336.34 208.738C336.998 209.872 337.843 210.886 338.84 211.738C339.344 212.153 339.944 212.436 340.585 212.56C341.226 212.684 341.888 212.645 342.51 212.448C342.811 212.333 343.085 212.159 343.318 211.937C343.55 211.714 343.735 211.447 343.862 211.151C343.989 210.855 344.055 210.537 344.056 210.215C344.058 209.893 343.994 209.575 343.87 209.278C344.55 209.842 345.397 210.166 346.28 210.198C346.718 210.21 347.149 210.095 347.522 209.866C347.895 209.637 348.193 209.304 348.38 208.908C348.459 208.705 348.495 208.488 348.487 208.27C348.479 208.053 348.426 207.839 348.332 207.642C348.239 207.446 348.106 207.27 347.942 207.127C347.778 206.983 347.587 206.875 347.38 206.808C347.868 207.129 348.442 207.294 349.026 207.282C349.61 207.269 350.176 207.08 350.65 206.738C351.108 206.375 351.423 205.861 351.539 205.288C351.654 204.715 351.562 204.12 351.28 203.608C350.964 203.129 350.47 202.794 349.908 202.678C349.346 202.562 348.76 202.673 348.28 202.988C348.969 202.646 349.553 202.124 349.97 201.478C350.166 201.148 350.226 200.756 350.139 200.383C350.051 200.01 349.822 199.685 349.5 199.478C348.67 199.098 347.78 199.868 346.87 200.038C345.39 200.308 344.18 198.978 342.99 198.038C341.88 197.252 340.618 196.708 339.285 196.441C337.951 196.174 336.577 196.19 335.25 196.488C332.593 197.111 330.143 198.413 328.14 200.268C326.8 201.438 325.51 203.138 326.05 204.828" fill="#263238"/>
<path d="M329.23 215.618C329.23 216.048 328.82 216.418 328.32 216.618C328.109 216.731 327.87 216.782 327.63 216.764C327.391 216.747 327.162 216.661 326.97 216.518C326.68 216.208 326.97 215.518 327.75 215.168C328.53 214.818 329.23 215.188 329.23 215.618Z" fill="#263238"/>
<path d="M337.11 211.818C337.02 212.248 336.49 212.518 335.96 212.768C335.43 213.018 334.86 213.218 334.48 212.988C334.385 212.896 334.324 212.775 334.306 212.645C334.288 212.514 334.314 212.382 334.38 212.268C334.565 211.853 334.901 211.524 335.32 211.348C335.732 211.148 336.205 211.116 336.64 211.258C336.97 211.388 337.13 211.608 337.11 211.818Z" fill="#263238"/>
<path d="M339.4 221.038C339.53 220.988 339.87 222.038 339.4 223.138C338.93 224.238 337.93 224.718 337.88 224.588C337.83 224.458 338.5 223.908 338.88 222.928C339.26 221.948 339.23 221.058 339.4 221.038Z" fill="#263238"/>
<path d="M350.94 205.058C350.94 205.058 350.87 205.118 350.71 205.198C350.469 205.299 350.211 205.353 349.95 205.358C349.454 205.374 348.963 205.249 348.535 204.997C348.107 204.746 347.758 204.379 347.53 203.938L347.8 203.998C346.897 204.823 345.723 205.29 344.5 205.308C343.752 205.336 343.007 205.202 342.316 204.913C341.625 204.625 341.006 204.19 340.5 203.638L340.94 203.458C340.941 203.798 340.855 204.132 340.69 204.43C340.526 204.727 340.288 204.978 340 205.158C339.43 205.542 338.742 205.708 338.06 205.628C336.991 205.4 336.031 204.815 335.34 203.968C334.65 203.218 334.1 202.438 333.46 201.828C332.897 201.224 332.165 200.802 331.36 200.618C330.653 200.502 329.927 200.593 329.27 200.878C328.292 201.315 327.417 201.952 326.7 202.748C326.437 203.051 326.149 203.332 325.84 203.588C326.036 203.228 326.275 202.892 326.55 202.588C327.238 201.711 328.117 201.003 329.12 200.518C329.844 200.182 330.649 200.061 331.44 200.168C332.337 200.348 333.157 200.798 333.79 201.458C334.48 202.108 335.05 202.888 335.71 203.598C336.326 204.348 337.173 204.873 338.12 205.088C339.22 205.248 340.49 204.468 340.44 203.458V202.728L340.92 203.288C341.384 203.791 341.949 204.19 342.578 204.459C343.207 204.728 343.886 204.861 344.57 204.848C345.693 204.848 346.781 204.452 347.64 203.728L347.82 203.568L347.91 203.778C348.102 204.179 348.4 204.521 348.772 204.766C349.144 205.011 349.575 205.15 350.02 205.168C350.329 205.158 350.637 205.121 350.94 205.058V205.058Z" fill="#455A64"/>
<path d="M370.98 248.878C370.93 248.878 370.98 248.278 370.75 247.238C370.483 245.758 369.93 244.345 369.12 243.078C367.94 241.196 366.213 239.719 364.17 238.848C361.656 237.809 358.852 237.71 356.27 238.568C354.957 239.026 353.729 239.703 352.64 240.568C351.613 241.384 350.674 242.306 349.84 243.318C348.441 245.066 347.171 246.915 346.04 248.848C345.04 250.478 344.22 251.848 343.61 252.698C343.32 253.148 343.07 253.478 342.9 253.698C342.73 253.918 342.64 254.038 342.62 254.028C342.858 253.525 343.132 253.041 343.44 252.578C344.02 251.578 344.79 250.248 345.72 248.648C346.82 246.669 348.074 244.78 349.47 242.998C351.179 240.75 353.478 239.02 356.11 237.998C358.808 237.095 361.743 237.212 364.36 238.328C366.116 239.111 367.643 240.329 368.796 241.867C369.95 243.405 370.691 245.213 370.95 247.118C371.007 247.532 371.03 247.95 371.02 248.368C371.04 248.539 371.026 248.712 370.98 248.878V248.878Z" fill="#263238"/>
<path d="M366.57 258.298C366.564 258.141 366.525 257.987 366.456 257.846C366.388 257.704 366.29 257.579 366.17 257.478C365.882 257.254 365.534 257.122 365.17 257.098C364.639 257.085 364.112 256.991 363.61 256.818C362.996 256.471 362.467 255.993 362.061 255.417C361.654 254.841 361.381 254.182 361.26 253.488C361.05 252.748 360.89 251.978 360.61 251.228C360.371 250.457 359.899 249.78 359.26 249.288C358.585 248.839 357.808 248.567 357 248.498C356.221 248.443 355.439 248.443 354.66 248.498C353.297 248.649 351.919 248.442 350.66 247.898C350.236 247.688 349.86 247.392 349.557 247.028C349.254 246.665 349.03 246.243 348.9 245.788C348.832 245.54 348.815 245.282 348.85 245.028C348.856 244.941 348.88 244.855 348.92 244.778C348.953 245.115 349.01 245.449 349.09 245.778C349.412 246.592 350.035 247.25 350.83 247.618C352.061 248.079 353.387 248.23 354.69 248.058C356.16 247.998 358.02 247.858 359.61 248.948C360.332 249.498 360.864 250.26 361.13 251.128C361.42 251.928 361.57 252.718 361.76 253.448C361.853 254.078 362.08 254.682 362.425 255.218C362.77 255.754 363.225 256.211 363.76 256.558C364.228 256.74 364.72 256.854 365.22 256.898C365.634 256.944 366.022 257.127 366.32 257.418C366.421 257.506 366.502 257.613 366.561 257.733C366.619 257.854 366.653 257.984 366.66 258.118C366.63 258.218 366.58 258.298 366.57 258.298Z" fill="#FAFAFA"/>
<path d="M360.6 266.848C360.54 266.848 360.52 266.518 360.17 266.048C359.651 265.429 358.952 264.989 358.17 264.788C357.17 264.458 355.89 264.498 354.48 264.038C353.719 263.802 353.053 263.329 352.58 262.688C352.11 262.018 351.85 261.238 351.42 260.608C350.54 259.328 348.96 258.898 347.62 258.608C346.355 258.401 345.144 257.942 344.06 257.258C343.338 256.74 342.833 255.975 342.64 255.108C342.559 254.791 342.587 254.456 342.72 254.158C342.77 254.158 342.72 254.498 342.84 255.058C343.074 255.825 343.565 256.489 344.23 256.938C345.296 257.545 346.466 257.949 347.68 258.128C348.424 258.273 349.151 258.495 349.85 258.788C350.634 259.109 351.31 259.647 351.8 260.338C352.28 261.058 352.53 261.828 352.95 262.408C353.354 262.973 353.929 263.393 354.59 263.608C355.88 264.058 357.19 264.068 358.24 264.458C359.088 264.703 359.826 265.232 360.33 265.958C360.457 266.162 360.542 266.39 360.58 266.628C360.61 266.768 360.62 266.848 360.6 266.848Z" fill="#FAFAFA"/>
<path d="M388.23 253.298C388.256 253.436 388.256 253.579 388.23 253.718C388.14 254.111 387.991 254.488 387.79 254.838C386.979 256.087 385.807 257.06 384.43 257.628C383.59 258.018 382.64 258.368 381.66 258.798C380.617 259.221 379.663 259.839 378.85 260.618C377.15 262.298 376.32 264.898 375.12 267.448C374.571 268.734 373.784 269.904 372.8 270.898C372.56 271.138 372.295 271.353 372.01 271.538C371.745 271.742 371.46 271.92 371.16 272.068C370.579 272.344 369.969 272.552 369.34 272.688C366.91 273.208 364.7 273.078 362.97 273.628C361.578 273.961 360.374 274.831 359.62 276.048C359.375 276.512 359.202 277.011 359.11 277.528C359.11 277.528 359.11 277.378 359.11 277.108C359.151 276.707 359.267 276.317 359.45 275.958C359.809 275.302 360.298 274.726 360.885 274.264C361.473 273.801 362.148 273.463 362.87 273.268C364.67 272.658 366.92 272.748 369.24 272.218C369.832 272.085 370.405 271.884 370.95 271.618C371.226 271.481 371.487 271.317 371.73 271.128C371.995 270.956 372.24 270.755 372.46 270.528C373.393 269.571 374.139 268.448 374.66 267.218C375.84 264.728 376.66 262.058 378.52 260.278C379.387 259.462 380.406 258.827 381.52 258.408C382.52 257.978 383.47 257.658 384.3 257.288C385.638 256.772 386.801 255.884 387.65 254.728C387.903 254.278 388.098 253.797 388.23 253.298Z" fill="#FAFAFA"/>
<path d="M398.28 265.668C398.205 266.234 397.985 266.772 397.64 267.228C396.711 268.479 395.445 269.439 393.99 269.998C392.21 270.818 389.89 271.188 387.69 272.378C386.542 272.982 385.594 273.906 384.96 275.038C384.328 276.305 383.767 277.607 383.28 278.938C382.164 281.552 380.231 283.735 377.77 285.158C375.77 286.314 373.49 286.899 371.18 286.848C369.639 286.821 368.117 286.509 366.69 285.928C366.303 285.771 365.925 285.59 365.56 285.388C365.31 285.238 365.19 285.158 365.2 285.138C365.21 285.118 365.75 285.378 366.76 285.738C368.184 286.232 369.682 286.482 371.19 286.478C373.42 286.475 375.608 285.878 377.53 284.748C379.879 283.358 381.725 281.257 382.8 278.748C383.292 277.381 383.866 276.045 384.52 274.748C385.209 273.545 386.23 272.566 387.46 271.928C389.78 270.708 392.1 270.388 393.85 269.628C395.262 269.115 396.514 268.239 397.48 267.088C397.793 266.642 398.061 266.167 398.28 265.668V265.668Z" fill="#FAFAFA"/>
<path d="M407.35 275.448C405.919 276.088 404.575 276.908 403.35 277.888C402.05 278.985 400.973 280.323 400.18 281.828C399.72 282.658 399.4 283.618 398.98 284.608C398.589 285.685 397.895 286.627 396.98 287.318C396.006 287.905 394.905 288.248 393.77 288.318C392.7 288.438 391.69 288.468 390.77 288.628C389.09 288.894 387.458 289.41 385.93 290.158C384.521 290.884 383.182 291.737 381.93 292.708C382.188 292.363 382.491 292.054 382.83 291.788C383.723 291.016 384.699 290.345 385.74 289.788C387.288 288.975 388.956 288.411 390.68 288.118C391.68 287.938 392.68 287.898 393.68 287.768C394.74 287.701 395.768 287.382 396.68 286.838C397.513 286.202 398.148 285.342 398.51 284.358C398.92 283.358 399.27 282.418 399.75 281.548C400.59 280.002 401.733 278.642 403.11 277.548C404.021 276.814 405.031 276.211 406.11 275.758C406.5 275.608 406.8 275.508 407.01 275.448C407.22 275.388 407.34 275.428 407.35 275.448Z" fill="#FAFAFA"/>
<path d="M367.23 256.938C368.083 256.625 368.861 256.134 369.51 255.498C370.19 254.787 370.733 253.956 371.11 253.048C371.562 251.916 371.92 250.749 372.18 249.558C372.457 248.338 372.856 247.148 373.37 246.008C373.817 245.068 374.458 244.233 375.25 243.558C375.779 243.088 376.408 242.746 377.09 242.558C377.335 242.478 377.595 242.458 377.85 242.498C376.981 242.76 376.176 243.203 375.49 243.798C374.781 244.48 374.207 245.291 373.8 246.188C373.323 247.308 372.952 248.469 372.69 249.658C372.414 250.875 372.032 252.066 371.55 253.218C371.128 254.167 370.523 255.023 369.77 255.738C369.258 256.221 368.647 256.586 367.98 256.808C367.747 256.919 367.487 256.964 367.23 256.938V256.938Z" fill="#FAFAFA"/>
<path d="M364.34 238.938C364.544 237.874 365.039 236.887 365.77 236.087C366.5 235.288 367.439 234.706 368.48 234.408C368.54 234.548 367.28 235.178 366.15 236.408C365.02 237.638 364.48 239.028 364.34 238.938Z" fill="#FAFAFA"/>
<path d="M357.32 228.698C356.87 229.528 356.344 230.314 355.75 231.048C355.166 231.893 354.538 232.707 353.87 233.488C353.444 233.962 352.927 234.347 352.35 234.618C351.714 234.866 351.032 234.978 350.35 234.948C349.714 234.902 349.076 234.902 348.44 234.948C347.875 235.03 347.33 235.213 346.83 235.488C345.972 235.966 345.297 236.715 344.91 237.618C344.578 238.477 344.439 239.399 344.5 240.318C344.372 240.088 344.304 239.83 344.3 239.568C344.221 238.86 344.314 238.143 344.57 237.478C344.938 236.47 345.645 235.621 346.57 235.078C347.115 234.751 347.721 234.537 348.35 234.448C349.014 234.38 349.683 234.363 350.35 234.398C350.941 234.451 351.536 234.364 352.087 234.143C352.638 233.923 353.129 233.575 353.52 233.128C354.29 232.318 354.9 231.458 355.46 230.788C356.012 230.034 356.635 229.334 357.32 228.698V228.698Z" fill="#FAFAFA"/>
<g opacity="0.2">
<path opacity="0.2" d="M370.6 252.108L363.01 282.858L356.37 273.608L370.6 252.108Z" fill="black"/>
</g>
<path d="M403.52 353.338C403.38 353.338 403.26 348.228 403.26 341.928C403.26 335.628 403.38 330.508 403.52 330.508C403.66 330.508 403.78 335.618 403.78 341.928C403.78 348.238 403.67 353.338 403.52 353.338Z" fill="#455A64"/>
<path d="M65.4201 296.668C66.9292 296.784 68.3992 297.204 69.7415 297.904C71.0837 298.603 72.2705 299.567 73.2301 300.738C75.1347 303.09 76.4756 305.847 77.1501 308.798C78.6101 314.448 77.6301 321.088 75.9701 326.678C69.8901 324.448 66.1901 317.908 64.5101 314.478C61.8701 309.048 60.3901 297.638 65.4401 296.668" fill="#407BFF"/>
<path d="M84.67 333.588C83.7659 332.159 83.2554 330.517 83.1904 328.827C83.1255 327.138 83.5083 325.461 84.3 323.968C85.1188 322.491 86.2229 321.193 87.5483 320.147C88.8737 319.102 90.3937 318.33 92.02 317.878C92.7436 317.591 93.5206 317.466 94.2975 317.509C95.0744 317.552 95.8327 317.763 96.52 318.128C97.1 318.574 97.5498 319.167 97.8224 319.846C98.095 320.525 98.1805 321.264 98.07 321.988C97.8306 323.433 97.213 324.789 96.28 325.918C93.28 329.918 89.65 333.218 84.67 333.588" fill="#407BFF"/>
<path d="M85.23 352.418C85.1071 352.033 85.0168 351.638 84.96 351.238C84.81 350.408 84.61 349.328 84.36 348.028C83.5961 344.484 83.4037 340.842 83.79 337.238C84.2342 333.598 85.6466 330.145 87.88 327.238C88.5619 326.375 89.3441 325.596 90.21 324.918C90.4412 324.731 90.6851 324.561 90.94 324.408C91.0242 324.345 91.1147 324.291 91.21 324.248C90.0775 325.203 89.0394 326.264 88.11 327.418C86.0001 330.316 84.6584 333.701 84.21 337.258C83.8299 340.82 83.9816 344.42 84.66 347.938C84.87 349.298 85.03 350.408 85.13 351.178C85.2022 351.587 85.2357 352.002 85.23 352.418V352.418Z" fill="#263238"/>
<path d="M67.3201 305.258C67.4141 305.403 67.4944 305.557 67.5601 305.718L68.1701 307.088C68.7001 308.268 69.4501 309.998 70.3501 312.138C72.1501 316.418 74.5501 322.368 77.0601 328.998C79.5701 335.628 81.7001 341.688 83.1801 346.098C83.9201 348.298 84.5101 350.098 84.8901 351.318C85.0701 351.908 85.2201 352.378 85.3301 352.748C85.3894 352.913 85.4329 353.084 85.4601 353.258C85.3765 353.104 85.3063 352.943 85.2501 352.778L84.7401 351.378C84.2901 350.098 83.6601 348.378 82.9001 346.188C81.3401 341.818 79.1701 335.778 76.6601 329.188C74.1501 322.598 71.8001 316.598 70.0701 312.288C69.2201 310.178 68.5301 308.438 68.0701 307.188L67.5301 305.798C67.4334 305.629 67.3626 305.447 67.3201 305.258Z" fill="#263238"/>
<path d="M78.04 339.938C76.2398 336.862 73.7322 334.26 70.7253 332.347C67.7184 330.434 64.2988 329.265 60.75 328.938C58.94 328.798 56.75 329.078 55.96 330.688C55.17 332.298 56.2 334.238 57.41 335.578C60.0013 338.332 63.3492 340.258 67.0325 341.114C70.7158 341.969 74.5699 341.717 78.11 340.388" fill="#407BFF"/>
<path d="M63.45 333.788C63.8276 333.781 64.2052 333.801 64.58 333.848C65.0199 333.87 65.4577 333.923 65.89 334.008C66.4 334.108 66.99 334.168 67.62 334.348C68.2971 334.507 68.9648 334.704 69.62 334.938C70.3974 335.188 71.1588 335.485 71.9 335.828C75.3396 337.369 78.3478 339.731 80.66 342.708C81.1573 343.35 81.6212 344.018 82.05 344.708C82.4142 345.314 82.748 345.938 83.05 346.578C83.36 347.158 83.55 347.718 83.75 348.188C83.9255 348.597 84.0725 349.018 84.19 349.448C84.3228 349.8 84.4167 350.165 84.47 350.538C84.38 350.538 83.96 349.008 82.78 346.718C82.4609 346.092 82.107 345.484 81.72 344.898C81.2907 344.206 80.8233 343.538 80.32 342.898C79.1627 341.462 77.8515 340.158 76.41 339.008C74.9474 337.887 73.3723 336.922 71.71 336.128C70.9813 335.782 70.2334 335.478 69.47 335.218C68.8145 334.974 68.147 334.763 67.47 334.588C65.05 333.988 63.44 333.938 63.45 333.788Z" fill="#263238"/>
</svg>
