<svg width="388" height="370" viewBox="0 0 388 370" fill="none" xmlns="http://www.w3.org/2000/svg">
<path opacity="0.9" d="M212.61 87.4017C157.96 144.262 33.46 92.1318 30.07 203.232C26.81 309.692 165.64 304.362 234.77 281.642C314.92 255.292 378.47 182.082 353.36 95.0417C343.66 61.4217 321.91 28.7717 284.77 23.1217C225.42 14.0817 241.57 57.2517 212.61 87.4017Z" fill="#CACEF3" fill-opacity="0.4"/>
<path d="M193.89 369.402C300.972 369.402 387.78 364.334 387.78 358.082C387.78 351.83 300.972 346.762 193.89 346.762C86.8075 346.762 0 351.83 0 358.082C0 364.334 86.8075 369.402 193.89 369.402Z" fill="#D2CDF1" fill-opacity="0.33"/>
<path d="M272.25 77.8418C268.43 75.4518 257.46 77.8418 259.25 89.8418C261.04 101.842 246.94 98.7718 250.02 112.732C253.1 126.692 278.09 147.432 293.48 133.352C308.87 119.272 295.9 113.062 296.19 96.3518C296.39 86.4218 291.89 68.6418 272.25 77.8418Z" fill="#263238"/>
<path d="M294.89 132.752C294.819 132.751 294.75 132.723 294.7 132.672C294.676 132.648 294.657 132.621 294.643 132.59C294.63 132.559 294.624 132.525 294.624 132.492C294.624 132.458 294.63 132.425 294.643 132.394C294.657 132.363 294.676 132.335 294.7 132.312C304.18 122.892 301.99 117.152 299.22 109.892C297.68 105.892 295.95 101.332 295.8 95.4218C295.65 89.0418 293.32 80.3318 287.25 76.7418C282.95 74.2018 277.43 74.6418 270.85 78.0518C270.79 78.0804 270.721 78.0849 270.658 78.0645C270.595 78.044 270.542 78.0001 270.51 77.9418C270.493 77.9119 270.482 77.8788 270.478 77.8445C270.475 77.8103 270.478 77.7756 270.489 77.7428C270.499 77.7099 270.516 77.6795 270.539 77.6535C270.561 77.6276 270.589 77.6065 270.62 77.5918C277.37 74.0918 283.05 73.6618 287.52 76.3018C293.76 80.0018 296.16 88.9018 296.32 95.4018C296.46 101.232 298.18 105.732 299.7 109.702C302.53 117.142 304.78 123.022 295.06 132.702C295.011 132.737 294.951 132.755 294.89 132.752V132.752Z" fill="#263238"/>
<path d="M297.11 131.382C297.11 131.382 297.27 131.612 297.38 131.762L297.78 132.302C298.073 132.675 298.383 133.045 298.71 133.412C299.38 134.167 300.095 134.882 300.85 135.552C302.399 136.97 304.072 138.245 305.85 139.362C307.655 140.511 309.533 141.543 311.47 142.452C312.47 142.942 313.47 143.332 314.47 143.772C314.66 143.862 314.47 143.772 314.34 143.852C314.21 143.932 314.1 144.002 314.21 143.942C314.7 143.524 315.09 143.001 315.35 142.412C315.792 141.53 316.17 140.618 316.48 139.682C317.151 137.593 317.696 135.466 318.11 133.312C318.56 131.112 318.91 128.862 319.22 126.592C319.53 124.322 319.81 122.022 320.06 119.772H324.13C324.463 124.554 324.427 129.355 324.02 134.132C323.833 136.607 323.456 139.065 322.89 141.482C322.587 142.795 322.172 144.079 321.65 145.322C321.018 146.904 320.041 148.325 318.79 149.482C317.868 150.289 316.745 150.831 315.54 151.052C314.346 151.252 313.121 151.145 311.98 150.742C310.81 150.322 309.62 149.972 308.46 149.492C306.105 148.572 303.825 147.472 301.64 146.202C299.421 144.883 297.323 143.37 295.37 141.682C294.38 140.803 293.445 139.865 292.57 138.872C292.12 138.372 291.68 137.872 291.26 137.292L290.64 136.412C290.42 136.082 290.27 135.852 289.96 135.312L297.11 131.382Z" fill="#FFC3BD"/>
<path d="M295.74 127.682C305.09 133.682 304.33 137.322 304.33 137.322L298.45 145.842C298.45 145.842 283.45 139.842 282.52 135.132C281.54 130.222 291.2 124.782 295.74 127.682Z" fill="#263238"/>
<path opacity="0.1" d="M295.74 127.682C305.09 133.682 304.33 137.322 304.33 137.322L298.45 145.842C298.45 145.842 283.45 139.842 282.52 135.132C281.54 130.222 291.2 124.782 295.74 127.682Z" fill="white"/>
<path d="M304.89 136.482C305.064 136.605 305.182 136.791 305.22 137.001C305.257 137.21 305.211 137.426 305.09 137.602L299.09 146.212C299.031 146.3 298.955 146.375 298.866 146.434C298.777 146.492 298.677 146.531 298.573 146.55C298.468 146.568 298.361 146.566 298.257 146.542C298.154 146.518 298.056 146.474 297.97 146.412C297.884 146.351 297.81 146.274 297.754 146.184C297.698 146.095 297.659 145.995 297.642 145.891C297.624 145.787 297.627 145.681 297.651 145.578C297.675 145.475 297.719 145.378 297.78 145.292L303.78 136.682C303.903 136.511 304.087 136.394 304.295 136.357C304.502 136.319 304.715 136.364 304.89 136.482V136.482Z" fill="#407BFF"/>
<path d="M320.72 121.732L316.08 115.532L324.98 113.242C324.98 113.242 326.79 118.762 323.83 122.812L320.72 121.732Z" fill="#FFC3BD"/>
<path d="M316.33 107.912L323.74 106.662L324.98 113.242L316.08 115.532L316.33 107.912Z" fill="#FFC3BD"/>
<path d="M240.93 349.442L249.41 350.262L255.47 330.322L246.99 329.502L240.93 349.442Z" fill="#FFC3BD"/>
<path d="M186.98 319.972L193.27 325.872L206.85 310.952L200.56 305.052L186.98 319.972Z" fill="#FFC3BD"/>
<path d="M196.18 323.042L191.45 314.532C191.373 314.383 191.243 314.268 191.086 314.209C190.929 314.15 190.756 314.151 190.6 314.212L183.32 316.982C183.134 317.057 182.967 317.172 182.83 317.318C182.693 317.464 182.589 317.638 182.526 317.828C182.462 318.018 182.44 318.219 182.462 318.419C182.483 318.618 182.547 318.81 182.65 318.982C184.35 321.922 185.32 323.262 187.39 326.982C188.67 329.282 191.16 334.572 192.93 337.752C194.7 340.932 197.93 339.362 197.49 337.872C195.49 331.222 195.85 327.522 196.42 324.592C196.523 324.063 196.438 323.515 196.18 323.042V323.042Z" fill="#263238"/>
<path d="M250.42 347.672H240.13C239.947 347.675 239.769 347.737 239.623 347.849C239.477 347.96 239.371 348.115 239.32 348.292L237.08 356.432C237.027 356.624 237.02 356.827 237.059 357.023C237.098 357.218 237.182 357.403 237.304 357.561C237.426 357.719 237.583 357.846 237.763 357.933C237.943 358.02 238.14 358.064 238.34 358.062C241.96 358.062 243.68 358.062 248.2 358.062H262.03C265.79 358.062 266.57 354.262 265.03 353.922C258.03 352.382 254.03 350.252 251.88 348.222C251.484 347.854 250.96 347.657 250.42 347.672V347.672Z" fill="#263238"/>
<path opacity="0.2" d="M255.47 330.332L252.35 340.602H243.61L246.99 329.512L255.47 330.332Z" fill="black"/>
<path opacity="0.2" d="M200.56 305.052L206.85 310.962L199.85 318.652L193.56 312.742L200.56 305.052Z" fill="black"/>
<path d="M295.74 127.682C295.74 127.682 299.14 129.992 277.59 176.812L243.66 167.422C248.05 153.762 250.43 145.252 251.66 115.082C256.684 115.415 261.677 116.114 266.6 117.172C271.828 118.228 276.975 119.655 282 121.442C286.685 123.283 291.271 125.365 295.74 127.682V127.682Z" fill="#263238"/>
<path opacity="0.1" d="M295.74 127.682C295.74 127.682 299.14 129.992 277.59 176.812L243.66 167.422C248.05 153.762 250.43 145.252 251.66 115.082C256.684 115.415 261.677 116.114 266.6 117.172C271.828 118.228 276.975 119.655 282 121.442C286.685 123.283 291.271 125.365 295.74 127.682V127.682Z" fill="white"/>
<path d="M272.94 100.242C272.54 105.472 270.99 114.822 266.61 117.172C266.61 117.172 264.06 125.842 275.12 129.032C284.49 131.722 282.01 121.442 282.01 121.442C276.85 118.592 280.01 113.542 281.01 107.882L272.94 100.242Z" fill="#FFC3BD"/>
<path opacity="0.2" d="M272.89 100.252C272.57 104.442 271.52 111.322 268.83 115.062C271.95 115.372 276.83 114.422 278.27 112.062C278.982 110.407 279.561 108.699 280 106.952L272.89 100.252Z" fill="black"/>
<path d="M286.66 92.6718C286.66 101.272 286.81 104.922 282.74 109.572C276.61 116.572 266.05 114.662 263.5 106.222C261.21 98.6318 261.63 85.8418 269.83 81.9318C271.632 81.0616 273.626 80.6668 275.623 80.7848C277.621 80.9029 279.555 81.5299 281.241 82.6063C282.928 83.6826 284.311 85.1725 285.26 86.9343C286.208 88.6961 286.69 90.6712 286.66 92.6718V92.6718Z" fill="#FFC3BD"/>
<path d="M268.89 87.9018C273.72 94.6518 289.97 104.032 291.06 94.9918C292.15 85.9518 283.85 76.9918 275.63 77.8818C267.41 78.7718 264.76 82.1618 268.89 87.9018Z" fill="#263238"/>
<path d="M290.22 100.702C289.856 101.442 289.35 102.102 288.731 102.646C288.111 103.19 287.391 103.607 286.61 103.872C284.52 104.562 283.37 102.722 283.86 100.692C284.31 98.8618 285.93 96.3018 288.08 96.4918C288.547 96.5399 288.995 96.7045 289.382 96.9703C289.77 97.2362 290.084 97.5949 290.297 98.0137C290.51 98.4325 290.615 98.898 290.601 99.3676C290.588 99.8372 290.457 100.296 290.22 100.702Z" fill="#FFC3BD"/>
<path d="M277.59 176.842C277.59 176.842 289.67 225.772 281.75 262.782C276.44 287.572 257.3 337.652 257.3 337.652L242.3 337.272C242.3 337.272 256.79 284.722 259.78 264.052C264.91 228.692 252.7 169.962 252.7 169.962L277.59 176.842Z" fill="#407BFF"/>
<path opacity="0.2" d="M264.12 183.842L256.64 195.642C258.879 209.634 260.299 223.744 260.89 237.902C271.44 219.072 266.46 193.842 264.12 183.842Z" fill="black"/>
<path d="M259.98 338.402L240.93 337.932L242.21 331.152L261.37 332.592L259.98 338.402Z" fill="#263238"/>
<path d="M270.15 174.842C270.15 174.842 263.15 228.342 248.08 258.742C235.89 283.292 203.36 318.242 203.36 318.242L195.04 309.672C195.04 309.672 217.04 271.672 226.04 255.382C248.26 215.382 228.57 179.532 243.63 167.382L270.15 174.842Z" fill="#407BFF"/>
<path d="M204.2 319.412L193.47 308.942L197.03 304.102L208.73 316.192L204.2 319.412Z" fill="#263238"/>
<path d="M243.7 165.282L241.33 167.902C241.15 168.102 241.33 168.422 241.75 168.532L277.34 178.382C277.64 178.462 277.94 178.382 278.01 178.202L279.16 175.202C279.24 175.002 279.02 174.752 278.69 174.652L244.33 165.142C244.222 165.108 244.107 165.103 243.996 165.128C243.886 165.153 243.784 165.206 243.7 165.282V165.282Z" fill="#407BFF"/>
<path opacity="0.5" d="M243.7 165.282L241.33 167.902C241.15 168.102 241.33 168.422 241.75 168.532L277.34 178.382C277.64 178.462 277.94 178.382 278.01 178.202L279.16 175.202C279.24 175.002 279.02 174.752 278.69 174.652L244.33 165.142C244.222 165.108 244.107 165.103 243.996 165.128C243.886 165.153 243.784 165.206 243.7 165.282V165.282Z" fill="white"/>
<path d="M247.25 170.402L246.33 170.152C246.15 170.102 246.04 169.962 246.08 169.852L247.6 166.032C247.65 165.912 247.84 165.862 248.02 165.912L248.94 166.172C249.12 166.172 249.24 166.352 249.19 166.472L247.67 170.292C247.622 170.353 247.554 170.397 247.478 170.417C247.403 170.437 247.322 170.432 247.25 170.402V170.402Z" fill="#407BFF"/>
<path d="M274.66 177.992L273.74 177.742C273.56 177.692 273.44 177.552 273.49 177.442L275.01 173.612C275.059 173.55 275.126 173.506 275.202 173.486C275.277 173.467 275.358 173.472 275.43 173.502L276.35 173.762C276.53 173.812 276.64 173.942 276.6 174.052L275.08 177.842C275.03 177.992 274.89 178.042 274.66 177.992Z" fill="#407BFF"/>
<path d="M260.96 174.202L260.04 173.942C259.85 173.942 259.74 173.762 259.78 173.652L261.31 169.822C261.31 169.712 261.54 169.662 261.72 169.712L262.64 169.962C262.83 169.962 262.94 170.152 262.9 170.262L261.37 174.092C261.33 174.202 261.14 174.252 260.96 174.202Z" fill="#407BFF"/>
<path d="M273.8 95.8418C273.8 96.5418 273.5 97.1318 273.05 97.1518C272.6 97.1718 272.19 96.6418 272.14 95.9418C272.09 95.2418 272.44 94.6518 272.9 94.6218C273.36 94.5918 273.76 95.1318 273.8 95.8418Z" fill="#263238"/>
<path d="M265.89 96.2918C265.89 96.9918 265.59 97.5818 265.13 97.6118C264.67 97.6418 264.28 97.0918 264.23 96.3918C264.18 95.6918 264.53 95.1018 264.99 95.0818C265.45 95.0618 265.89 95.6018 265.89 96.2918Z" fill="#263238"/>
<path d="M265.21 95.1018L263.51 94.7218C263.51 94.7218 264.44 95.9818 265.21 95.1018Z" fill="#263238"/>
<path d="M268.06 97.3718C267.531 98.9981 266.784 100.545 265.84 101.972C266.21 102.205 266.626 102.354 267.06 102.409C267.493 102.465 267.934 102.425 268.35 102.292L268.06 97.3718Z" fill="#ED847E"/>
<path d="M272.24 104.672C271.825 104.779 271.399 104.843 270.97 104.862C270.947 104.865 270.924 104.863 270.903 104.856C270.881 104.849 270.861 104.838 270.844 104.823C270.827 104.807 270.813 104.789 270.804 104.768C270.795 104.747 270.79 104.725 270.79 104.702C270.789 104.679 270.792 104.657 270.799 104.636C270.806 104.615 270.818 104.595 270.833 104.579C270.848 104.562 270.866 104.548 270.886 104.538C270.906 104.529 270.928 104.523 270.95 104.522C271.824 104.486 272.678 104.247 273.444 103.824C274.21 103.4 274.866 102.804 275.36 102.082C275.386 102.05 275.422 102.029 275.462 102.022C275.502 102.014 275.543 102.022 275.578 102.042C275.613 102.063 275.64 102.095 275.653 102.134C275.666 102.172 275.665 102.214 275.65 102.252C274.862 103.463 273.643 104.328 272.24 104.672Z" fill="#263238"/>
<path d="M276.41 90.7318C276.353 90.7465 276.294 90.7459 276.238 90.7301C276.182 90.7142 276.131 90.6838 276.09 90.6418C275.726 90.258 275.276 89.9669 274.777 89.7929C274.277 89.619 273.743 89.5671 273.22 89.6418C273.132 89.6575 273.04 89.6394 272.965 89.5913C272.889 89.5432 272.834 89.4685 272.81 89.3818C272.792 89.2931 272.809 89.2009 272.857 89.1244C272.906 89.048 272.982 88.9933 273.07 88.9718C273.704 88.8702 274.352 88.9226 274.962 89.1245C275.571 89.3264 276.122 89.6719 276.57 90.1318C276.632 90.1984 276.666 90.2859 276.666 90.3768C276.666 90.4677 276.632 90.5552 276.57 90.6218C276.526 90.6705 276.471 90.7082 276.41 90.7318V90.7318Z" fill="#263238"/>
<path d="M262.47 91.7418C262.417 91.7735 262.357 91.7903 262.295 91.7903C262.233 91.7903 262.173 91.7735 262.12 91.7418C262.049 91.6881 262.002 91.6089 261.989 91.521C261.976 91.4332 261.998 91.3437 262.05 91.2718C262.419 90.747 262.908 90.3186 263.478 90.0227C264.047 89.7269 264.679 89.5722 265.32 89.5718C265.365 89.5743 265.408 89.5857 265.449 89.6052C265.489 89.6247 265.525 89.6519 265.555 89.6853C265.584 89.7188 265.607 89.7578 265.622 89.8001C265.637 89.8424 265.643 89.8871 265.64 89.9318C265.637 89.9765 265.626 90.0202 265.607 90.0605C265.587 90.1008 265.56 90.1368 265.526 90.1665C265.493 90.1962 265.454 90.2191 265.412 90.2337C265.369 90.2483 265.325 90.2545 265.28 90.2518C264.753 90.2602 264.235 90.3932 263.77 90.64C263.304 90.8868 262.903 91.2404 262.6 91.6718C262.563 91.7046 262.518 91.7286 262.47 91.7418V91.7418Z" fill="#263238"/>
<path d="M252.46 127.972C251.59 129.292 250.8 130.352 249.91 131.472C249.02 132.592 248.15 133.642 247.23 134.682C245.385 136.772 243.421 138.755 241.35 140.622C239.29 142.526 237.105 144.29 234.81 145.902C233.68 146.742 232.47 147.472 231.29 148.232L229.44 149.292L228.52 149.812C228.18 149.992 227.74 150.232 227.32 150.402C225.467 151.24 223.407 151.511 221.4 151.182C219.505 150.824 217.735 149.984 216.26 148.742C215.015 147.703 213.918 146.498 213 145.162C212.153 143.948 211.401 142.671 210.75 141.342C208.378 136.305 206.741 130.954 205.89 125.452L209.89 124.532C210.72 126.912 211.65 129.382 212.7 131.692C213.683 134.001 214.844 136.231 216.17 138.362C217.276 140.29 218.743 141.988 220.49 143.362C221.071 143.807 221.762 144.087 222.49 144.172C223.126 144.199 223.757 144.046 224.31 143.732C224.503 143.633 224.69 143.523 224.87 143.402L225.65 142.902L227.2 141.902C228.2 141.162 229.2 140.472 230.2 139.682C232.169 138.139 234.059 136.497 235.86 134.762C237.69 133.032 239.4 131.182 241.05 129.282C241.88 128.332 242.69 127.372 243.47 126.392C244.25 125.412 245.03 124.392 245.66 123.492L252.46 127.972Z" fill="#FFC3BD"/>
<path d="M210.66 128.222L211.54 118.892L203.15 122.322C203.15 122.322 204.15 127.012 207.35 128.692L210.66 128.222Z" fill="#FFC3BD"/>
<path d="M208.86 113.852L202.37 112.442L203.15 122.322L211.54 118.892L208.86 113.852Z" fill="#FFC3BD"/>
<path d="M251.67 115.082C247.3 115.082 236.78 131.762 236.78 131.762L244.21 139.462C244.21 139.462 258.21 130.022 258.76 124.462C259.24 119.682 257.23 115.132 251.67 115.082Z" fill="#263238"/>
<path opacity="0.1" d="M251.67 115.082C247.3 115.082 236.78 131.762 236.78 131.762L244.21 139.462C244.21 139.462 258.21 130.022 258.76 124.462C259.24 119.682 257.23 115.132 251.67 115.082Z" fill="white"/>
<path d="M244.89 139.842C244.74 139.991 244.537 140.075 244.325 140.075C244.113 140.075 243.91 139.991 243.76 139.842L236.25 132.482C236.1 132.332 236.016 132.129 236.016 131.917C236.016 131.705 236.1 131.502 236.25 131.352V131.352C236.402 131.202 236.607 131.117 236.82 131.117C237.034 131.117 237.238 131.202 237.39 131.352L244.89 138.702C245.04 138.853 245.125 139.058 245.125 139.272C245.125 139.485 245.04 139.69 244.89 139.842Z" fill="#407BFF"/>
<path d="M197.89 327.622C198.164 327.615 198.428 327.516 198.64 327.342C198.74 327.277 198.821 327.186 198.872 327.078C198.923 326.97 198.943 326.85 198.93 326.732C198.84 325.652 196.1 324.182 195.78 324.012C195.753 323.995 195.722 323.986 195.69 323.986C195.658 323.986 195.627 323.995 195.6 324.012C195.572 324.032 195.551 324.06 195.54 324.092C195.53 324.124 195.529 324.159 195.54 324.192C195.85 325.292 196.54 327.192 197.54 327.542C197.651 327.589 197.769 327.617 197.89 327.622V327.622ZM195.89 324.512C196.89 325.052 198.45 326.092 198.5 326.762C198.507 326.822 198.495 326.883 198.467 326.937C198.438 326.99 198.394 327.034 198.34 327.062C198.239 327.157 198.114 327.224 197.979 327.255C197.844 327.287 197.703 327.282 197.57 327.242C197.03 327.042 196.41 326.032 195.89 324.512Z" fill="#407BFF"/>
<path d="M198.26 324.942C198.693 324.975 199.124 324.866 199.49 324.632C199.61 324.532 199.692 324.394 199.721 324.241C199.751 324.087 199.725 323.928 199.65 323.792C199.597 323.648 199.512 323.518 199.401 323.412C199.29 323.306 199.156 323.228 199.01 323.182C197.84 322.772 195.66 323.962 195.57 324.012C195.544 324.028 195.522 324.05 195.507 324.076C195.491 324.102 195.482 324.131 195.48 324.162C195.48 324.191 195.487 324.221 195.501 324.247C195.515 324.273 195.535 324.295 195.56 324.312C196.401 324.721 197.324 324.937 198.26 324.942V324.942ZM198.43 323.432C198.59 323.431 198.749 323.458 198.9 323.512C198.999 323.541 199.09 323.593 199.165 323.665C199.239 323.736 199.296 323.824 199.33 323.922C199.44 324.182 199.33 324.302 199.27 324.372C198.76 324.802 196.96 324.562 196.03 324.162C196.775 323.764 197.59 323.516 198.43 323.432V323.432Z" fill="#407BFF"/>
<path d="M254.98 349.332C255.679 349.384 256.377 349.22 256.98 348.862C257.135 348.745 257.261 348.594 257.348 348.421C257.435 348.247 257.48 348.056 257.48 347.862C257.493 347.761 257.477 347.659 257.435 347.567C257.392 347.475 257.325 347.397 257.24 347.342C256.31 346.702 252.57 348.422 252.15 348.622C252.116 348.637 252.088 348.662 252.07 348.695C252.052 348.727 252.045 348.765 252.05 348.802C252.054 348.836 252.068 348.868 252.092 348.893C252.115 348.918 252.146 348.935 252.18 348.942C253.097 349.17 254.036 349.301 254.98 349.332ZM256.62 347.562C256.766 347.552 256.911 347.583 257.04 347.652C257.09 347.652 257.14 347.742 257.13 347.882C257.128 348.019 257.094 348.155 257.029 348.276C256.965 348.398 256.873 348.503 256.76 348.582C255.92 349.222 253.87 348.952 252.76 348.752C253.976 348.154 255.279 347.753 256.62 347.562V347.562Z" fill="#407BFF"/>
<path d="M252.21 348.982H252.27C253.4 348.522 255.75 346.632 255.62 345.692C255.62 345.492 255.46 345.242 254.95 345.182C252.95 344.952 252.08 348.622 252.04 348.782C252.034 348.813 252.037 348.845 252.047 348.875C252.058 348.905 252.076 348.931 252.1 348.952C252.133 348.972 252.171 348.982 252.21 348.982V348.982ZM254.77 345.502H254.89C255.24 345.502 255.26 345.672 255.27 345.722C255.35 346.322 253.67 347.852 252.45 348.492C252.72 347.642 253.48 345.502 254.77 345.502V345.502Z" fill="#407BFF"/>
<path d="M273.1 94.6417L271.4 94.2617C271.4 94.2617 272.33 95.5217 273.1 94.6417Z" fill="#263238"/>
<path d="M96.4029 353.534L209.503 343.659C217.183 342.988 222.866 336.218 222.195 328.538L198.639 58.7442C197.968 51.0635 191.198 45.3807 183.518 46.0513L70.4179 55.9264C62.7372 56.597 57.0545 63.3671 57.7251 71.0477L81.2815 340.841C81.9521 348.522 88.7222 354.205 96.4029 353.534Z" fill="#407BFF"/>
<path d="M66.1901 150.732C67.2378 150.633 68.2043 150.125 68.88 149.318C69.5558 148.511 69.8863 147.471 69.8001 146.422L66.6901 110.842C66.5935 109.794 66.088 108.827 65.2831 108.149C64.4783 107.472 63.4389 107.138 62.3901 107.222C61.3406 107.318 60.3716 107.825 59.6938 108.632C59.0159 109.439 58.684 110.481 58.7701 111.532L61.8901 147.112C61.9867 148.159 62.4922 149.127 63.2971 149.804C64.1019 150.482 65.1413 150.815 66.1901 150.732V150.732Z" fill="#407BFF"/>
<path d="M204.326 122.59L205.711 122.469C207.334 122.328 208.535 120.897 208.393 119.274L206.495 97.5365C206.353 95.9135 204.923 94.7126 203.3 94.8543L201.915 94.9752C200.292 95.1169 199.091 96.5476 199.233 98.1706L201.131 119.908C201.272 121.531 202.703 122.732 204.326 122.59Z" fill="#263238"/>
<path d="M205.95 159.184L207.34 159.059C208.969 158.912 210.171 157.472 210.024 155.843L208.06 134.023C207.914 132.394 206.474 131.192 204.845 131.339L203.455 131.464C201.826 131.61 200.624 133.05 200.77 134.679L202.734 156.499C202.881 158.128 204.32 159.33 205.95 159.184Z" fill="#263238"/>
<path d="M98.7793 353.32L211.879 343.445C219.56 342.775 225.242 336.005 224.572 328.324L201.015 58.5303C200.345 50.8496 193.575 45.1669 185.894 45.8375L72.7944 55.7125C65.1137 56.3832 59.4309 63.1532 60.1015 70.8339L83.658 340.627C84.3286 348.308 91.0987 353.991 98.7793 353.32Z" fill="#263238"/>
<path opacity="0.4" d="M87.64 336.522L219.89 324.972C220.581 324.908 221.219 324.574 221.665 324.042C222.111 323.51 222.328 322.823 222.27 322.132L199.89 65.5317C199.826 64.8424 199.494 64.2059 198.964 63.7604C198.434 63.3148 197.75 63.0961 197.06 63.1517L64.7601 74.7117C64.4186 74.7419 64.0864 74.839 63.7826 74.9976C63.4787 75.1561 63.209 75.373 62.9889 75.6358C62.7688 75.8986 62.6027 76.2022 62.4999 76.5292C62.3972 76.8562 62.3598 77.2002 62.39 77.5417L84.81 334.152C84.8389 334.494 84.9352 334.826 85.0934 335.131C85.2515 335.435 85.4684 335.706 85.7315 335.926C85.9946 336.146 86.2987 336.312 86.6262 336.415C86.9538 336.517 87.2984 336.553 87.64 336.522V336.522Z" fill="#407BFF"/>
<path opacity="0.3" d="M179.58 64.6818L162.96 329.942L135.32 332.362L151.94 67.0918L179.58 64.6818Z" fill="#407BFF"/>
<path opacity="0.2" d="M144.011 56.1687L115.768 58.6347C115.113 58.6918 114.629 59.2689 114.686 59.9237L114.786 61.0693C114.843 61.724 115.42 62.2084 116.075 62.1513L144.318 59.6853C144.972 59.6282 145.457 59.0511 145.4 58.3963L145.3 57.2507C145.243 56.596 144.665 56.1115 144.011 56.1687Z" fill="white"/>
<path d="M117.69 158.962H255.3C258.875 158.972 262.3 160.397 264.827 162.924C267.355 165.452 268.78 168.877 268.79 172.452V239.952C268.78 243.527 267.355 246.953 264.828 249.482C262.301 252.012 258.876 253.438 255.3 253.452H207.68L186.49 274.642L165.3 253.452H117.69C114.113 253.441 110.685 252.015 108.156 249.486C105.626 246.957 104.201 243.529 104.19 239.952V172.452C104.201 168.875 105.627 165.449 108.156 162.921C110.686 160.393 114.114 158.97 117.69 158.962Z" fill="#407BFF"/>
<path opacity="0.3" d="M117.69 158.962H255.3C258.875 158.972 262.3 160.397 264.827 162.924C267.355 165.452 268.78 168.877 268.79 172.452V239.952C268.78 243.527 267.355 246.953 264.828 249.482C262.301 252.012 258.876 253.438 255.3 253.452H207.68L186.49 274.642L165.3 253.452H117.69C114.113 253.441 110.685 252.015 108.156 249.486C105.626 246.957 104.201 243.529 104.19 239.952V172.452C104.201 168.875 105.627 165.449 108.156 162.921C110.686 160.393 114.114 158.97 117.69 158.962Z" fill="white"/>
<path d="M126.51 182.352V230.052C126.494 231.901 127.211 233.682 128.504 235.005C129.797 236.328 131.56 237.085 133.41 237.112H239.57C241.42 237.085 243.184 236.328 244.476 235.005C245.769 233.682 246.486 231.901 246.47 230.052V182.352C246.469 181.448 246.3 180.553 245.97 179.712C245.467 178.42 244.588 177.309 243.447 176.521C242.307 175.733 240.956 175.305 239.57 175.292H133.41C132.025 175.304 130.675 175.732 129.536 176.52C128.397 177.308 127.52 178.42 127.02 179.712C126.681 180.551 126.508 181.447 126.51 182.352V182.352Z" fill="white"/>
<path opacity="0.1" d="M127.02 179.712L178.34 202.062C180.912 203.185 183.688 203.764 186.495 203.764C189.302 203.764 192.078 203.185 194.65 202.062L245.97 179.712C245.467 178.42 244.588 177.309 243.447 176.521C242.307 175.733 240.956 175.305 239.57 175.292H133.41C132.025 175.304 130.675 175.732 129.536 176.52C128.397 177.308 127.52 178.42 127.02 179.712V179.712Z" fill="black"/>
<path d="M129.321 179.466C137.335 171.452 137.335 158.459 129.321 150.446C121.308 142.432 108.315 142.432 100.301 150.446C92.2879 158.459 92.2879 171.452 100.301 179.466C108.315 187.479 121.308 187.479 129.321 179.466Z" fill="#DE5753"/>
<path d="M118.77 177.462H113.99V159.462C112.223 161.105 110.117 162.341 107.82 163.082V158.752C109.295 158.209 110.668 157.422 111.88 156.422C113.245 155.406 114.287 154.017 114.88 152.422H118.76L118.77 177.462Z" fill="white"/>
<path d="M230.26 37.7617C229.548 37.7559 228.862 37.4973 228.323 37.032C227.785 36.5667 227.429 35.9251 227.32 35.2217C225.948 26.2065 221.058 18.103 213.721 12.6876C206.384 7.27209 197.199 4.98648 188.18 6.33174C187.448 6.35098 186.734 6.10172 186.173 5.63096C185.612 5.16019 185.242 4.50044 185.134 3.77607C185.026 3.05171 185.186 2.31278 185.585 1.69858C185.984 1.08438 186.594 0.637338 187.3 0.441738C197.88 -1.13549 208.654 1.54761 217.258 7.90262C225.863 14.2576 231.596 23.7658 233.2 34.3417C233.309 35.1204 233.109 35.9108 232.641 36.5429C232.174 37.175 231.477 37.5983 230.7 37.7217C230.555 37.7495 230.408 37.7629 230.26 37.7617V37.7617Z" fill="#407BFF"/>
<path d="M215.47 39.9817C214.76 39.9763 214.075 39.719 213.536 39.2557C212.998 38.7924 212.641 38.1532 212.53 37.4517C211.758 32.3545 208.995 27.7717 204.848 24.7085C200.701 21.6453 195.509 20.3518 190.41 21.1117C189.677 21.1337 188.961 20.8863 188.398 20.4164C187.835 19.9465 187.463 19.2865 187.354 18.5613C187.244 17.836 187.404 17.0958 187.803 16.4804C188.202 15.8651 188.813 15.4173 189.52 15.2217C196.181 14.2266 202.965 15.9146 208.383 19.9154C213.801 23.9161 217.411 29.9027 218.42 36.5617C218.532 37.3419 218.333 38.1349 217.865 38.7692C217.397 39.4036 216.698 39.8284 215.92 39.9517C215.771 39.9716 215.62 39.9817 215.47 39.9817V39.9817Z" fill="#407BFF"/>
<path d="M200.69 42.2117C199.978 42.2059 199.292 41.9472 198.753 41.4819C198.215 41.0166 197.859 40.375 197.75 39.6717C197.663 39.0868 197.462 38.5247 197.157 38.0178C196.853 37.5109 196.451 37.0691 195.975 36.7179C195.5 36.3667 194.959 36.1129 194.385 35.9711C193.811 35.8293 193.215 35.8023 192.63 35.8917C191.904 35.9016 191.2 35.6481 190.647 35.1782C190.094 34.7083 189.73 34.0538 189.622 33.336C189.515 32.6183 189.671 31.8859 190.062 31.2746C190.454 30.6634 191.053 30.2147 191.75 30.0117C193.111 29.8064 194.499 29.8722 195.835 30.2055C197.17 30.5387 198.427 31.1327 199.532 31.9534C200.637 32.774 201.569 33.8051 202.274 34.9873C202.979 36.1695 203.443 37.4794 203.64 38.8417C203.749 39.6203 203.549 40.4107 203.081 41.0429C202.614 41.675 201.917 42.0983 201.14 42.2217C200.99 42.2332 200.839 42.2299 200.69 42.2117V42.2117Z" fill="#407BFF"/>
</svg>
