<svg width="388" height="344" viewBox="0 0 388 344" fill="none" xmlns="http://www.w3.org/2000/svg">
<path d="M172.14 128.78C174.93 115.36 181.01 100.23 191.59 99.22C199.89 98.43 206.89 106.9 211.89 115.5C216.89 124.1 221.51 134.05 229.06 138.5C236.61 142.95 245.59 140.79 252.75 135.45C259.91 130.11 265.56 121.95 270.94 113.78C288.94 86.51 307.02 56 334.76 48.57C339.486 47.2391 344.546 47.8173 348.85 50.18C362.1 57.5 361.89 75.8 359.56 90.94C351.06 145.6 322.56 192.09 288.56 225.52C257.46 256.07 220.56 277.59 181.89 282.2C143.22 286.81 102.69 273.56 72.4901 241.5C42.2901 209.44 23.63 157.91 27.49 107.22C27.91 101.75 28.67 96.02 31.33 91.77C32.8838 89.2368 35.2318 87.2885 38.0081 86.2286C40.7845 85.1687 43.8334 85.0567 46.68 85.91C52.16 87.46 56.96 91.72 61.33 96.33C81.19 117.28 94.9 146.33 111.33 171.92L111.78 172.62C129.6 200.26 163.9 187.62 168.37 151.87C169.42 143.2 170.8 135.22 172.14 128.78Z" fill="#304495" fill-opacity="0.13"/>
<path opacity="0.9" d="M172.14 128.78C174.93 115.36 181.01 100.23 191.59 99.22C199.89 98.43 206.89 106.9 211.89 115.5C216.89 124.1 221.51 134.05 229.06 138.5C236.61 142.95 245.59 140.79 252.75 135.45C259.91 130.11 265.56 121.95 270.94 113.78C288.94 86.51 307.02 56 334.76 48.57C339.486 47.2391 344.546 47.8173 348.85 50.18C362.1 57.5 361.89 75.8 359.56 90.94C351.06 145.6 322.56 192.09 288.56 225.52C257.46 256.07 220.56 277.59 181.89 282.2C143.22 286.81 102.69 273.56 72.4901 241.5C42.2901 209.44 23.63 157.91 27.49 107.22C27.91 101.75 28.67 96.02 31.33 91.77C32.8838 89.2368 35.2318 87.2885 38.0081 86.2286C40.7845 85.1687 43.8334 85.0567 46.68 85.91C52.16 87.46 56.96 91.72 61.33 96.33C81.19 117.28 94.9 146.33 111.33 171.92L111.78 172.62C129.6 200.26 163.9 187.62 168.37 151.87C169.42 143.2 170.8 135.22 172.14 128.78Z" fill="#ADBCF9" fill-opacity="0.63"/>
<path d="M193.89 343.06C300.972 343.06 387.78 337.992 387.78 331.74C387.78 325.488 300.972 320.42 193.89 320.42C86.8075 320.42 0 325.488 0 331.74C0 337.992 86.8075 343.06 193.89 343.06Z" fill="#C0C7EE" fill-opacity="0.72"/>
<path d="M356.63 304.15C356.63 303.83 355.52 271.51 350.29 266.42C345.29 261.51 339.41 266.24 339.16 266.42L338.52 265.65C338.59 265.59 345.28 260.13 350.98 265.65C356.51 271.02 357.58 302.72 357.63 304.07L356.63 304.15Z" fill="#407BFF"/>
<path d="M357.08 310.5C356.93 308.92 353.48 271.62 367.55 255.5L368.3 256.15C354.51 271.98 358.04 310.04 358.08 310.42L357.08 310.5Z" fill="#407BFF"/>
<path d="M356.74 306.5L355.74 306.43C355.74 305.99 358.48 262.76 348.21 253.31L348.89 252.5C359.51 262.29 356.89 304.65 356.74 306.5Z" fill="#407BFF"/>
<path d="M358.08 306.42H357.08C357.08 305.22 357.42 277.14 365.43 272.55C366.198 272.053 367.073 271.748 367.983 271.659C368.893 271.57 369.811 271.701 370.66 272.04C375.51 274.04 377.91 282.66 378.01 283.04L377.01 283.31C377.01 283.22 374.64 274.8 370.23 272.98C369.522 272.699 368.757 272.592 368 272.671C367.242 272.749 366.515 273.01 365.88 273.43C358.41 277.71 358.08 306.13 358.08 306.42Z" fill="#407BFF"/>
<path d="M354.98 306.44L353.98 306.38C353.98 306.16 355.18 284.26 349.28 276.56C347.86 274.71 346.33 273.84 344.72 273.94C340.89 274.21 337.65 279.84 337.62 279.94L336.75 279.45C336.89 279.2 340.28 273.29 344.65 272.98C346.6 272.84 348.44 273.86 350.07 275.98C356.2 283.94 355.03 305.5 354.98 306.44Z" fill="#407BFF"/>
<path d="M356.1 309.43C355.94 307.3 352.22 257.18 358.77 248.32L359.57 248.92C353.25 257.47 357.06 308.83 357.09 309.35L356.1 309.43Z" fill="#407BFF"/>
<path d="M372.4 277.19C372.4 277.19 368.48 278.63 369.65 282.04C370.82 285.45 383.19 291.04 383.19 291.04C383.19 291.04 388.38 286.29 383.61 278.56C378.84 270.83 372.5 274.75 372.4 277.19Z" fill="#407BFF"/>
<path opacity="0.2" d="M372.4 277.19C372.4 277.19 368.48 278.63 369.65 282.04C370.82 285.45 383.19 291.04 383.19 291.04C383.19 291.04 388.38 286.29 383.61 278.56C378.84 270.83 372.5 274.75 372.4 277.19Z" fill="white"/>
<path d="M355.38 270.7C355.38 270.7 359.55 270.53 359.78 274.12C360.01 277.71 350.78 287.65 350.78 287.65C350.78 287.65 344.17 285.26 345.59 276.3C347.01 267.34 354.34 268.5 355.38 270.7Z" fill="#407BFF"/>
<path opacity="0.2" d="M355.38 270.7C355.38 270.7 359.55 270.53 359.78 274.12C360.01 277.71 350.78 287.65 350.78 287.65C350.78 287.65 344.17 285.26 345.59 276.3C347.01 267.34 354.34 268.5 355.38 270.7Z" fill="white"/>
<path d="M351.89 253.5C351.89 253.5 354.67 253.2 354.45 251.5C354.23 249.8 343.64 245.45 337.45 252.5C337.45 252.5 341.45 259.36 347.22 259.45C352.99 259.54 351.89 253.5 351.89 253.5Z" fill="#407BFF"/>
<path opacity="0.2" d="M351.89 253.5C351.89 253.5 354.67 253.2 354.45 251.5C354.23 249.8 343.64 245.45 337.45 252.5C337.45 252.5 341.45 259.36 347.22 259.45C352.99 259.54 351.89 253.5 351.89 253.5Z" fill="white"/>
<path d="M357.03 249.39C357.03 249.39 354.51 250.61 353.81 249.05C353.11 247.49 359.81 238.2 368.81 240.88C368.81 240.88 369.05 248.82 364.19 251.96C359.33 255.1 357.03 249.39 357.03 249.39Z" fill="#407BFF"/>
<path opacity="0.2" d="M357.03 249.39C357.03 249.39 354.51 250.61 353.81 249.05C353.11 247.49 359.81 238.2 368.81 240.88C368.81 240.88 369.05 248.82 364.19 251.96C359.33 255.1 357.03 249.39 357.03 249.39Z" fill="white"/>
<path d="M343.89 275.82C343.89 275.82 345.81 274.27 343.74 273.51C341.67 272.75 331.51 272.97 331.4 283.03C331.4 283.03 343.23 285.03 344.7 281.17C346.17 277.31 343.89 275.82 343.89 275.82Z" fill="#407BFF"/>
<path opacity="0.2" d="M343.89 275.82C343.89 275.82 345.81 274.27 343.74 273.51C341.67 272.75 331.51 272.97 331.4 283.03C331.4 283.03 343.23 285.03 344.7 281.17C346.17 277.31 343.89 275.82 343.89 275.82Z" fill="white"/>
<path d="M367.99 253.25C367.99 253.25 366.08 251.7 368.15 250.95C370.22 250.2 380.37 250.4 380.48 260.47C380.48 260.47 368.65 262.47 367.18 258.6C365.71 254.73 367.99 253.25 367.99 253.25Z" fill="#407BFF"/>
<path opacity="0.2" d="M367.99 253.25C367.99 253.25 366.08 251.7 368.15 250.95C370.22 250.2 380.37 250.4 380.48 260.47C380.48 260.47 368.65 262.47 367.18 258.6C365.71 254.73 367.99 253.25 367.99 253.25Z" fill="white"/>
<path d="M361.74 261.36C361.74 261.36 361.57 259.47 363.09 260.21C364.61 260.95 369.91 266.66 364.42 272.08C364.42 272.08 357.03 266.61 358.36 263.76C359.69 260.91 361.74 261.36 361.74 261.36Z" fill="#407BFF"/>
<path opacity="0.2" d="M361.74 261.36C361.74 261.36 361.57 259.47 363.09 260.21C364.61 260.95 369.91 266.66 364.42 272.08C364.42 272.08 357.03 266.61 358.36 263.76C359.69 260.91 361.74 261.36 361.74 261.36Z" fill="white"/>
<path d="M342.15 264.04C342.15 264.04 343.3 262.54 341.62 262.35C339.94 262.16 332.42 264.17 334.17 271.69C334.17 271.69 343.34 271 343.73 267.88C344.12 264.76 342.15 264.04 342.15 264.04Z" fill="#407BFF"/>
<path opacity="0.2" d="M342.15 264.04C342.15 264.04 343.3 262.54 341.62 262.35C339.94 262.16 332.42 264.17 334.17 271.69C334.17 271.69 343.34 271 343.73 267.88C344.12 264.76 342.15 264.04 342.15 264.04Z" fill="white"/>
<path d="M373.13 334.3H341.67L338.28 299.86H376.52L373.13 334.3Z" fill="#407BFF"/>
<path opacity="0.5" d="M373.13 334.3H341.67L338.28 299.86H376.52L373.13 334.3Z" fill="white"/>
<path d="M378.21 296.06H336.6V303.66H378.21V296.06Z" fill="#407BFF"/>
<path opacity="0.2" d="M378.21 296.06H336.6V303.66H378.21V296.06Z" fill="white"/>
<path d="M335.19 1H252.94V63.13H335.19V1Z" fill="white"/>
<path d="M336.19 64.13H332.69V62.13H334.19V60.63H336.19V64.13Z" fill="#407BFF"/>
<path d="M327.54 64.13H322.39V62.13H327.54V64.13ZM317.24 64.13H312.09V62.13H317.24V64.13ZM306.94 64.13H301.79V62.13H306.94V64.13ZM296.64 64.13H291.49V62.13H296.64V64.13ZM286.34 64.13H281.19V62.13H286.34V64.13ZM276.04 64.13H270.89V62.13H276.04V64.13ZM265.74 64.13H260.59V62.13H265.74V64.13Z" fill="#407BFF"/>
<path d="M255.44 64.13H251.94V60.63H253.94V62.13H255.44V64.13Z" fill="#407BFF"/>
<path d="M253.94 55.43H251.94V50.24H253.94V55.43ZM253.94 45.05H251.94V39.85H253.94V45.05ZM253.94 34.66H251.94V29.5H253.94V34.66ZM253.94 24.27H251.94V19.08H253.94V24.27ZM253.94 13.89H251.94V8.69H253.94V13.89Z" fill="#407BFF"/>
<path d="M253.94 3.5H251.94V0H255.44V2H253.94V3.5Z" fill="#407BFF"/>
<path d="M327.54 2H322.39V0H327.54V2ZM317.24 2H312.09V0H317.24V2ZM306.94 2H301.79V0H306.94V2ZM296.64 2H291.49V0H296.64V2ZM286.34 2H281.19V0H286.34V2ZM276.04 2H270.89V0H276.04V2ZM265.74 2H260.59V0H265.74V2Z" fill="#407BFF"/>
<path d="M336.19 3.5H334.19V2H332.69V0H336.19V3.5Z" fill="#407BFF"/>
<path d="M336.19 55.43H334.19V50.24H336.19V55.43ZM336.19 45.05H334.19V39.85H336.19V45.05ZM336.19 34.66H334.19V29.5H336.19V34.66ZM336.19 24.27H334.19V19.08H336.19V24.27ZM336.19 13.89H334.19V8.69H336.19V13.89Z" fill="#407BFF"/>
<path opacity="0.2" d="M330.18 58.13V6L257.93 6V58.13L330.18 58.13Z" fill="#407BFF"/>
<g opacity="0.4">
<path opacity="0.4" d="M286.11 39.41L288.04 36.72C287.302 35.278 286.921 33.6798 286.93 32.06C286.93 27.24 290.12 23.34 294.06 23.34C295.115 23.3449 296.149 23.6278 297.06 24.16L298.39 22.32C297.04 21.6481 295.558 21.286 294.05 21.26C286.23 21.26 279.9 32.06 279.9 32.06C281.596 34.8033 283.688 37.2802 286.11 39.41V39.41Z" fill="#407BFF"/>
<path opacity="0.4" d="M301 23.91L307.25 15.23C307.384 15.0396 307.439 14.8042 307.401 14.5742C307.364 14.3442 307.238 14.1381 307.05 14C306.929 13.9158 306.789 13.8626 306.642 13.8452C306.496 13.8277 306.348 13.8466 306.21 13.9C306.246 14.0252 306.253 14.1568 306.23 14.285C306.208 14.4131 306.156 14.5345 306.08 14.64L281.08 49.34C280.985 49.4719 280.852 49.5727 280.7 49.63C280.741 49.7904 280.827 49.9357 280.948 50.0488C281.069 50.162 281.22 50.2382 281.383 50.2687C281.545 50.2991 281.713 50.2825 281.867 50.2207C282.021 50.159 282.154 50.0547 282.25 49.92L288.53 41.19C290.174 42.2378 292.071 42.8186 294.02 42.87C301.84 42.87 308.18 32.06 308.18 32.06C306.279 28.9465 303.849 26.1885 301 23.91V23.91ZM294.06 40.79C292.56 40.7689 291.116 40.2121 289.99 39.22L290.99 37.79C291.839 38.4809 292.895 38.8681 293.99 38.89C297.07 38.89 299.57 35.83 299.57 32.06C299.586 30.4889 299.122 28.9504 298.24 27.65L299.24 26.22C300.465 27.919 301.113 29.9657 301.09 32.06C301.19 36.88 298 40.79 294.06 40.79V40.79Z" fill="#407BFF"/>
<path opacity="0.4" d="M294.06 25.23C290.98 25.23 288.48 28.29 288.48 32.06C288.48 33.1455 288.698 34.2199 289.12 35.22L296 25.66C295.392 25.3777 294.73 25.231 294.06 25.23Z" fill="#407BFF"/>
</g>
<path d="M374.43 69V156.8L361.51 170.35H299V69H374.43Z" fill="white"/>
<path d="M375.43 71.5H373.43V70H371.93V68H375.43V71.5Z" fill="#407BFF"/>
<path d="M367.29 165.73L365.89 164.35L369.23 160.85L370.68 162.23L367.29 165.73ZM373.96 158.73L372.52 157.34L373.43 156.39V153.68H375.43V157.19L373.96 158.73ZM375.43 148.84H373.43V144.01H375.43V148.84ZM375.43 139.17H373.43V134.34H375.43V139.17ZM375.43 129.5H373.43V124.67H375.43V129.5ZM375.43 119.83H373.43V115H375.43V119.83ZM375.43 110.17H373.43V105.33H375.43V110.17ZM375.43 100.5H373.43V95.66H375.43V100.5ZM375.43 90.83H373.43V86H375.43V90.83ZM375.43 81.16H373.43V76.32H375.43V81.16Z" fill="#407BFF"/>
<path d="M361.93 171.35H359V169.35H361.08L362.51 167.85L363.95 169.23L361.93 171.35Z" fill="#407BFF"/>
<path d="M353.78 171.35H348.55V169.35H353.78V171.35ZM343.32 171.35H338.09V169.35H343.32V171.35ZM332.86 171.35H327.64V169.35H332.89L332.86 171.35ZM322.41 171.35H317.18V169.35H322.41V171.35ZM311.95 171.35H306.72V169.35H311.95V171.35Z" fill="#407BFF"/>
<path d="M301.49 171.35H297.99V167.85H299.99V169.35H301.49V171.35Z" fill="#407BFF"/>
<path d="M299.99 162.78H297.99V157.71H299.99V162.78ZM299.99 152.64H297.99V147.57H299.99V152.64ZM299.99 142.5H297.99V137.42H299.99V142.5ZM299.99 132.35H297.99V127.28H299.99V132.35ZM299.99 122.21H297.99V117.14H299.99V122.21ZM299.99 112.07H297.99V107H299.99V112.07ZM299.99 101.93H297.99V96.86H299.99V101.93ZM299.99 91.78H297.99V86.71H299.99V91.78ZM299.99 81.64H297.99V76.57H299.99V81.64Z" fill="#407BFF"/>
<path d="M299.99 71.5H297.99V68H301.49V70H299.99V71.5Z" fill="#407BFF"/>
<path d="M367.23 70H362.53V68H367.23V70ZM357.84 70H353.14V68H357.89L357.84 70ZM348.45 70H343.75V68H348.45V70ZM339.06 70H334.36V68H339.06V70ZM329.67 70H324.97V68H329.67V70ZM320.28 70H315.58V68H320.28V70ZM310.89 70H306.19V68H310.89V70Z" fill="#407BFF"/>
<path d="M361.51 170.35V156.8H374.43" fill="#407BFF"/>
<path d="M362.5 170.35H360.5V165.35H362.5V170.35ZM362.5 160.35H360.5V155.8H362.95V157.8H362.5V160.35ZM372.95 157.8H367.95V155.8H372.95V157.8Z" fill="#407BFF"/>
<path opacity="0.7" d="M361.51 170.35V156.8H374.43" fill="white"/>
<g opacity="0.4">
<path opacity="0.4" d="M327.02 128.62L329.38 125.35C328.484 123.595 328.022 121.651 328.03 119.68C328.03 113.8 331.91 109.05 336.71 109.05C338 109.054 339.266 109.399 340.38 110.05L342 107.81C340.357 106.985 338.549 106.541 336.71 106.51C327.18 106.51 319.46 119.68 319.46 119.68C321.523 123.018 324.071 126.031 327.02 128.62Z" fill="#407BFF"/>
<path opacity="0.4" d="M345.17 109.74L352.78 99.16C352.919 98.9736 352.992 98.7468 352.989 98.5146C352.986 98.2824 352.907 98.0575 352.764 97.8746C352.621 97.6917 352.421 97.5609 352.197 97.5022C351.972 97.4436 351.734 97.4604 351.52 97.55C351.561 97.7026 351.568 97.8623 351.54 98.0178C351.512 98.1733 351.451 98.3208 351.36 98.45L320.95 140.72C320.833 140.885 320.669 141.01 320.48 141.08C320.539 141.321 320.681 141.533 320.88 141.68C321.062 141.807 321.278 141.877 321.5 141.88C321.67 141.88 321.838 141.839 321.99 141.76C322.141 141.682 322.271 141.569 322.37 141.43L330.02 130.8C332.03 132.055 334.341 132.746 336.71 132.8C346.23 132.8 353.96 119.64 353.96 119.64C351.626 115.855 348.652 112.506 345.17 109.74V109.74ZM336.71 130.3C334.867 130.293 333.089 129.614 331.71 128.39L332.97 126.65C334.011 127.512 335.318 127.989 336.67 128C340.42 128 343.47 124.27 343.47 119.68C343.502 117.768 342.951 115.891 341.89 114.3L343.15 112.56C344.635 114.635 345.419 117.129 345.39 119.68C345.39 125.55 341.51 130.3 336.71 130.3Z" fill="#407BFF"/>
<path opacity="0.4" d="M336.71 111.35C332.96 111.35 329.91 115.08 329.91 119.68C329.909 121 330.174 122.306 330.69 123.52L339.07 111.88C338.331 111.534 337.526 111.353 336.71 111.35V111.35Z" fill="#407BFF"/>
</g>
<path d="M301.06 158.26L299.11 150.42H275.79L273.84 158.26H239.83V219.67H308.76V158.26H301.06Z" fill="white"/>
<path d="M309.76 220.67H304.89V218.67H307.72V218.5H309.72L309.76 220.67ZM299.93 220.67H294.93V218.67H299.93V220.67ZM289.93 220.67H284.93V218.67H289.93V220.67ZM279.93 220.67H274.93V218.67H279.93V220.67ZM269.93 220.67H264.93V218.67H269.93V220.67ZM259.93 220.67H254.93V218.67H259.93V220.67ZM249.93 220.67H244.93V218.67H249.93V220.67ZM239.93 220.67H238.83V214.78H240.83V219.67H239.89L239.93 220.67ZM309.76 213.5H307.76V208.5H309.76V213.5ZM240.83 209.78H238.83V204.78H240.83V209.78ZM309.76 203.5H307.76V198.5H309.76V203.5ZM240.83 199.78H238.83V194.78H240.83V199.78ZM309.76 193.5H307.76V188.5H309.76V193.5ZM240.83 189.78H238.83V184.78H240.83V189.78ZM309.76 183.5H307.76V178.5H309.76V183.5ZM240.83 179.78H238.83V174.78H240.83V179.78ZM309.76 173.5H307.76V168.5H309.76V173.5ZM240.83 169.78H238.83V164.78H240.83V169.78ZM309.76 163.5H307.76V158.5H309.76V163.5ZM240.83 159.78H238.83V157.26H243.31V159.26H240.83V159.78ZM304.01 159.26H300.28L298.88 153.65L300.82 153.17L301.82 157.26H303.99L304.01 159.26ZM273.31 159.26H268.31V157.26H273.31V159.26ZM263.31 159.26H258.31V157.26H263.31V159.26ZM253.31 159.26H248.31V157.26H253.31V159.26ZM275.89 154.17L273.95 153.69L275.01 149.42H277.18V151.42H276.57L275.89 154.17ZM297.18 151.42H292.18V149.42H297.18V151.42ZM287.18 151.42H282.18V149.42H287.18V151.42Z" fill="#407BFF"/>
<path opacity="0.2" d="M301.06 158.26L299.11 150.42H275.79L273.84 158.26H239.83V219.67H308.76V158.26H301.06Z" fill="#407BFF"/>
<path d="M305.98 219.67H237.42L230.42 169.14H298.98L305.98 219.67Z" fill="white"/>
<path d="M307.12 220.67H303.48V218.67H304.83L304.64 217.33L306.62 217.06L307.12 220.67Z" fill="#407BFF"/>
<path d="M298.59 220.67H293.7V218.67H298.59V220.67ZM288.81 220.67H283.89V218.67H288.78L288.81 220.67ZM279.03 220.67H274.14V218.67H279.03V220.67ZM269.25 220.67H264.37V218.67H269.25V220.67ZM259.48 220.67H254.59V218.67H259.48V220.67ZM249.7 220.67H244.81V218.67H249.7V220.67Z" fill="#407BFF"/>
<path d="M239.92 220.67H236.55L236.09 217.33L238.07 217.06L238.29 218.67H239.92V220.67Z" fill="#407BFF"/>
<path d="M235.39 212.27L234.68 207.21L236.68 206.93L237.38 211.99L235.39 212.27ZM233.98 202.14L233.28 197.08L235.28 196.8L235.98 201.87L233.98 202.14ZM232.58 192.01L231.88 186.95L233.88 186.67L234.58 191.74L232.58 192.01ZM231.18 181.88L230.47 176.82L232.47 176.55L233.17 181.61L231.18 181.88Z" fill="#407BFF"/>
<path d="M229.77 171.76L229.27 168.14H232.92V170.14H231.57L231.76 171.48L229.77 171.76Z" fill="#407BFF"/>
<path d="M291.59 170.14H286.7V168.14H291.59V170.14ZM281.81 170.14H276.89V168.14H281.78L281.81 170.14ZM272.03 170.14H267.14V168.14H272.03V170.14ZM262.25 170.14H257.37V168.14H262.25V170.14ZM252.48 170.14H247.59V168.14H252.48V170.14ZM242.7 170.14H237.81V168.14H242.7V170.14Z" fill="#407BFF"/>
<path d="M298.33 171.76L298.1 170.14H296.48V168.14H299.85L300.31 171.48L298.33 171.76Z" fill="#407BFF"/>
<path d="M303.94 212.27L303.24 207.2L305.24 206.93L305.94 211.99L303.94 212.27ZM302.54 202.14L301.84 197.08L303.84 196.8L304.54 201.87L302.54 202.14ZM301.13 192.01L300.43 186.95L302.43 186.67L303.14 191.74L301.13 192.01ZM299.73 181.88L299.03 176.82L301.03 176.54L301.73 181.61L299.73 181.88Z" fill="#407BFF"/>
<g opacity="0.4">
<path opacity="0.4" d="M258.37 201.7L260.31 199.02C259.572 197.578 259.191 195.98 259.2 194.36C259.2 189.54 262.39 185.64 266.32 185.64C267.374 185.65 268.407 185.932 269.32 186.46L270.64 184.62C269.291 183.947 267.808 183.585 266.3 183.56C258.49 183.56 252.15 194.36 252.15 194.36C253.847 197.102 255.944 199.576 258.37 201.7Z" fill="#407BFF"/>
<path opacity="0.4" d="M273.27 186.21L279.51 177.52C279.615 177.369 279.67 177.189 279.667 177.005C279.664 176.821 279.602 176.643 279.491 176.496C279.379 176.349 279.225 176.241 279.048 176.188C278.872 176.135 278.684 176.139 278.51 176.2C278.544 176.325 278.549 176.457 278.527 176.584C278.504 176.712 278.454 176.834 278.38 176.94L253.38 211.64C253.281 211.773 253.145 211.873 252.99 211.93C253.039 212.127 253.156 212.3 253.32 212.42C253.47 212.524 253.648 212.58 253.83 212.58C253.969 212.582 254.106 212.55 254.229 212.487C254.353 212.424 254.459 212.333 254.54 212.22L260.89 203.5C262.533 204.54 264.426 205.117 266.37 205.17C274.19 205.17 280.53 194.37 280.53 194.37C278.604 191.247 276.147 188.486 273.27 186.21V186.21ZM266.32 203.08C264.821 203.063 263.377 202.509 262.25 201.52L263.25 200.08C264.096 200.778 265.153 201.169 266.25 201.19C269.33 201.19 271.83 198.13 271.83 194.36C271.844 192.791 271.384 191.253 270.51 189.95L271.51 188.52C272.728 190.222 273.372 192.267 273.35 194.36C273.45 199.18 270.26 203.08 266.32 203.08Z" fill="#407BFF"/>
<path opacity="0.4" d="M266.32 187.5C263.24 187.5 260.74 190.56 260.74 194.33C260.74 195.415 260.958 196.49 261.38 197.49L268.26 187.93C267.653 187.646 266.99 187.5 266.32 187.5Z" fill="#407BFF"/>
</g>
<path d="M192.89 41.32L197.15 36.1C197.89 35.1697 198.825 34.4134 199.89 33.8846C200.954 33.3558 202.122 33.0675 203.31 33.04H229.89C230.963 33.0112 232.023 33.2823 232.95 33.8229C233.878 34.3634 234.636 35.152 235.14 36.1L237.83 41.32C238.332 42.2668 239.088 43.0543 240.014 43.5933C240.941 44.1323 241.999 44.4013 243.07 44.37H258.99C259.854 44.345 260.712 44.5146 261.501 44.8662C262.29 45.2178 262.99 45.7424 263.549 46.4012C264.108 47.06 264.511 47.836 264.73 48.6719C264.948 49.5078 264.975 50.382 264.81 51.23L251.58 139.5C251.262 141.378 250.303 143.088 248.866 144.339C247.43 145.589 245.604 146.304 243.7 146.36H117.89C117.026 146.386 116.166 146.218 115.376 145.867C114.586 145.516 113.884 144.992 113.324 144.333C112.764 143.674 112.36 142.897 112.141 142.061C111.922 141.224 111.894 140.349 112.06 139.5L125.29 51.26C125.612 49.3836 126.572 47.6759 128.008 46.4259C129.444 45.1758 131.267 44.4602 133.17 44.4H186.76C187.945 44.365 189.107 44.0712 190.166 43.5391C191.225 43.0071 192.155 42.2496 192.89 41.32V41.32Z" fill="#407BFF"/>
<path opacity="0.5" d="M192.89 41.32L197.15 36.1C197.89 35.1697 198.825 34.4134 199.89 33.8846C200.954 33.3558 202.122 33.0675 203.31 33.04H229.89C230.963 33.0112 232.023 33.2823 232.95 33.8229C233.878 34.3634 234.636 35.152 235.14 36.1L237.83 41.32C238.332 42.2668 239.088 43.0543 240.014 43.5933C240.941 44.1323 241.999 44.4013 243.07 44.37H258.99C259.854 44.345 260.712 44.5146 261.501 44.8662C262.29 45.2178 262.99 45.7424 263.549 46.4012C264.108 47.06 264.511 47.836 264.73 48.6719C264.948 49.5078 264.975 50.382 264.81 51.23L251.58 139.5C251.262 141.378 250.303 143.088 248.866 144.339C247.43 145.589 245.604 146.304 243.7 146.36H117.89C117.026 146.386 116.166 146.218 115.376 145.867C114.586 145.516 113.884 144.992 113.324 144.333C112.764 143.674 112.36 142.897 112.141 142.061C111.922 141.224 111.894 140.349 112.06 139.5L125.29 51.26C125.612 49.3836 126.572 47.6759 128.008 46.4259C129.444 45.1758 131.267 44.4602 133.17 44.4H186.76C187.945 44.365 189.107 44.0712 190.166 43.5391C191.225 43.0071 192.155 42.2496 192.89 41.32V41.32Z" fill="white"/>
<path d="M119.82 52.7799H235.09C236.224 52.7707 237.348 52.9852 238.399 53.4112C239.449 53.8371 240.406 54.4661 241.213 55.2622C242.02 56.0582 242.662 57.0057 243.103 58.0504C243.543 59.095 243.774 60.2163 243.78 61.35L243.71 137.76C243.701 138.895 243.468 140.016 243.026 141.061C242.583 142.106 241.939 143.053 241.13 143.849C240.321 144.645 239.364 145.273 238.312 145.699C237.26 146.125 236.135 146.339 235 146.33H119.73C118.596 146.339 117.471 146.125 116.42 145.699C115.369 145.273 114.412 144.644 113.604 143.848C112.796 143.052 112.152 142.105 111.711 141.06C111.269 140.016 111.038 138.894 111.03 137.76L111.11 61.35C111.119 60.2153 111.352 59.0936 111.794 58.0489C112.237 57.0041 112.881 56.0568 113.69 55.261C114.499 54.4652 115.456 53.8365 116.508 53.4108C117.56 52.9851 118.685 52.7707 119.82 52.7799V52.7799Z" fill="#407BFF"/>
<path opacity="0.7" d="M119.82 52.7799H235.09C236.224 52.7707 237.348 52.9852 238.399 53.4112C239.449 53.8371 240.406 54.4661 241.213 55.2622C242.02 56.0582 242.662 57.0057 243.103 58.0504C243.543 59.095 243.774 60.2163 243.78 61.35L243.71 137.76C243.701 138.895 243.468 140.016 243.026 141.061C242.583 142.106 241.939 143.053 241.13 143.849C240.321 144.645 239.364 145.273 238.312 145.699C237.26 146.125 236.135 146.339 235 146.33H119.73C118.596 146.339 117.471 146.125 116.42 145.699C115.369 145.273 114.412 144.644 113.604 143.848C112.796 143.052 112.152 142.105 111.711 141.06C111.269 140.016 111.038 138.894 111.03 137.76L111.11 61.35C111.119 60.2153 111.352 59.0936 111.794 58.0489C112.237 57.0041 112.881 56.0568 113.69 55.261C114.499 54.4652 115.456 53.8365 116.508 53.4108C117.56 52.9851 118.685 52.7707 119.82 52.7799V52.7799Z" fill="white"/>
<path d="M158.14 72.86H125.02C123.706 72.86 122.64 73.9256 122.64 75.24V131.22C122.64 132.534 123.706 133.6 125.02 133.6H158.14C159.454 133.6 160.52 132.534 160.52 131.22V75.24C160.52 73.9256 159.454 72.86 158.14 72.86Z" fill="#407BFF"/>
<path d="M155.14 72.86H122.02C120.706 72.86 119.64 73.9256 119.64 75.24V131.22C119.64 132.534 120.706 133.6 122.02 133.6H155.14C156.454 133.6 157.52 132.534 157.52 131.22V75.24C157.52 73.9256 156.454 72.86 155.14 72.86Z" fill="#407BFF"/>
<path opacity="0.2" d="M155.14 72.86H122.02C120.706 72.86 119.64 73.9256 119.64 75.24V131.22C119.64 132.534 120.706 133.6 122.02 133.6H155.14C156.454 133.6 157.52 132.534 157.52 131.22V75.24C157.52 73.9256 156.454 72.86 155.14 72.86Z" fill="white"/>
<path d="M130.67 90.61H124.63C124.083 90.61 123.64 91.0532 123.64 91.6V97.88C123.64 98.4268 124.083 98.87 124.63 98.87H130.67C131.217 98.87 131.66 98.4268 131.66 97.88V91.6C131.66 91.0532 131.217 90.61 130.67 90.61Z" fill="#407BFF"/>
<path d="M141.3 90.61H135.26C134.713 90.61 134.27 91.0532 134.27 91.6V97.88C134.27 98.4268 134.713 98.87 135.26 98.87H141.3C141.847 98.87 142.29 98.4268 142.29 97.88V91.6C142.29 91.0532 141.847 90.61 141.3 90.61Z" fill="#407BFF"/>
<path d="M151.93 90.61H145.89C145.343 90.61 144.9 91.0532 144.9 91.6V97.88C144.9 98.4268 145.343 98.87 145.89 98.87H151.93C152.477 98.87 152.92 98.4268 152.92 97.88V91.6C152.92 91.0532 152.477 90.61 151.93 90.61Z" fill="#407BFF"/>
<path d="M130.67 100.65H124.63C124.083 100.65 123.64 101.093 123.64 101.64V107.92C123.64 108.467 124.083 108.91 124.63 108.91H130.67C131.217 108.91 131.66 108.467 131.66 107.92V101.64C131.66 101.093 131.217 100.65 130.67 100.65Z" fill="#407BFF"/>
<path d="M141.3 100.65H135.26C134.713 100.65 134.27 101.093 134.27 101.64V107.92C134.27 108.467 134.713 108.91 135.26 108.91H141.3C141.847 108.91 142.29 108.467 142.29 107.92V101.64C142.29 101.093 141.847 100.65 141.3 100.65Z" fill="#407BFF"/>
<path d="M151.93 100.65H145.89C145.343 100.65 144.9 101.093 144.9 101.64V107.92C144.9 108.467 145.343 108.91 145.89 108.91H151.93C152.477 108.91 152.92 108.467 152.92 107.92V101.64C152.92 101.093 152.477 100.65 151.93 100.65Z" fill="#407BFF"/>
<path d="M130.67 110.68H124.63C124.083 110.68 123.64 111.123 123.64 111.67V117.95C123.64 118.497 124.083 118.94 124.63 118.94H130.67C131.217 118.94 131.66 118.497 131.66 117.95V111.67C131.66 111.123 131.217 110.68 130.67 110.68Z" fill="#407BFF"/>
<path d="M141.3 110.68H135.26C134.713 110.68 134.27 111.123 134.27 111.67V117.95C134.27 118.497 134.713 118.94 135.26 118.94H141.3C141.847 118.94 142.29 118.497 142.29 117.95V111.67C142.29 111.123 141.847 110.68 141.3 110.68Z" fill="#407BFF"/>
<path d="M151.93 110.68H145.89C145.343 110.68 144.9 111.123 144.9 111.67V117.95C144.9 118.497 145.343 118.94 145.89 118.94H151.93C152.477 118.94 152.92 118.497 152.92 117.95V111.67C152.92 111.123 152.477 110.68 151.93 110.68Z" fill="#407BFF"/>
<path d="M141.3 120.71H135.26C134.713 120.71 134.27 121.153 134.27 121.7V127.98C134.27 128.527 134.713 128.97 135.26 128.97H141.3C141.847 128.97 142.29 128.527 142.29 127.98V121.7C142.29 121.153 141.847 120.71 141.3 120.71Z" fill="#407BFF"/>
<path d="M129.67 90.61H123.63C123.083 90.61 122.64 91.0532 122.64 91.6V97.88C122.64 98.4268 123.083 98.87 123.63 98.87H129.67C130.217 98.87 130.66 98.4268 130.66 97.88V91.6C130.66 91.0532 130.217 90.61 129.67 90.61Z" fill="#407BFF"/>
<path d="M140.3 90.61H134.26C133.713 90.61 133.27 91.0532 133.27 91.6V97.88C133.27 98.4268 133.713 98.87 134.26 98.87H140.3C140.847 98.87 141.29 98.4268 141.29 97.88V91.6C141.29 91.0532 140.847 90.61 140.3 90.61Z" fill="#407BFF"/>
<path d="M150.93 90.61H144.89C144.343 90.61 143.9 91.0532 143.9 91.6V97.88C143.9 98.4268 144.343 98.87 144.89 98.87H150.93C151.477 98.87 151.92 98.4268 151.92 97.88V91.6C151.92 91.0532 151.477 90.61 150.93 90.61Z" fill="#407BFF"/>
<path d="M129.67 100.65H123.63C123.083 100.65 122.64 101.093 122.64 101.64V107.92C122.64 108.467 123.083 108.91 123.63 108.91H129.67C130.217 108.91 130.66 108.467 130.66 107.92V101.64C130.66 101.093 130.217 100.65 129.67 100.65Z" fill="#407BFF"/>
<path d="M140.3 100.65H134.26C133.713 100.65 133.27 101.093 133.27 101.64V107.92C133.27 108.467 133.713 108.91 134.26 108.91H140.3C140.847 108.91 141.29 108.467 141.29 107.92V101.64C141.29 101.093 140.847 100.65 140.3 100.65Z" fill="#407BFF"/>
<path d="M150.93 100.65H144.89C144.343 100.65 143.9 101.093 143.9 101.64V107.92C143.9 108.467 144.343 108.91 144.89 108.91H150.93C151.477 108.91 151.92 108.467 151.92 107.92V101.64C151.92 101.093 151.477 100.65 150.93 100.65Z" fill="#407BFF"/>
<path d="M129.67 110.68H123.63C123.083 110.68 122.64 111.123 122.64 111.67V117.95C122.64 118.497 123.083 118.94 123.63 118.94H129.67C130.217 118.94 130.66 118.497 130.66 117.95V111.67C130.66 111.123 130.217 110.68 129.67 110.68Z" fill="#407BFF"/>
<path d="M140.3 110.68H134.26C133.713 110.68 133.27 111.123 133.27 111.67V117.95C133.27 118.497 133.713 118.94 134.26 118.94H140.3C140.847 118.94 141.29 118.497 141.29 117.95V111.67C141.29 111.123 140.847 110.68 140.3 110.68Z" fill="#407BFF"/>
<path d="M150.93 110.68H144.89C144.343 110.68 143.9 111.123 143.9 111.67V117.95C143.9 118.497 144.343 118.94 144.89 118.94H150.93C151.477 118.94 151.92 118.497 151.92 117.95V111.67C151.92 111.123 151.477 110.68 150.93 110.68Z" fill="#407BFF"/>
<path d="M140.3 120.71H134.26C133.713 120.71 133.27 121.153 133.27 121.7V127.98C133.27 128.527 133.713 128.97 134.26 128.97H140.3C140.847 128.97 141.29 128.527 141.29 127.98V121.7C141.29 121.153 140.847 120.71 140.3 120.71Z" fill="#407BFF"/>
<g opacity="0.5">
<path opacity="0.5" d="M129.67 90.61H123.63C123.083 90.61 122.64 91.0532 122.64 91.6V97.88C122.64 98.4268 123.083 98.87 123.63 98.87H129.67C130.217 98.87 130.66 98.4268 130.66 97.88V91.6C130.66 91.0532 130.217 90.61 129.67 90.61Z" fill="white"/>
<path opacity="0.5" d="M140.3 90.61H134.26C133.713 90.61 133.27 91.0532 133.27 91.6V97.88C133.27 98.4268 133.713 98.87 134.26 98.87H140.3C140.847 98.87 141.29 98.4268 141.29 97.88V91.6C141.29 91.0532 140.847 90.61 140.3 90.61Z" fill="white"/>
<path opacity="0.5" d="M150.93 90.61H144.89C144.343 90.61 143.9 91.0532 143.9 91.6V97.88C143.9 98.4268 144.343 98.87 144.89 98.87H150.93C151.477 98.87 151.92 98.4268 151.92 97.88V91.6C151.92 91.0532 151.477 90.61 150.93 90.61Z" fill="white"/>
<path opacity="0.5" d="M129.67 100.65H123.63C123.083 100.65 122.64 101.093 122.64 101.64V107.92C122.64 108.467 123.083 108.91 123.63 108.91H129.67C130.217 108.91 130.66 108.467 130.66 107.92V101.64C130.66 101.093 130.217 100.65 129.67 100.65Z" fill="white"/>
<path opacity="0.5" d="M140.3 100.65H134.26C133.713 100.65 133.27 101.093 133.27 101.64V107.92C133.27 108.467 133.713 108.91 134.26 108.91H140.3C140.847 108.91 141.29 108.467 141.29 107.92V101.64C141.29 101.093 140.847 100.65 140.3 100.65Z" fill="white"/>
<path opacity="0.5" d="M150.93 100.65H144.89C144.343 100.65 143.9 101.093 143.9 101.64V107.92C143.9 108.467 144.343 108.91 144.89 108.91H150.93C151.477 108.91 151.92 108.467 151.92 107.92V101.64C151.92 101.093 151.477 100.65 150.93 100.65Z" fill="white"/>
<path opacity="0.5" d="M129.67 110.68H123.63C123.083 110.68 122.64 111.123 122.64 111.67V117.95C122.64 118.497 123.083 118.94 123.63 118.94H129.67C130.217 118.94 130.66 118.497 130.66 117.95V111.67C130.66 111.123 130.217 110.68 129.67 110.68Z" fill="white"/>
<path opacity="0.5" d="M140.3 110.68H134.26C133.713 110.68 133.27 111.123 133.27 111.67V117.95C133.27 118.497 133.713 118.94 134.26 118.94H140.3C140.847 118.94 141.29 118.497 141.29 117.95V111.67C141.29 111.123 140.847 110.68 140.3 110.68Z" fill="white"/>
<path opacity="0.5" d="M150.93 110.68H144.89C144.343 110.68 143.9 111.123 143.9 111.67V117.95C143.9 118.497 144.343 118.94 144.89 118.94H150.93C151.477 118.94 151.92 118.497 151.92 117.95V111.67C151.92 111.123 151.477 110.68 150.93 110.68Z" fill="white"/>
<path opacity="0.5" d="M140.3 120.71H134.26C133.713 120.71 133.27 121.153 133.27 121.7V127.98C133.27 128.527 133.713 128.97 134.26 128.97H140.3C140.847 128.97 141.29 128.527 141.29 127.98V121.7C141.29 121.153 140.847 120.71 140.3 120.71Z" fill="white"/>
</g>
<path d="M152.91 78.45H123.64V85.97H152.91V78.45Z" fill="#407BFF"/>
<g opacity="0.2">
<path opacity="0.2" d="M129.89 82.2L131.37 83.04L131.1 83.55L129.6 82.67V84.37H129.05V82.67L127.55 83.55L127.26 83.04L128.76 82.2L127.26 81.36L127.55 80.85L129.05 81.74V80.03H129.6V81.74L131.1 80.85L131.37 81.36L129.89 82.2Z" fill="white"/>
</g>
<g opacity="0.2">
<path opacity="0.2" d="M135.83 82.2L137.32 83.04L137.05 83.55L135.55 82.67V84.37H134.99V82.67L133.49 83.55L133.2 83.04L134.7 82.2L133.2 81.36L133.49 80.85L134.99 81.74V80.03H135.55V81.74L137.05 80.85L137.32 81.36L135.83 82.2Z" fill="white"/>
</g>
<g opacity="0.2">
<path opacity="0.2" d="M141.8 82.2L143.29 83.04L143.01 83.55L141.51 82.67V84.37H140.96V82.67L139.46 83.55L139.18 83.04L140.68 82.2L139.18 81.36L139.46 80.85L140.96 81.74V80.03H141.51V81.74L143.01 80.85L143.29 81.36L141.8 82.2Z" fill="white"/>
</g>
<g opacity="0.2">
<path opacity="0.2" d="M147.77 82.2L149.25 83.04L148.98 83.55L147.48 82.67V84.37H146.89V82.67L145.39 83.55L145.1 83.04L146.6 82.2L145.1 81.36L145.39 80.85L146.89 81.74V80.03H147.44V81.74L148.94 80.85L149.21 81.36L147.77 82.2Z" fill="white"/>
</g>
<g opacity="0.4">
<path opacity="0.4" d="M187.23 112.5L190.54 107.9C189.271 105.426 188.619 102.681 188.64 99.9C188.64 91.65 194.1 84.97 200.84 84.97C202.654 84.9788 204.434 85.4651 206 86.38L208.27 83.23C205.969 82.1133 203.448 81.5224 200.89 81.5C187.51 81.5 176.66 99.99 176.66 99.99C179.545 104.66 183.107 108.876 187.23 112.5V112.5Z" fill="black"/>
<path opacity="0.4" d="M212.72 86.02L223.42 71.15C223.607 70.8859 223.704 70.5684 223.695 70.2449C223.687 69.9214 223.574 69.6093 223.374 69.3551C223.174 69.1009 222.897 68.9182 222.584 68.8344C222.272 68.7506 221.941 68.7701 221.64 68.89C221.701 69.103 221.712 69.327 221.674 69.5451C221.636 69.7633 221.549 69.9701 221.42 70.15L178.69 129.5C178.526 129.732 178.296 129.909 178.03 130.01C178.12 130.346 178.321 130.642 178.6 130.85C178.76 130.965 178.941 131.048 179.133 131.093C179.325 131.138 179.524 131.144 179.718 131.111C179.912 131.079 180.098 131.008 180.265 130.903C180.432 130.798 180.577 130.661 180.69 130.5L191.44 115.56C194.264 117.38 197.531 118.397 200.89 118.5C214.27 118.5 225.12 100 225.12 100C225.12 100 220.09 91.5 212.72 86.02ZM200.89 114.91C198.308 114.888 195.822 113.932 193.89 112.22L195.66 109.77C197.126 110.976 198.962 111.643 200.86 111.66C206.13 111.66 210.41 106.43 210.41 99.97C210.434 97.2816 209.643 94.6491 208.14 92.42L209.9 89.97C211.992 92.8817 213.099 96.3852 213.06 99.97C213.04 108.22 207.58 114.91 200.89 114.91Z" fill="black"/>
<path opacity="0.4" d="M200.89 88.28C195.61 88.28 191.34 93.51 191.34 99.97C191.335 101.828 191.706 103.669 192.43 105.38L204.2 89.01C203.162 88.5306 202.033 88.2816 200.89 88.28V88.28Z" fill="black"/>
</g>
<path d="M23.12 89.3201C23.12 89.3201 11.25 110.12 10.37 115.1C9.48999 120.08 20.48 151.95 20.48 151.95C20.48 151.95 18.06 160.34 20.7 161.75C23.34 163.16 27.95 166.01 28.61 163.6C29.27 161.19 28.61 153.21 28.61 153.21L26.61 151.51C26.61 151.51 19.61 118.22 19.61 117.06C19.61 115.9 32.37 96.2701 32.37 96.2701L23.12 89.3201Z" fill="#E4897B"/>
<path d="M33.75 100.27L33.29 100.91L25.65 111.5L24.65 112.83L12.78 102.72C12.78 102.72 19.11 86.94 26.49 82.85L31.65 95.24L32.89 98.19L33.75 100.27Z" fill="#407BFF"/>
<path opacity="0.2" d="M33.29 100.91L25.65 111.5C24.65 101.55 29.73 96.7001 31.65 95.2401C31.8793 95.0585 32.1198 94.8915 32.37 94.7401L32.88 98.19L33.29 100.91Z" fill="black"/>
<path d="M67.64 326.86L75.75 327.71L76.16 323.01L77.27 310.22L69.16 309.36L67.93 323.49L67.64 326.86Z" fill="#E4897B"/>
<path d="M27.16 325.83H35.02L35.09 324.05L35.1 323.83L35.5 312.43L35.51 312.2L35.67 307.83H27.8L27.16 325.83Z" fill="#E4897B"/>
<path opacity="0.2" d="M69.16 309.36L67.93 323.49L76.16 323.01L77.27 310.22L69.16 309.36Z" fill="black"/>
<path opacity="0.2" d="M27.21 324.83H27.22L35.09 323.83H35.1L35.51 312.83H35.5L27.62 313.46L27.22 324.48L27.21 324.83Z" fill="black"/>
<path d="M36.11 325.35H26.56C26.4046 325.354 26.2549 325.409 26.1339 325.507C26.0128 325.604 25.9272 325.739 25.89 325.89L24.34 332.89C24.2777 333.192 24.3374 333.507 24.5059 333.765C24.6745 334.024 24.9383 334.205 25.24 334.27C25.3227 334.285 25.4073 334.285 25.49 334.27C28.58 334.22 30.83 334.03 34.71 334.03C37.1 334.03 44.31 334.28 47.61 334.28C50.91 334.28 51.34 331.02 49.99 330.72C43.93 329.4 39.37 327.57 37.43 325.83C37.068 325.506 36.5953 325.335 36.11 325.35V325.35Z" fill="#263238"/>
<path d="M76.61 325.1H67.06C66.9046 325.104 66.7549 325.159 66.6339 325.257C66.5128 325.354 66.4272 325.489 66.39 325.64L64.84 332.64C64.7777 332.942 64.8374 333.257 65.0059 333.515C65.1745 333.774 65.4383 333.955 65.74 334.02C65.8227 334.035 65.9073 334.035 65.99 334.02C69.08 333.97 71.33 333.78 75.21 333.78C77.6 333.78 84.81 334.03 88.11 334.03C91.41 334.03 91.84 330.77 90.49 330.47C84.43 329.15 79.87 327.32 77.93 325.58C77.568 325.256 77.0953 325.085 76.61 325.1V325.1Z" fill="#263238"/>
<path d="M78.02 321.83H66.49C66.49 321.83 67.43 222.57 54.96 189.05C54.08 200.13 53.09 211.63 52.12 221.21C51.51 227.14 50.91 232.21 50.34 236.11C46.71 261.11 37.55 322.83 37.55 322.83H26.16C26.16 322.83 27.51 263.69 28.86 239.12C30.35 212.45 30.99 153.83 31.05 148.83H72.77C76.74 169.83 86.89 253.83 78.02 321.83Z" fill="#263238"/>
<path opacity="0.2" d="M54.96 189.01C54.08 200.09 53.09 211.61 52.12 221.19C50.7 207.36 48.96 197.5 48.96 197.5C48.96 197.5 47.33 196.16 42.85 189.01C38.37 181.86 42.89 168.5 42.89 168.5C42.71 180.91 54.96 189.01 54.96 189.01Z" fill="black"/>
<path d="M79.31 318.58L78.75 321.83H65.12V318.83L79.31 318.58Z" fill="#407BFF"/>
<path d="M38.85 319.83L37.55 322.83H26.12L25.37 319.83H38.85Z" fill="#407BFF"/>
<path d="M53.73 53.85C53.73 53.85 64.79 50.95 66.67 48.21C68.55 45.47 59.78 45.09 53.87 47.55C47.96 50.01 53.73 53.85 53.73 53.85Z" fill="#263238"/>
<path opacity="0.2" d="M53.73 53.85C53.73 53.85 64.79 50.95 66.67 48.21C68.55 45.47 59.78 45.09 53.87 47.55C47.96 50.01 53.73 53.85 53.73 53.85Z" fill="white"/>
<path d="M57.62 66.7C57.52 67.08 57.41 67.45 57.28 67.81C56.5382 69.891 55.1816 71.6975 53.39 72.99C52.9388 73.3229 52.4605 73.6173 51.96 73.87C50.6599 74.5648 49.2207 74.9596 47.7481 75.0254C46.2755 75.0911 44.8068 74.8262 43.45 74.25C42.2277 73.7237 41.1228 72.9588 40.2 72C36.26 68 36.36 63.43 35.92 55.65C35.7838 53.8349 36.1152 52.0152 36.8824 50.3646C37.6496 48.714 38.827 47.2875 40.3023 46.2214C41.7776 45.1553 43.5016 44.4851 45.3096 44.2748C47.1176 44.0644 48.9493 44.321 50.63 45.02C58.26 48.13 59.3 59.7 57.62 66.7Z" fill="#E4897B"/>
<path opacity="0.2" d="M53.39 72.9901C52.9388 73.323 52.4604 73.6173 51.96 73.87C50.6599 74.5649 49.2207 74.9596 47.7481 75.0254C46.2754 75.0912 44.8068 74.8262 43.45 74.2501C43.7953 73.3128 44.2627 72.4252 44.84 71.6101C47.7634 71.2381 50.732 71.7173 53.39 72.9901V72.9901Z" fill="black"/>
<path d="M37.74 83.0801C41.57 86.5601 50.95 85.2701 50.95 85.2701C50.95 85.2701 56.81 83.6701 55.58 81.8401C52.13 81.2701 50.46 79.6601 49.77 77.6001C49.3921 76.3231 49.2732 74.9836 49.42 73.6601C49.4773 72.9221 49.5741 72.1877 49.71 71.4601L38.11 62.8701C39.63 68.5001 41.49 78.9701 37.74 83.0801Z" fill="#E4897B"/>
<path d="M48.42 41.67C48.42 41.67 50.42 40.41 53.98 43.67C56.98 46.46 53.98 48.67 55.75 52.27C57.52 55.87 55.13 59.37 55.13 59.37C55.13 59.37 53.42 63.05 50.45 62.82C50.45 62.82 48.03 65.75 48.45 68.82C48.87 71.89 44.45 74.25 38.55 74.17C32.65 74.09 34.99 70.39 34.99 70.39C33.2765 68.4106 31.8922 66.1687 30.89 63.75C29.6785 60.8196 29.0861 57.6703 29.15 54.5C29.097 52.8475 29.3729 51.2008 29.9618 49.6558C30.5506 48.1108 31.4406 46.6982 32.58 45.5C36.54 41.01 45.98 38.77 48.42 41.67Z" fill="#263238"/>
<path d="M48.97 61.18C49.1168 61.9119 49.4256 62.6017 49.8738 63.1987C50.322 63.7957 50.8981 64.2848 51.56 64.63C53.14 65.3 54.18 63.07 53.95 60.73C53.73 58.66 52.66 55.73 50.95 56.13C49.24 56.53 48.42 59.08 48.97 61.18Z" fill="#E4897B"/>
<path d="M29.36 59.41C29.36 59.41 41.19 60.96 58.17 51.59C58.17 51.59 54.46 39.01 49.38 38.59C44.3 38.17 29.64 43.93 28.72 46.31C27.65 49.1 29.36 59.41 29.36 59.41Z" fill="#407BFF"/>
<path d="M30.06 57.1401C30.06 57.1401 29.82 53.28 30.66 52.79C31.5 52.3 35.48 51.4801 36.15 52.0801C36.82 52.6801 37.66 56.2701 37.66 56.2701C37.66 56.2701 33.22 57.7701 30.06 57.1401Z" fill="#263238"/>
<path d="M53.73 53.85C53.73 53.85 57.5 51.49 57.39 49.27L66.67 48.21C66.67 48.21 65.73 51.11 53.73 53.85Z" fill="#263238"/>
<path opacity="0.2" d="M53.73 53.85C53.73 53.85 57.5 51.49 57.39 49.27L66.67 48.21C66.67 48.21 65.73 51.11 53.73 53.85Z" fill="white"/>
<path d="M30.01 151.61C30.01 151.61 31.62 133.47 29.23 105.88C28.61 98.7801 27.73 91.0601 26.49 82.8801C26.49 82.8801 49.18 77.8801 65 82.8801C65 82.8801 66 88.1001 67.25 96.5901C67.6 99.0201 67.98 101.71 68.35 104.59C68.58 106.39 68.85 108.32 69.13 110.36C70.76 121.94 73.04 136.95 73.3 150.89L30.01 151.61Z" fill="#407BFF"/>
<path opacity="0.7" d="M30.01 151.61C30.01 151.61 31.62 133.47 29.23 105.88C31.43 88.08 37.74 83.08 37.74 83.08L50.16 82.85C61.44 99.56 64 103.23 68.35 104.59C69.9 116.59 73 134.5 73.3 150.89L30.01 151.61Z" fill="white"/>
<path opacity="0.2" d="M69.14 110.37C61.24 102.17 64.8 94.7401 64.8 94.7401L67.25 96.56C67.6 98.99 67.98 101.68 68.35 104.56C68.59 106.4 68.89 108.33 69.14 110.37Z" fill="black"/>
<path d="M68.6 100.65C68.6 100.65 83 110.22 88.54 111.88C94.08 113.54 117.71 98.1201 117.71 98.1201L126.94 99.3101C126.94 99.3101 128.94 92.8801 126.94 91.3101C124.94 89.7401 117.13 92.2501 115.94 93.1201C114.75 93.9901 92.34 101.65 91.15 102.12C89.96 102.59 73.15 90.3201 73.15 90.3201L68.6 100.65Z" fill="#E4897B"/>
<path d="M65 82.85C65 82.85 58.27 91.21 65 102.72L78.89 110.5L86.4 96.28C86.4 96.28 76.08 87.5 65 82.85Z" fill="#407BFF"/>
</svg>
