<svg width="388" height="342" viewBox="0 0 388 342" fill="none" xmlns="http://www.w3.org/2000/svg">
<path opacity="0.9" d="M57.2801 5.15814C82.6201 -7.74186 109.47 5.87814 130.71 20.5281C149.71 33.6381 167.84 49.3581 190.02 56.9581C219.02 66.8981 246.34 56.5581 274.21 48.6081C295.8 42.4581 321.28 38.1181 342 49.3781C380.05 70.0681 382.66 119.708 374.68 157.378C352.68 261.268 221.53 296.718 130.54 268.958C115.79 264.505 101.729 258.026 88.7601 249.708C49.2201 224.198 20.6001 181.238 11.6201 135.118C3.21007 91.9081 19.2001 24.5581 57.2801 5.15814Z" fill="#CFCBE7" fill-opacity="0.37"/>
<path d="M193.89 341.118C300.972 341.118 387.78 336.05 387.78 329.798C387.78 323.546 300.972 318.478 193.89 318.478C86.8075 318.478 0 323.546 0 329.798C0 336.05 86.8075 341.118 193.89 341.118Z" fill="#D3CFEB" fill-opacity="0.47"/>
<path d="M322.01 18.6382H169.21C163.466 18.6382 158.81 23.2944 158.81 29.0382V320.488C158.81 326.232 163.466 330.888 169.21 330.888H322.01C327.754 330.888 332.41 326.232 332.41 320.488V29.0382C332.41 23.2944 327.754 18.6382 322.01 18.6382Z" fill="#407BFF"/>
<path opacity="0.4" d="M322.01 18.6382H169.21C163.466 18.6382 158.81 23.2944 158.81 29.0382V320.488C158.81 326.232 163.466 330.888 169.21 330.888H322.01C327.754 330.888 332.41 326.232 332.41 320.488V29.0382C332.41 23.2944 327.754 18.6382 322.01 18.6382Z" fill="white"/>
<path d="M326.56 29.0982V319.868C326.56 320.432 326.448 320.991 326.23 321.511C326.012 322.031 325.693 322.503 325.291 322.898C324.888 323.294 324.412 323.606 323.888 323.815C323.364 324.024 322.804 324.128 322.24 324.118H168.53C168.018 324.125 167.51 324.029 167.035 323.835C166.561 323.64 166.131 323.353 165.771 322.989C165.411 322.625 165.127 322.192 164.938 321.716C164.749 321.24 164.658 320.73 164.67 320.218V28.7482C164.653 28.2969 164.725 27.8466 164.882 27.4231C165.039 26.9997 165.278 26.6114 165.586 26.2807C165.893 25.9499 166.263 25.6831 166.674 25.4956C167.085 25.3082 167.529 25.2037 167.98 25.1882H206.4C206.939 25.1962 207.463 25.3652 207.905 25.6735C208.347 25.9818 208.686 26.4153 208.88 26.9182L210.47 30.8282C210.664 31.3274 211.003 31.7571 211.443 32.0619C211.883 32.3666 212.405 32.5326 212.94 32.5382H278.37C278.911 32.5478 279.442 32.3921 279.892 32.0919C280.343 31.7917 280.691 31.3614 280.89 30.8582L282.49 26.9182C282.682 26.4161 283.02 25.9829 283.46 25.6746C283.9 25.3662 284.423 25.1968 284.96 25.1882H322.79C323.805 25.217 324.768 25.6425 325.473 26.3736C326.178 27.1046 326.568 28.0828 326.56 29.0982V29.0982Z" fill="#263238"/>
<path opacity="0.3" d="M326.56 43.3481H164.67V304.848H326.56V43.3481Z" fill="white"/>
<path opacity="0.6" d="M182.52 36.8982H184.52V34.2282H182.52V36.8982Z" fill="white"/>
<path opacity="0.6" d="M179.26 36.8982H181.26V33.3482H179.26V36.8982Z" fill="white"/>
<path opacity="0.6" d="M175.99 36.8982H177.99V32.4582H175.99V36.8982Z" fill="white"/>
<path opacity="0.6" d="M172.73 36.8982H174.73V31.5682H172.73V36.8982Z" fill="white"/>
<path opacity="0.6" d="M308.24 33.2681H307.05V35.9381H308.24V33.2681Z" fill="white"/>
<path opacity="0.6" d="M309.06 36.9082H318.5V32.2982H309.06V36.9082Z" fill="white"/>
<path d="M322.57 48.4783H168.67V74.8483H322.57V48.4783Z" fill="#407BFF"/>
<path d="M313.95 58.3383C314.602 58.3383 315.13 57.81 315.13 57.1583C315.13 56.5066 314.602 55.9783 313.95 55.9783C313.298 55.9783 312.77 56.5066 312.77 57.1583C312.77 57.81 313.298 58.3383 313.95 58.3383Z" fill="white"/>
<path d="M313.95 62.8383C314.602 62.8383 315.13 62.31 315.13 61.6583C315.13 61.0066 314.602 60.4783 313.95 60.4783C313.298 60.4783 312.77 61.0066 312.77 61.6583C312.77 62.31 313.298 62.8383 313.95 62.8383Z" fill="white"/>
<path d="M313.95 67.3383C314.602 67.3383 315.13 66.81 315.13 66.1583C315.13 65.5066 314.602 64.9783 313.95 64.9783C313.298 64.9783 312.77 65.5066 312.77 66.1583C312.77 66.81 313.298 67.3383 313.95 67.3383Z" fill="white"/>
<path d="M296.99 63.9982C299.094 63.9982 300.8 62.2924 300.8 60.1882C300.8 58.084 299.094 56.3782 296.99 56.3782C294.886 56.3782 293.18 58.084 293.18 60.1882C293.18 62.2924 294.886 63.9982 296.99 63.9982Z" stroke="white" stroke-linecap="round" stroke-linejoin="round"/>
<path d="M299.68 62.8782L303.74 66.9482" stroke="white" stroke-linecap="round" stroke-linejoin="round"/>
<path d="M285.51 55.9082H277.43V67.4082H285.51V55.9082Z" stroke="white" stroke-linecap="round" stroke-linejoin="round"/>
<path d="M288.52 56.2781L283.03 61.5081" stroke="white" stroke-linecap="round" stroke-linejoin="round"/>
<path d="M192.65 55.9082H177.43V67.4082H192.65V55.9082Z" stroke="white" stroke-linecap="round" stroke-linejoin="round"/>
<path d="M177.43 55.9082L185.04 61.6582L192.65 55.9082" stroke="white" stroke-linecap="round" stroke-linejoin="round"/>
<path opacity="0.6" d="M322.57 77.1082H168.67V301.148H322.57V77.1082Z" fill="white"/>
<path d="M172.74 107.618H318.49" stroke="#263238" stroke-linecap="round" stroke-linejoin="round"/>
<path opacity="0.3" d="M194.06 93.0582C194.06 94.8204 193.537 96.5431 192.558 98.0083C191.579 99.4736 190.188 100.616 188.56 101.29C186.932 101.964 185.14 102.141 183.412 101.797C181.683 101.453 180.096 100.605 178.85 99.3585C177.604 98.1124 176.755 96.5248 176.411 94.7965C176.067 93.0681 176.244 91.2766 176.918 89.6485C177.593 88.0204 178.735 86.6288 180.2 85.6498C181.665 84.6708 183.388 84.1482 185.15 84.1482C186.32 84.1469 187.48 84.3764 188.561 84.8238C189.643 85.2711 190.626 85.9273 191.453 86.7549C192.281 87.5826 192.937 88.5653 193.384 89.6469C193.832 90.7285 194.061 91.8878 194.06 93.0582V93.0582Z" fill="black"/>
<path d="M186.89 95.2883C187.521 94.9164 188.013 94.3472 188.289 93.6684C188.565 92.9896 188.61 92.2389 188.417 91.5319C188.225 90.8249 187.805 90.2009 187.223 89.7561C186.64 89.3113 185.928 89.0703 185.195 89.0703C184.462 89.0703 183.75 89.3113 183.168 89.7561C182.585 90.2009 182.165 90.8249 181.973 91.5319C181.78 92.2389 181.825 92.9896 182.101 93.6684C182.377 94.3472 182.869 94.9164 183.5 95.2883V95.2883C182.589 95.6334 181.804 96.2479 181.25 97.05C180.696 97.852 180.4 98.8036 180.4 99.7783C180.398 100.053 180.421 100.328 180.47 100.598C181.889 101.487 183.53 101.959 185.205 101.959C186.88 101.959 188.521 101.487 189.94 100.598C189.989 100.328 190.012 100.053 190.01 99.7783C190.01 98.8009 189.711 97.847 189.154 97.0444C188.596 96.2418 187.806 95.629 186.89 95.2883V95.2883Z" fill="white"/>
<path opacity="0.3" d="M227.73 91.1083H202.14C201.984 91.1083 201.83 91.0774 201.686 91.0175C201.542 90.9576 201.412 90.8698 201.302 90.7591C201.192 90.6485 201.106 90.5172 201.047 90.3729C200.988 90.2286 200.959 90.0741 200.96 89.9183V89.9183C200.96 89.6053 201.084 89.3052 201.306 89.0839C201.527 88.8626 201.827 88.7383 202.14 88.7383H227.73C228.043 88.7383 228.343 88.8626 228.564 89.0839C228.786 89.3052 228.91 89.6053 228.91 89.9183V89.9183C228.911 90.0741 228.882 90.2286 228.823 90.3729C228.764 90.5172 228.678 90.6485 228.568 90.7591C228.458 90.8698 228.328 90.9576 228.184 91.0175C228.04 91.0774 227.886 91.1083 227.73 91.1083V91.1083Z" fill="black"/>
<path opacity="0.3" d="M257.73 96.2482H202.14C201.826 96.2455 201.526 96.119 201.305 95.8961C201.084 95.6732 200.96 95.372 200.96 95.0582C200.959 94.9024 200.988 94.7479 201.047 94.6035C201.106 94.4592 201.192 94.328 201.302 94.2173C201.412 94.1067 201.542 94.0189 201.686 93.9589C201.83 93.899 201.984 93.8682 202.14 93.8682H257.73C258.041 93.8734 258.338 94.0014 258.555 94.2243C258.772 94.4472 258.893 94.7469 258.89 95.0582V95.0582C258.89 95.3686 258.769 95.6669 258.552 95.8892C258.335 96.1115 258.04 96.2403 257.73 96.2482V96.2482Z" fill="black"/>
<path d="M172.74 136.828H318.49" stroke="#263238" stroke-linecap="round" stroke-linejoin="round"/>
<path opacity="0.3" d="M194.06 122.268C194.06 124.03 193.537 125.753 192.558 127.218C191.579 128.684 190.188 129.826 188.56 130.5C186.932 131.174 185.14 131.351 183.412 131.007C181.683 130.663 180.096 129.815 178.85 128.568C177.604 127.322 176.755 125.735 176.411 124.006C176.067 122.278 176.244 120.487 176.918 118.858C177.593 117.23 178.735 115.839 180.2 114.86C181.665 113.881 183.388 113.358 185.15 113.358C186.32 113.357 187.48 113.586 188.561 114.034C189.643 114.481 190.626 115.137 191.453 115.965C192.281 116.793 192.937 117.775 193.384 118.857C193.832 119.938 194.061 121.098 194.06 122.268V122.268Z" fill="black"/>
<path d="M186.89 124.498C187.521 124.126 188.013 123.557 188.289 122.878C188.565 122.2 188.61 121.449 188.417 120.742C188.225 120.035 187.805 119.411 187.223 118.966C186.64 118.521 185.928 118.28 185.195 118.28C184.462 118.28 183.75 118.521 183.168 118.966C182.585 119.411 182.165 120.035 181.973 120.742C181.78 121.449 181.825 122.2 182.101 122.878C182.377 123.557 182.869 124.126 183.5 124.498V124.498C182.589 124.843 181.804 125.458 181.25 126.26C180.696 127.062 180.4 128.014 180.4 128.988C180.398 129.263 180.421 129.538 180.47 129.808C181.889 130.697 183.53 131.169 185.205 131.169C186.88 131.169 188.521 130.697 189.94 129.808C189.989 129.538 190.012 129.263 190.01 128.988C190.01 128.011 189.711 127.057 189.154 126.254C188.596 125.452 187.806 124.839 186.89 124.498V124.498Z" fill="white"/>
<path opacity="0.3" d="M227.73 120.308H202.14C201.827 120.308 201.527 120.184 201.306 119.963C201.084 119.741 200.96 119.441 200.96 119.128V119.128C200.959 118.972 200.988 118.818 201.047 118.674C201.106 118.529 201.192 118.398 201.302 118.287C201.412 118.177 201.542 118.089 201.686 118.029C201.83 117.969 201.984 117.938 202.14 117.938H227.73C227.886 117.938 228.04 117.969 228.184 118.029C228.328 118.089 228.458 118.177 228.568 118.287C228.678 118.398 228.764 118.529 228.823 118.674C228.882 118.818 228.911 118.972 228.91 119.128V119.128C228.91 119.441 228.786 119.741 228.564 119.963C228.343 120.184 228.043 120.308 227.73 120.308V120.308Z" fill="black"/>
<path opacity="0.3" d="M257.73 125.448H202.14C201.984 125.448 201.83 125.417 201.686 125.357C201.542 125.297 201.412 125.21 201.302 125.099C201.192 124.988 201.106 124.857 201.047 124.713C200.988 124.568 200.959 124.414 200.96 124.258V124.258C200.96 123.945 201.084 123.645 201.306 123.424C201.527 123.202 201.827 123.078 202.14 123.078H257.73C258.04 123.083 258.335 123.21 258.552 123.431C258.769 123.651 258.89 123.949 258.89 124.258V124.258C258.893 124.569 258.772 124.869 258.555 125.092C258.338 125.315 258.041 125.443 257.73 125.448V125.448Z" fill="black"/>
<path d="M172.74 166.028H318.49" stroke="#263238" stroke-linecap="round" stroke-linejoin="round"/>
<path opacity="0.3" d="M194.06 151.468C194.06 153.23 193.537 154.953 192.558 156.418C191.579 157.883 190.188 159.026 188.56 159.7C186.932 160.374 185.14 160.551 183.412 160.207C181.683 159.863 180.096 159.015 178.85 157.768C177.604 156.522 176.755 154.935 176.411 153.206C176.067 151.478 176.244 149.686 176.918 148.058C177.593 146.43 178.735 145.039 180.2 144.06C181.665 143.081 183.388 142.558 185.15 142.558C186.32 142.557 187.48 142.786 188.561 143.234C189.643 143.681 190.626 144.337 191.453 145.165C192.281 145.992 192.937 146.975 193.384 148.057C193.832 149.138 194.061 150.298 194.06 151.468V151.468Z" fill="black"/>
<path d="M186.89 153.698C187.521 153.326 188.013 152.757 188.289 152.078C188.565 151.4 188.61 150.649 188.417 149.942C188.225 149.235 187.805 148.611 187.223 148.166C186.64 147.721 185.928 147.48 185.195 147.48C184.462 147.48 183.75 147.721 183.168 148.166C182.585 148.611 182.165 149.235 181.973 149.942C181.78 150.649 181.825 151.4 182.101 152.078C182.377 152.757 182.869 153.326 183.5 153.698V153.698C182.589 154.043 181.804 154.658 181.25 155.46C180.696 156.262 180.4 157.214 180.4 158.188C180.398 158.463 180.421 158.738 180.47 159.008C181.889 159.897 183.53 160.369 185.205 160.369C186.88 160.369 188.521 159.897 189.94 159.008C189.989 158.738 190.012 158.463 190.01 158.188C190.01 157.211 189.711 156.257 189.154 155.454C188.596 154.652 187.806 154.039 186.89 153.698V153.698Z" fill="white"/>
<path opacity="0.3" d="M227.73 149.558H202.14C201.984 149.558 201.83 149.527 201.686 149.467C201.542 149.408 201.412 149.32 201.302 149.209C201.192 149.098 201.106 148.967 201.047 148.823C200.988 148.679 200.959 148.524 200.96 148.368V148.368C200.96 148.054 201.084 147.753 201.305 147.53C201.526 147.307 201.826 147.181 202.14 147.178H227.73C228.044 147.181 228.344 147.307 228.565 147.53C228.786 147.753 228.91 148.054 228.91 148.368V148.368C228.911 148.524 228.882 148.679 228.823 148.823C228.764 148.967 228.678 149.098 228.568 149.209C228.458 149.32 228.328 149.408 228.184 149.467C228.04 149.527 227.886 149.558 227.73 149.558V149.558Z" fill="black"/>
<path opacity="0.3" d="M257.73 154.648H202.14C201.827 154.648 201.527 154.524 201.306 154.302C201.084 154.081 200.96 153.781 200.96 153.468V153.468C200.959 153.312 200.988 153.158 201.047 153.013C201.106 152.869 201.192 152.738 201.302 152.627C201.412 152.517 201.542 152.429 201.686 152.369C201.83 152.309 201.984 152.278 202.14 152.278H257.73C257.886 152.278 258.04 152.309 258.184 152.369C258.328 152.429 258.458 152.517 258.568 152.627C258.678 152.738 258.764 152.869 258.823 153.013C258.882 153.158 258.911 153.312 258.91 153.468V153.468C258.91 153.623 258.88 153.776 258.82 153.92C258.761 154.063 258.674 154.193 258.564 154.302C258.455 154.412 258.325 154.499 258.182 154.558C258.038 154.618 257.885 154.648 257.73 154.648V154.648Z" fill="black"/>
<path d="M172.74 195.228H318.49" stroke="#263238" stroke-linecap="round" stroke-linejoin="round"/>
<path opacity="0.3" d="M194.06 180.678C194.06 182.44 193.537 184.163 192.558 185.628C191.579 187.093 190.188 188.235 188.56 188.91C186.932 189.584 185.14 189.761 183.412 189.417C181.683 189.073 180.096 188.224 178.85 186.978C177.604 185.732 176.755 184.145 176.411 182.416C176.067 180.688 176.244 178.896 176.918 177.268C177.593 175.64 178.735 174.249 180.2 173.27C181.665 172.291 183.388 171.768 185.15 171.768C186.32 171.767 187.48 171.996 188.561 172.444C189.643 172.891 190.626 173.547 191.453 174.375C192.281 175.202 192.937 176.185 193.384 177.267C193.832 178.348 194.061 179.508 194.06 180.678V180.678Z" fill="black"/>
<path d="M186.89 182.908C187.521 182.536 188.013 181.967 188.289 181.288C188.565 180.609 188.61 179.859 188.417 179.152C188.225 178.445 187.805 177.821 187.223 177.376C186.64 176.931 185.928 176.69 185.195 176.69C184.462 176.69 183.75 176.931 183.168 177.376C182.585 177.821 182.165 178.445 181.973 179.152C181.78 179.859 181.825 180.609 182.101 181.288C182.377 181.967 182.869 182.536 183.5 182.908V182.908C182.589 183.253 181.804 183.868 181.25 184.67C180.696 185.472 180.4 186.423 180.4 187.398C180.398 187.673 180.421 187.948 180.47 188.218C181.889 189.107 183.53 189.579 185.205 189.579C186.88 189.579 188.521 189.107 189.94 188.218C189.989 187.948 190.012 187.673 190.01 187.398C190.01 186.421 189.711 185.467 189.154 184.664C188.596 183.862 187.806 183.249 186.89 182.908V182.908Z" fill="white"/>
<path opacity="0.3" d="M227.73 178.718H202.14C201.984 178.718 201.83 178.687 201.686 178.627C201.542 178.567 201.412 178.48 201.302 178.369C201.192 178.258 201.106 178.127 201.047 177.983C200.988 177.838 200.959 177.684 200.96 177.528V177.528C200.96 177.215 201.084 176.915 201.306 176.694C201.527 176.472 201.827 176.348 202.14 176.348H227.73C227.886 176.351 228.04 176.384 228.182 176.447C228.325 176.509 228.454 176.599 228.562 176.711C228.67 176.824 228.755 176.957 228.811 177.102C228.867 177.247 228.894 177.402 228.89 177.558V177.558C228.885 177.864 228.761 178.156 228.545 178.373C228.328 178.589 228.036 178.713 227.73 178.718V178.718Z" fill="black"/>
<path opacity="0.3" d="M257.73 183.858H202.14C201.984 183.858 201.83 183.827 201.686 183.767C201.542 183.708 201.412 183.62 201.302 183.509C201.192 183.398 201.106 183.267 201.047 183.123C200.988 182.979 200.959 182.824 200.96 182.668V182.668C200.96 182.354 201.084 182.053 201.305 181.83C201.526 181.607 201.826 181.481 202.14 181.478H257.73C258.044 181.481 258.344 181.607 258.565 181.83C258.786 182.053 258.91 182.354 258.91 182.668V182.668C258.911 182.824 258.882 182.979 258.823 183.123C258.764 183.267 258.678 183.398 258.568 183.509C258.458 183.62 258.328 183.708 258.184 183.767C258.04 183.827 257.886 183.858 257.73 183.858V183.858Z" fill="black"/>
<path d="M172.74 224.438H318.49" stroke="#263238" stroke-linecap="round" stroke-linejoin="round"/>
<path opacity="0.3" d="M194.06 209.878C194.06 211.641 193.537 213.363 192.558 214.828C191.579 216.294 190.188 217.436 188.56 218.11C186.932 218.784 185.14 218.961 183.412 218.617C181.683 218.273 180.096 217.425 178.85 216.179C177.604 214.933 176.755 213.345 176.411 211.617C176.067 209.888 176.244 208.097 176.918 206.469C177.593 204.84 178.735 203.449 180.2 202.47C181.665 201.491 183.388 200.968 185.15 200.968C186.32 200.967 187.48 201.197 188.561 201.644C189.643 202.091 190.626 202.747 191.453 203.575C192.281 204.403 192.937 205.385 193.384 206.467C193.832 207.549 194.061 208.708 194.06 209.878V209.878Z" fill="black"/>
<path d="M186.89 212.108C187.521 211.736 188.013 211.167 188.289 210.488C188.565 209.809 188.61 209.059 188.417 208.352C188.225 207.645 187.805 207.021 187.223 206.576C186.64 206.131 185.928 205.89 185.195 205.89C184.462 205.89 183.75 206.131 183.168 206.576C182.585 207.021 182.165 207.645 181.973 208.352C181.78 209.059 181.825 209.809 182.101 210.488C182.377 211.167 182.869 211.736 183.5 212.108V212.108C182.589 212.453 181.804 213.068 181.25 213.87C180.696 214.672 180.4 215.623 180.4 216.598C180.398 216.873 180.421 217.148 180.47 217.418C181.889 218.307 183.53 218.779 185.205 218.779C186.88 218.779 188.521 218.307 189.94 217.418C189.989 217.148 190.012 216.873 190.01 216.598C190.01 215.621 189.711 214.667 189.154 213.864C188.596 213.062 187.806 212.449 186.89 212.108V212.108Z" fill="white"/>
<path opacity="0.3" d="M227.73 207.928H202.14C201.826 207.925 201.526 207.799 201.305 207.576C201.084 207.353 200.96 207.052 200.96 206.738C200.959 206.582 200.988 206.428 201.047 206.283C201.106 206.139 201.192 206.008 201.302 205.897C201.412 205.787 201.542 205.699 201.686 205.639C201.83 205.579 201.984 205.548 202.14 205.548H227.73C227.886 205.548 228.04 205.579 228.184 205.639C228.328 205.699 228.458 205.787 228.568 205.897C228.678 206.008 228.764 206.139 228.823 206.283C228.882 206.428 228.911 206.582 228.91 206.738V206.738C228.91 207.052 228.786 207.353 228.565 207.576C228.344 207.799 228.044 207.925 227.73 207.928Z" fill="black"/>
<path opacity="0.3" d="M257.73 213.058H202.14C201.827 213.058 201.527 212.934 201.306 212.713C201.084 212.491 200.96 212.191 200.96 211.878V211.878C200.959 211.722 200.988 211.568 201.047 211.424C201.106 211.279 201.192 211.148 201.302 211.037C201.412 210.927 201.542 210.839 201.686 210.779C201.83 210.719 201.984 210.688 202.14 210.688H257.73C257.886 210.688 258.04 210.719 258.184 210.779C258.328 210.839 258.458 210.927 258.568 211.037C258.678 211.148 258.764 211.279 258.823 211.424C258.882 211.568 258.911 211.722 258.91 211.878V211.878C258.91 212.033 258.88 212.187 258.82 212.33C258.761 212.473 258.674 212.603 258.564 212.713C258.455 212.822 258.325 212.909 258.182 212.968C258.038 213.028 257.885 213.058 257.73 213.058V213.058Z" fill="black"/>
<path d="M172.74 253.638H318.49" stroke="#263238" stroke-linecap="round" stroke-linejoin="round"/>
<path opacity="0.3" d="M194.06 239.078C194.06 240.84 193.537 242.563 192.558 244.028C191.579 245.494 190.188 246.636 188.56 247.31C186.932 247.984 185.14 248.161 183.412 247.817C181.683 247.473 180.096 246.625 178.85 245.379C177.604 244.132 176.755 242.545 176.411 240.816C176.067 239.088 176.244 237.297 176.918 235.669C177.593 234.04 178.735 232.649 180.2 231.67C181.665 230.691 183.388 230.168 185.15 230.168C186.32 230.167 187.48 230.396 188.561 230.844C189.643 231.291 190.626 231.947 191.453 232.775C192.281 233.603 192.937 234.585 193.384 235.667C193.832 236.749 194.061 237.908 194.06 239.078V239.078Z" fill="black"/>
<path d="M186.89 241.308C187.521 240.936 188.013 240.367 188.289 239.688C188.565 239.01 188.61 238.259 188.417 237.552C188.225 236.845 187.805 236.221 187.223 235.776C186.64 235.331 185.928 235.09 185.195 235.09C184.462 235.09 183.75 235.331 183.168 235.776C182.585 236.221 182.165 236.845 181.973 237.552C181.78 238.259 181.825 239.01 182.101 239.688C182.377 240.367 182.869 240.936 183.5 241.308V241.308C182.589 241.653 181.804 242.268 181.25 243.07C180.696 243.872 180.4 244.824 180.4 245.798C180.398 246.073 180.421 246.348 180.47 246.618C181.889 247.507 183.53 247.979 185.205 247.979C186.88 247.979 188.521 247.507 189.94 246.618C189.989 246.348 190.012 246.073 190.01 245.798C190.01 244.821 189.711 243.867 189.154 243.064C188.596 242.262 187.806 241.649 186.89 241.308V241.308Z" fill="white"/>
<path opacity="0.3" d="M227.73 237.128H202.14C201.984 237.128 201.83 237.097 201.686 237.038C201.542 236.978 201.412 236.89 201.302 236.779C201.192 236.669 201.106 236.537 201.047 236.393C200.988 236.249 200.959 236.094 200.96 235.938V235.938C200.96 235.625 201.084 235.325 201.306 235.104C201.527 234.883 201.827 234.758 202.14 234.758H227.73C228.043 234.758 228.343 234.883 228.564 235.104C228.786 235.325 228.91 235.625 228.91 235.938V235.938C228.911 236.094 228.882 236.249 228.823 236.393C228.764 236.537 228.678 236.669 228.568 236.779C228.458 236.89 228.328 236.978 228.184 237.038C228.04 237.097 227.886 237.128 227.73 237.128V237.128Z" fill="black"/>
<path opacity="0.3" d="M257.73 242.268H202.14C201.826 242.266 201.526 242.139 201.305 241.916C201.084 241.693 200.96 241.392 200.96 241.078V241.078C200.959 240.922 200.988 240.768 201.047 240.624C201.106 240.479 201.192 240.348 201.302 240.237C201.412 240.127 201.542 240.039 201.686 239.979C201.83 239.919 201.984 239.888 202.14 239.888H257.73C257.886 239.888 258.04 239.919 258.184 239.979C258.328 240.039 258.458 240.127 258.568 240.237C258.678 240.348 258.764 240.479 258.823 240.624C258.882 240.768 258.911 240.922 258.91 241.078V241.078C258.91 241.392 258.786 241.693 258.565 241.916C258.344 242.139 258.044 242.266 257.73 242.268Z" fill="black"/>
<path d="M172.74 282.848H318.49" stroke="#263238" stroke-linecap="round" stroke-linejoin="round"/>
<path opacity="0.3" d="M194.06 268.288C194.06 270.05 193.537 271.773 192.558 273.238C191.579 274.704 190.188 275.846 188.56 276.52C186.932 277.194 185.14 277.371 183.412 277.027C181.683 276.683 180.096 275.835 178.85 274.589C177.604 273.342 176.755 271.755 176.411 270.026C176.067 268.298 176.244 266.507 176.918 264.878C177.593 263.25 178.735 261.859 180.2 260.88C181.665 259.901 183.388 259.378 185.15 259.378C186.32 259.377 187.48 259.606 188.561 260.054C189.643 260.501 190.626 261.157 191.453 261.985C192.281 262.813 192.937 263.795 193.384 264.877C193.832 265.959 194.061 267.118 194.06 268.288V268.288Z" fill="black"/>
<path d="M186.89 270.558C187.521 270.186 188.013 269.617 188.289 268.938C188.565 268.26 188.61 267.509 188.417 266.802C188.225 266.095 187.805 265.471 187.223 265.026C186.64 264.581 185.928 264.34 185.195 264.34C184.462 264.34 183.75 264.581 183.168 265.026C182.585 265.471 182.165 266.095 181.973 266.802C181.78 267.509 181.825 268.26 182.101 268.938C182.377 269.617 182.869 270.186 183.5 270.558V270.558C182.589 270.903 181.804 271.518 181.25 272.32C180.696 273.122 180.4 274.074 180.4 275.048C180.398 275.323 180.421 275.598 180.47 275.868C181.889 276.757 183.53 277.229 185.205 277.229C186.88 277.229 188.521 276.757 189.94 275.868C189.989 275.598 190.012 275.323 190.01 275.048C190.01 274.071 189.711 273.117 189.154 272.314C188.596 271.512 187.806 270.899 186.89 270.558V270.558Z" fill="white"/>
<path opacity="0.3" d="M227.73 266.328H202.14C201.827 266.328 201.527 266.204 201.306 265.983C201.084 265.761 200.96 265.461 200.96 265.148V265.148C200.959 264.992 200.988 264.838 201.047 264.694C201.106 264.549 201.192 264.418 201.302 264.307C201.412 264.197 201.542 264.109 201.686 264.049C201.83 263.989 201.984 263.958 202.14 263.958H227.73C227.886 263.958 228.04 263.989 228.184 264.049C228.328 264.109 228.458 264.197 228.568 264.307C228.678 264.418 228.764 264.549 228.823 264.694C228.882 264.838 228.911 264.992 228.91 265.148V265.148C228.91 265.461 228.786 265.761 228.564 265.983C228.343 266.204 228.043 266.328 227.73 266.328V266.328Z" fill="black"/>
<path opacity="0.3" d="M257.73 271.468H202.14C201.984 271.468 201.83 271.437 201.686 271.377C201.542 271.317 201.412 271.23 201.302 271.119C201.192 271.008 201.106 270.877 201.047 270.733C200.988 270.588 200.959 270.434 200.96 270.278V270.278C200.96 269.965 201.084 269.665 201.306 269.444C201.527 269.222 201.827 269.098 202.14 269.098H257.73C258.043 269.098 258.343 269.222 258.564 269.444C258.786 269.665 258.91 269.965 258.91 270.278V270.278C258.911 270.434 258.882 270.588 258.823 270.733C258.764 270.877 258.678 271.008 258.568 271.119C258.458 271.23 258.328 271.317 258.184 271.377C258.04 271.437 257.886 271.468 257.73 271.468V271.468Z" fill="black"/>
<path d="M305.15 98.2982C307.691 98.2982 309.75 96.2387 309.75 93.6982C309.75 91.1576 307.691 89.0981 305.15 89.0981C302.61 89.0981 300.55 91.1576 300.55 93.6982C300.55 96.2387 302.61 98.2982 305.15 98.2982Z" fill="#407BFF"/>
<path d="M305.89 91.7183V96.1783H304.89V92.5583H303.99V91.7383L305.89 91.7183Z" fill="white"/>
<path d="M305.15 126.858C307.691 126.858 309.75 124.799 309.75 122.258C309.75 119.718 307.691 117.658 305.15 117.658C302.61 117.658 300.55 119.718 300.55 122.258C300.55 124.799 302.61 126.858 305.15 126.858Z" fill="#407BFF"/>
<path d="M307.29 123.808H306.56V124.738H305.56V123.808H303.16V123.108L305.26 120.278H306.35L304.4 122.958H305.59V122.128H306.59V122.958H307.32L307.29 123.808Z" fill="white"/>
<path d="M305.15 155.428C307.691 155.428 309.75 153.369 309.75 150.828C309.75 148.288 307.691 146.228 305.15 146.228C302.61 146.228 300.55 148.288 300.55 150.828C300.55 153.369 302.61 155.428 305.15 155.428Z" fill="#407BFF"/>
<path d="M306.89 152.458V153.308H303.52V152.638L305.24 151.008C305.63 150.628 305.7 150.398 305.7 150.188C305.7 149.978 305.46 149.628 304.99 149.628C304.81 149.622 304.632 149.66 304.47 149.738C304.307 149.817 304.167 149.934 304.06 150.078L303.31 149.588C303.515 149.316 303.784 149.098 304.092 148.954C304.401 148.809 304.74 148.742 305.08 148.758C306.08 148.758 306.74 149.268 306.74 150.078C306.735 150.355 306.665 150.626 306.536 150.871C306.408 151.115 306.224 151.327 306 151.488L305 152.488L306.89 152.458Z" fill="white"/>
<path d="M305.15 183.988C307.691 183.988 309.75 181.929 309.75 179.388C309.75 176.848 307.691 174.788 305.15 174.788C302.61 174.788 300.55 176.848 300.55 179.388C300.55 181.929 302.61 183.988 305.15 183.988Z" fill="#407BFF"/>
<path d="M305.89 177.398V181.868H304.89V178.228H304V177.398H305.89Z" fill="white"/>
<path d="M305.15 212.548C307.691 212.548 309.75 210.489 309.75 207.948C309.75 205.408 307.691 203.348 305.15 203.348C302.61 203.348 300.55 205.408 300.55 207.948C300.55 210.489 302.61 212.548 305.15 212.548Z" fill="#407BFF"/>
<path d="M305.89 205.968V210.428H304.89V206.788H304V205.968H305.89Z" fill="white"/>
<path d="M192.65 69.5782C195.191 69.5782 197.25 67.5187 197.25 64.9782C197.25 62.4377 195.191 60.3782 192.65 60.3782C190.11 60.3782 188.05 62.4377 188.05 64.9782C188.05 67.5187 190.11 69.5782 192.65 69.5782Z" fill="white"/>
<path d="M194.43 65.1383C194.464 65.4514 194.429 65.7682 194.328 66.0667C194.227 66.3651 194.063 66.638 193.846 66.8663C193.629 67.0947 193.365 67.2731 193.072 67.3891C192.779 67.5052 192.465 67.5561 192.15 67.5383C191.719 67.5501 191.294 67.4429 190.92 67.2283L191.3 66.4683C191.546 66.6296 191.836 66.71 192.13 66.6983C192.302 66.7092 192.474 66.6827 192.634 66.6206C192.795 66.5586 192.94 66.4624 193.06 66.3389C193.18 66.2153 193.271 66.0672 193.328 65.9048C193.385 65.7424 193.406 65.5696 193.39 65.3983C193.241 65.5356 193.066 65.6417 192.875 65.7104C192.685 65.7791 192.482 65.8089 192.28 65.7983C192.086 65.8147 191.891 65.7912 191.707 65.7292C191.522 65.6671 191.353 65.5678 191.208 65.4375C191.064 65.3072 190.948 65.1486 190.867 64.9715C190.787 64.7945 190.743 64.6028 190.74 64.4083C190.746 64.197 190.795 63.9892 190.885 63.7978C190.974 63.6064 191.102 63.4355 191.261 63.2957C191.42 63.156 191.605 63.0503 191.806 62.9854C192.007 62.9205 192.22 62.8976 192.43 62.9183C193.67 62.9183 194.43 63.6883 194.43 65.1383ZM193.28 64.3583C193.28 63.9683 192.99 63.6883 192.5 63.6883C192.322 63.6883 192.152 63.7589 192.026 63.8845C191.901 64.0102 191.83 64.1806 191.83 64.3583C191.83 64.536 191.901 64.7064 192.026 64.832C192.152 64.9577 192.322 65.0283 192.5 65.0283C192.596 65.0394 192.693 65.0305 192.786 65.0022C192.878 64.9739 192.963 64.9268 193.037 64.8639C193.11 64.801 193.169 64.7236 193.211 64.6365C193.253 64.5495 193.277 64.4548 193.28 64.3583V64.3583Z" fill="#263238"/>
<path d="M246.89 310.098H244.35C243.279 310.098 242.41 310.967 242.41 312.038V314.578C242.41 315.65 243.279 316.518 244.35 316.518H246.89C247.961 316.518 248.83 315.65 248.83 314.578V312.038C248.83 310.967 247.961 310.098 246.89 310.098Z" stroke="white" stroke-miterlimit="10"/>
<path opacity="0.6" d="M245.59 25.5581C245.59 25.9972 245.46 26.4264 245.216 26.7915C244.972 27.1566 244.625 27.4411 244.22 27.6091C243.814 27.7772 243.368 27.8211 242.937 27.7355C242.506 27.6498 242.111 27.4384 241.8 27.1279C241.49 26.8174 241.278 26.4219 241.193 25.9912C241.107 25.5606 241.151 25.1142 241.319 24.7086C241.487 24.3029 241.772 23.9562 242.137 23.7123C242.502 23.4683 242.931 23.3381 243.37 23.3381C243.959 23.3381 244.523 23.572 244.94 23.9884C245.356 24.4047 245.59 24.9694 245.59 25.5581Z" fill="black"/>
<path opacity="0.6" d="M250.09 25.5582C250.092 25.8415 250.01 26.1189 249.854 26.3554C249.698 26.5919 249.475 26.7767 249.214 26.8865C248.953 26.9962 248.665 27.026 248.387 26.972C248.109 26.9179 247.853 26.7825 247.652 26.5829C247.451 26.3833 247.314 26.1286 247.258 25.8509C247.202 25.5732 247.23 25.2852 247.338 25.0233C247.446 24.7614 247.629 24.5375 247.865 24.3799C248.1 24.2223 248.377 24.1382 248.66 24.1382C248.847 24.1369 249.033 24.1726 249.207 24.2434C249.38 24.3142 249.538 24.4186 249.671 24.5506C249.804 24.6826 249.909 24.8395 249.981 25.0125C250.053 25.1854 250.09 25.3709 250.09 25.5582V25.5582Z" fill="black"/>
<path opacity="0.2" d="M319.89 25.1882L164.67 180.428V28.7482C164.653 28.2977 164.724 27.8482 164.881 27.4254C165.037 27.0026 165.275 26.6147 165.582 26.2841C165.888 25.9534 166.257 25.6865 166.667 25.4984C167.077 25.3104 167.52 25.205 167.97 25.1882H206.4C206.939 25.1962 207.463 25.3652 207.905 25.6735C208.347 25.9818 208.686 26.4153 208.88 26.9182L210.47 30.8282C210.664 31.3274 211.003 31.7571 211.443 32.0619C211.883 32.3666 212.405 32.5326 212.94 32.5382H278.37C278.911 32.5478 279.442 32.3921 279.892 32.0919C280.343 31.7917 280.691 31.3614 280.89 30.8582L282.49 26.9182C282.682 26.4161 283.02 25.9829 283.46 25.6746C283.9 25.3662 284.423 25.1968 284.96 25.1882H319.89Z" fill="white"/>
<path opacity="0.2" d="M326.56 38.1982V59.7882L164.67 221.678V200.078L326.56 38.1982Z" fill="white"/>
<path d="M44.1 330.888H45.73L56.27 236.808L52.78 237.318L44.1 330.888Z" fill="#263238"/>
<path d="M103.66 237.318L100.17 236.808L110.7 330.888H112.34L103.66 237.318Z" fill="#263238"/>
<g opacity="0.1">
<path opacity="0.1" d="M51.58 250.308L44.1 330.888H45.73L54.76 250.308H51.58Z" fill="white"/>
<path opacity="0.1" d="M101.68 250.308L110.7 330.888H112.34L104.86 250.308H101.68Z" fill="white"/>
</g>
<path d="M112.34 330.888L93.63 275.448L103.63 237.318L100.14 236.808L91.97 270.608L80.56 236.808L78.19 237.158L75.81 236.808L64.41 270.608L56.24 236.808L52.75 237.318L62.75 275.448L44.04 330.888H45.67L63.94 280.008L77.32 330.888H79L92.37 280.008L110.64 330.888H112.34ZM78.22 327.608L65.62 275.498L78.22 240.428L90.81 275.498L78.22 327.608Z" fill="#263238"/>
<path d="M53.66 228.088H102.78C103.751 228.088 104.682 228.474 105.368 229.16C106.054 229.847 106.44 230.777 106.44 231.748V238.368H50V231.748C50 230.777 50.3856 229.847 51.072 229.16C51.7584 228.474 52.6893 228.088 53.66 228.088Z" fill="#263238"/>
<path d="M49.23 234.418H107.23C107.511 234.418 107.781 234.53 107.98 234.728C108.178 234.927 108.29 235.197 108.29 235.478V239.168C108.29 239.446 108.179 239.714 107.982 239.91C107.786 240.107 107.518 240.218 107.24 240.218H49.24C48.9615 240.218 48.6944 240.107 48.4975 239.91C48.3006 239.714 48.19 239.446 48.19 239.168V235.478C48.19 235.2 48.2989 234.934 48.4934 234.735C48.6878 234.537 48.9523 234.423 49.23 234.418V234.418Z" fill="#263238"/>
<path opacity="0.5" d="M49.23 234.418H107.23C107.511 234.418 107.781 234.53 107.98 234.728C108.178 234.927 108.29 235.197 108.29 235.478V239.168C108.29 239.446 108.179 239.714 107.982 239.91C107.786 240.107 107.518 240.218 107.24 240.218H49.24C48.9615 240.218 48.6944 240.107 48.4975 239.91C48.3006 239.714 48.19 239.446 48.19 239.168V235.478C48.19 235.2 48.2989 234.934 48.4934 234.735C48.6878 234.537 48.9523 234.423 49.23 234.418V234.418Z" fill="white"/>
<path opacity="0.3" d="M101.98 243.718L98.48 243.788L92 270.608L83 243.958H79.49L90.81 275.488L78.22 327.598L65.62 275.488L76.95 243.958H73.44L64.44 270.628L57.89 243.558C56.66 243.498 55.48 243.428 54.36 243.348L62.81 275.488L44.1 330.928H45.73L64 280.048L77.38 330.928H79.06L92.43 280.048L110.7 330.928H112.34L93.63 275.488L101.98 243.718Z" fill="white"/>
<path d="M154.58 97.9679C153.58 97.4779 145.46 100.258 144.35 101.028C143.24 101.798 143 104.358 143 104.358L134.28 114.768C125.4 126.438 96.34 128.398 96.34 128.398L97.34 137.858C97.34 137.858 128.53 133.248 137.05 120.668L146.56 107.358C147.33 107.428 154.74 105.828 156.08 104.788C157.42 103.748 155.63 98.4479 154.58 97.9679Z" fill="#EEC1BB"/>
<path d="M67.89 140.768C67.89 140.768 60.28 161.028 54.55 163.898C46.89 167.728 33.55 147.238 33.55 147.238L37.47 145.008C37.47 145.008 48.39 156.518 51.53 155.198C54.67 153.878 58.42 138.968 58.42 138.968L67.89 140.768Z" fill="#EEC1BB"/>
<path d="M58.68 136.228C58.68 136.228 67.25 138.548 68.89 145.868L62.65 155.758L52.28 152.558C52.28 152.558 56.2 137.158 58.68 136.228Z" fill="#263238"/>
<path d="M100.74 126.068C103.74 125.228 110.23 125.358 110.23 125.848C110.23 126.338 107.31 137.488 107.31 137.488L99 143.428L100.74 126.068Z" fill="#263238"/>
<path d="M59.73 108.348C59.73 108.348 58.26 122.178 63.38 125.578C68.5 128.978 93.71 124.998 96.57 119.428C99.43 113.858 88.67 98.7581 88.67 98.7581L59.73 108.348Z" fill="#263238"/>
<path d="M167.11 290.208L160.54 291.798L157.21 282.718L154.19 274.458L161.68 271.268L164.56 281.288L167.11 290.208Z" fill="#EEC1BB"/>
<path opacity="0.2" d="M164.56 281.288L157.21 282.718L154.19 274.458L161.68 271.268L164.56 281.288Z" fill="black"/>
<path d="M163.89 276.498L154.77 279.888C154.77 279.888 130.44 219.058 125.44 218.888C120.44 218.718 69.53 242.078 56.77 229.098C44.01 216.118 62.46 184.858 62.46 184.858C62.46 184.858 93.15 180.478 95.46 187.408C96.0285 189.451 96.4628 191.529 96.76 193.628C97.11 195.748 97.35 197.528 97.35 197.528C98.3 197.288 129.11 189.338 141.25 197.528C153.61 205.828 163.89 276.498 163.89 276.498Z" fill="#407BFF"/>
<path d="M111.44 316.158L104.89 314.488L106.15 305.078L107.32 296.458L115.42 297.188L113.32 307.238L111.44 316.158Z" fill="#EEC1BB"/>
<path opacity="0.2" d="M113.27 307.438L106.1 305.258L107.3 296.548L115.41 297.238L113.27 307.438Z" fill="black"/>
<path d="M151.01 276.508L164.29 271.998L164.86 277.438L154.79 280.998L151.01 276.508Z" fill="#263238"/>
<path d="M78.82 232.178C78.82 232.178 80.9 232.228 113.09 230.728C113.09 230.728 108.27 270.968 105.65 301.098L115.28 302.738C115.28 302.738 138.28 238.228 138.03 227.978C137.78 217.728 126.03 214.728 126.03 214.728C126.03 214.728 103.09 227.978 78.82 232.178Z" fill="#407BFF"/>
<path opacity="0.2" d="M78.82 232.178C78.82 232.178 80.9 232.228 113.09 230.728C113.09 230.728 108.27 270.968 105.65 301.098L115.28 302.738C115.28 302.738 138.28 238.228 138.03 227.978C137.78 217.728 126.03 214.728 126.03 214.728C126.03 214.728 103.09 227.978 78.82 232.178Z" fill="black"/>
<path d="M104.24 298.178L117.47 299.688L114.92 304.868L104.21 303.498L104.24 298.178Z" fill="#263238"/>
<path opacity="0.2" d="M97.36 197.488L79.41 201.228C79.41 201.228 89.33 195.748 96.77 193.588C97.12 195.708 97.36 197.488 97.36 197.488Z" fill="black"/>
<path d="M63.21 180.048L62.47 184.818L95.47 187.368L96.34 181.718L63.21 180.048Z" fill="black"/>
<path d="M74.4561 179.734L72.8247 179.566L71.9707 187.872L73.6021 188.04L74.4561 179.734Z" fill="#407BFF"/>
<path d="M88.6057 181.724L81.3807 181.259L81.0283 186.738L88.2534 187.203L88.6057 181.724Z" fill="white"/>
<path d="M94.7488 180.612L93.1174 180.444L92.2635 188.75L93.8949 188.918L94.7488 180.612Z" fill="#407BFF"/>
<path d="M178 302.988C177.002 302.525 175.928 302.251 174.83 302.178V302.178C174.83 302.178 171.03 299.948 167.27 291.258H163.03C162.314 291.265 161.619 291.493 161.037 291.91C160.455 292.327 160.016 292.913 159.78 293.588C159.709 293.774 159.669 293.97 159.66 294.168C159.7 295.191 159.81 296.21 159.99 297.218C160.609 300.599 161.434 303.938 162.46 307.218L163.18 307.038L161.89 300.658C161.46 298.518 163.72 300.588 164.76 302.748C165.8 304.908 167.41 307.098 172.09 306.028C177.51 304.748 179.71 303.968 178 302.988Z" fill="#407BFF"/>
<path d="M166.5 288.988C166.5 288.988 171.78 300.048 174.83 302.178C174.83 302.178 170.75 304.608 166.5 299.178C161.01 292.178 159.66 294.128 159.66 294.128C159.77 292.92 159.991 291.725 160.32 290.558C161.15 288.318 166.5 288.988 166.5 288.988Z" fill="#EEC1BB"/>
<path d="M119.78 329.338C118.916 328.657 117.937 328.135 116.89 327.798V327.798C116.89 327.798 113.73 324.728 112.13 315.398L108.03 314.398C107.331 314.238 106.6 314.296 105.935 314.564C105.27 314.832 104.703 315.298 104.31 315.898C104.2 316.064 104.116 316.247 104.06 316.438C103.86 317.428 103.723 318.43 103.65 319.438C103.443 322.855 103.443 326.281 103.65 329.698H104.39L104.62 323.258C104.71 321.068 106.41 323.618 106.91 325.968C107.41 328.318 108.46 330.808 113.25 330.878C118.89 330.938 121.21 330.698 119.78 329.338Z" fill="#407BFF"/>
<path d="M111.89 313.008C111.89 313.008 114.4 325.008 116.89 327.798C116.89 327.798 112.35 329.198 109.5 322.928C105.83 314.828 104.06 316.408 104.06 316.408C104.451 315.26 104.949 314.152 105.55 313.098C106.89 311.098 111.89 313.008 111.89 313.008Z" fill="#EEC1BB"/>
<path d="M89.5 102.498C89.5 102.498 87.64 80.558 69.3 88.498C46.3 98.498 64.58 125.238 75.83 119.748C87.08 114.258 89.5 102.498 89.5 102.498Z" fill="#263238"/>
<path d="M62.75 138.458C64.06 145.788 65.47 159.708 63.12 180.358L96.47 182.218C96.47 182.218 102.53 142.838 100.74 126.068C99.4661 126.18 98.2045 126.404 96.97 126.738C87.3525 129.055 77.5906 130.725 67.75 131.738C66.9676 131.821 66.2109 132.065 65.5274 132.455C64.844 132.845 64.2487 133.372 63.7791 134.004C63.3094 134.635 62.9755 135.357 62.7984 136.123C62.6213 136.89 62.6048 137.685 62.75 138.458V138.458Z" fill="#263238"/>
<path d="M86.89 130.558C86.5672 130.4 86.2329 130.266 85.89 130.158C85.11 129.578 84.13 128.158 84.07 124.598C84.0563 123.203 84.1432 121.81 84.33 120.428L74.4 118.888C74.4 118.888 77.97 125.428 75.31 130.448C74.31 130.898 73.71 131.548 73.93 132.328C74.93 135.798 85.51 139.708 85.51 139.708C85.51 139.708 92.95 133.648 86.89 130.558Z" fill="#EEC1BB"/>
<path opacity="0.2" d="M84.31 120.428C84.1232 121.81 84.0363 123.203 84.05 124.598C77.38 124.798 74.38 118.888 74.38 118.888L84.31 120.428Z" fill="black"/>
<path d="M91.05 118.788C90.2129 118.785 89.3953 118.534 88.7 118.068C88.2366 117.76 87.8395 117.363 87.5321 116.899C87.2247 116.435 87.0132 115.915 86.91 115.368C86.7499 114.561 86.8283 113.724 87.1355 112.961C87.4427 112.197 87.9654 111.539 88.64 111.068C88.7227 111.014 88.8232 110.994 88.9203 111.012C89.0174 111.031 89.1034 111.087 89.16 111.168C89.1887 111.208 89.2091 111.253 89.2201 111.301C89.2311 111.349 89.2324 111.398 89.224 111.447C89.2156 111.495 89.1977 111.541 89.1713 111.583C89.1448 111.624 89.1104 111.66 89.07 111.688C88.364 112.18 87.8654 112.916 87.6705 113.754C87.4755 114.593 87.598 115.473 88.0143 116.226C88.4307 116.98 89.1113 117.552 89.9248 117.832C90.7382 118.113 91.6269 118.083 92.4191 117.746C93.2113 117.41 93.8509 116.793 94.2143 116.013C94.5778 115.233 94.6394 114.346 94.3871 113.523C94.1349 112.7 93.5868 112 92.8486 111.558C92.1104 111.115 91.2345 110.962 90.39 111.128C90.3421 111.138 90.2926 111.139 90.2444 111.13C90.1962 111.121 90.1503 111.102 90.1094 111.075C90.0684 111.048 90.0333 111.013 90.0059 110.972C89.9785 110.932 89.9595 110.886 89.95 110.838C89.9292 110.74 89.948 110.637 90.0023 110.553C90.0566 110.469 90.1421 110.409 90.24 110.388C91.3433 110.17 92.4878 110.4 93.4218 111.027C94.3557 111.653 95.0025 112.625 95.22 113.728C95.4375 114.831 95.2078 115.976 94.5814 116.91C93.955 117.844 92.9833 118.49 91.88 118.708C91.6063 118.759 91.3285 118.786 91.05 118.788V118.788Z" fill="#407BFF"/>
<g opacity="0.5">
<path opacity="0.5" d="M91.05 118.788C90.2129 118.785 89.3953 118.534 88.7 118.068C88.2366 117.76 87.8395 117.363 87.5321 116.899C87.2247 116.435 87.0132 115.915 86.91 115.368C86.7499 114.561 86.8283 113.724 87.1355 112.961C87.4427 112.197 87.9654 111.539 88.64 111.068C88.7227 111.014 88.8232 110.994 88.9203 111.012C89.0174 111.031 89.1034 111.087 89.16 111.168C89.1887 111.208 89.2091 111.253 89.2201 111.301C89.2311 111.349 89.2324 111.398 89.224 111.447C89.2156 111.495 89.1977 111.541 89.1713 111.583C89.1448 111.624 89.1104 111.66 89.07 111.688C88.364 112.18 87.8654 112.916 87.6705 113.754C87.4755 114.593 87.598 115.473 88.0143 116.226C88.4307 116.98 89.1113 117.552 89.9248 117.832C90.7382 118.113 91.6269 118.083 92.4191 117.746C93.2113 117.41 93.8509 116.793 94.2143 116.013C94.5778 115.233 94.6394 114.346 94.3871 113.523C94.1349 112.7 93.5868 112 92.8486 111.558C92.1104 111.115 91.2345 110.962 90.39 111.128C90.3421 111.138 90.2926 111.139 90.2444 111.13C90.1962 111.121 90.1503 111.102 90.1094 111.075C90.0684 111.048 90.0333 111.013 90.0059 110.972C89.9785 110.932 89.9595 110.886 89.95 110.838C89.9292 110.74 89.948 110.637 90.0023 110.553C90.0566 110.469 90.1421 110.409 90.24 110.388C91.3433 110.17 92.4878 110.4 93.4218 111.027C94.3557 111.653 95.0025 112.625 95.22 113.728C95.4375 114.831 95.2078 115.976 94.5814 116.91C93.955 117.844 92.9833 118.49 91.88 118.708C91.6063 118.759 91.3285 118.786 91.05 118.788V118.788Z" fill="white"/>
</g>
<path d="M76.05 93.3879C84.38 91.5479 88.05 95.3879 90.55 103.848C93.68 114.398 92.99 122.538 82.08 122.558C67.26 122.558 62.23 96.4479 76.05 93.3879Z" fill="#EEC1BB"/>
<path d="M85.07 104.558C86.0076 105.654 87.0755 106.631 88.25 107.468C88.0821 107.869 87.8062 108.214 87.453 108.467C87.0997 108.719 86.6832 108.869 86.25 108.898L85.07 104.558Z" fill="#D4827D"/>
<path d="M79.82 105.018C79.99 105.698 79.76 106.348 79.3 106.458C78.84 106.568 78.35 106.108 78.18 105.458C78.01 104.808 78.24 104.138 78.7 104.018C79.16 103.898 79.65 104.338 79.82 105.018Z" fill="#263238"/>
<path d="M78.52 104.068L79.85 103.128C79.85 103.128 79.42 104.558 78.52 104.068Z" fill="#263238"/>
<path d="M88.24 102.798C88.41 103.478 88.18 104.118 87.72 104.238C87.26 104.358 86.72 103.888 86.6 103.238C86.48 102.588 86.67 101.908 87.12 101.798C87.57 101.688 88.08 102.118 88.24 102.798Z" fill="#263238"/>
<path d="M86.94 101.848L88.27 100.908C88.27 100.908 87.89 102.328 86.94 101.848Z" fill="#263238"/>
<path d="M78.47 99.2981C77.7993 99.3559 77.1506 99.5661 76.5735 99.9127C75.9964 100.259 75.5061 100.733 75.14 101.298" stroke="#263238" stroke-width="0.72468" stroke-linecap="round" stroke-linejoin="round"/>
<path d="M84.44 97.6079C84.9749 97.3427 85.5623 97.2005 86.1593 97.1918C86.7563 97.1832 87.3477 97.3083 87.89 97.5579" stroke="#263238" stroke-width="0.72468" stroke-linecap="round" stroke-linejoin="round"/>
<path d="M70.06 109.428C70.06 109.428 72.44 101.728 70.68 96.5781C70.68 96.5781 85.68 86.1881 90.2 102.748C90.2 102.748 88.53 87.5281 74.14 90.3681C59.75 93.2081 64.46 114.118 73.23 118.718C73.23 118.718 68.6 114.238 70.06 109.428Z" fill="#263238"/>
<path d="M71.81 110.888C71.5172 109.942 70.8612 109.15 69.9857 108.687C69.1102 108.224 68.0868 108.127 67.14 108.418C64.63 109.268 64.57 114.838 71.26 114.688C72.23 114.668 72.55 113.658 71.81 110.888Z" fill="#EEC1BB"/>
<path d="M87.76 112.078C87.5388 113.099 87.3951 114.135 87.33 115.178H86.78C84.29 115.388 83.07 114.658 82.47 113.798C82.1831 113.371 82.0046 112.88 81.95 112.368C81.9077 112.08 81.9077 111.787 81.95 111.498C83.5551 112.051 85.2603 112.252 86.95 112.088C87.43 112.118 87.76 112.078 87.76 112.078Z" fill="#263238"/>
<path d="M86.89 112.138L86.74 113.048C84.4 113.238 82.74 113.048 81.93 112.418C81.8877 112.13 81.8877 111.837 81.93 111.548C83.5226 112.095 85.2135 112.296 86.89 112.138Z" fill="white"/>
<path d="M86.78 115.228C84.29 115.438 83.07 114.708 82.47 113.848C83.4143 113.786 84.3621 113.891 85.27 114.158C85.8736 114.347 86.402 114.721 86.78 115.228Z" fill="#DE5753"/>
<path d="M76.02 94.058C76.02 94.058 75.7 108.488 67.02 110.218C58.34 111.948 67.82 91.668 67.82 91.668C67.82 91.668 80.72 83.248 89.32 89.188C97.92 95.128 90.18 102.748 90.18 102.748C90.18 102.748 88.39 92.028 76.02 94.058Z" fill="#263238"/>
<path d="M75.72 93.0981C75.72 93.0981 78.81 102.228 72.72 107.018" stroke="#263238" stroke-width="0.5" stroke-linecap="round" stroke-linejoin="round"/>
<path d="M70.11 122.118C69.1314 122.114 68.1841 121.773 67.428 121.152C66.6719 120.53 66.1534 119.667 65.96 118.708C65.8022 117.9 65.8827 117.063 66.1916 116.3C66.5005 115.536 67.0245 114.879 67.7 114.408C67.7821 114.365 67.8773 114.353 67.9676 114.375C68.0578 114.397 68.1369 114.451 68.1898 114.527C68.2428 114.604 68.2659 114.697 68.2549 114.789C68.2439 114.881 68.1994 114.966 68.13 115.028C67.4244 115.521 66.9267 116.259 66.733 117.098C66.5394 117.937 66.6637 118.817 67.0818 119.57C67.4998 120.323 68.1821 120.894 68.9966 121.173C69.8111 121.451 70.7001 121.418 71.4918 121.08C72.2835 120.742 72.9216 120.122 73.2828 119.34C73.644 118.559 73.7027 117.671 73.4476 116.849C73.1924 116.027 72.6415 115.328 71.9013 114.888C71.1611 114.449 70.2842 114.299 69.44 114.468C69.3886 114.485 69.3341 114.491 69.2802 114.485C69.2262 114.48 69.1742 114.463 69.1274 114.435C69.0807 114.408 69.0404 114.371 69.0091 114.326C68.9779 114.282 68.9566 114.231 68.9465 114.178C68.9364 114.125 68.9379 114.07 68.9507 114.017C68.9636 113.965 68.9875 113.915 69.021 113.873C69.0545 113.83 69.0967 113.795 69.1448 113.77C69.193 113.745 69.2459 113.731 69.3 113.728C69.8571 113.59 70.4363 113.567 71.0027 113.659C71.5691 113.752 72.1108 113.958 72.595 114.266C73.0792 114.574 73.4958 114.978 73.8197 115.451C74.1435 115.925 74.3677 116.46 74.4788 117.023C74.5899 117.586 74.5856 118.166 74.4661 118.727C74.3465 119.288 74.1143 119.819 73.7834 120.288C73.4526 120.757 73.03 121.154 72.5412 121.455C72.0524 121.756 71.5077 121.954 70.94 122.038C70.6669 122.094 70.3887 122.12 70.11 122.118V122.118Z" fill="#407BFF"/>
<g opacity="0.5">
<path opacity="0.5" d="M70.11 122.118C69.1314 122.114 68.1841 121.773 67.428 121.152C66.6719 120.53 66.1534 119.667 65.96 118.708C65.8022 117.9 65.8827 117.063 66.1916 116.3C66.5005 115.536 67.0245 114.879 67.7 114.408C67.7821 114.365 67.8773 114.353 67.9676 114.375C68.0578 114.397 68.1369 114.451 68.1898 114.527C68.2428 114.604 68.2659 114.697 68.2549 114.789C68.2439 114.881 68.1994 114.966 68.13 115.028C67.4244 115.521 66.9267 116.259 66.733 117.098C66.5394 117.937 66.6637 118.817 67.0818 119.57C67.4998 120.323 68.1821 120.894 68.9966 121.173C69.8111 121.451 70.7001 121.418 71.4918 121.08C72.2835 120.742 72.9216 120.122 73.2828 119.34C73.644 118.559 73.7027 117.671 73.4476 116.849C73.1924 116.027 72.6415 115.328 71.9013 114.888C71.1611 114.449 70.2842 114.299 69.44 114.468C69.3886 114.485 69.3341 114.491 69.2802 114.485C69.2262 114.48 69.1742 114.463 69.1274 114.435C69.0807 114.408 69.0404 114.371 69.0091 114.326C68.9779 114.282 68.9566 114.231 68.9465 114.178C68.9364 114.125 68.9379 114.07 68.9507 114.017C68.9636 113.965 68.9875 113.915 69.021 113.873C69.0545 113.83 69.0967 113.795 69.1448 113.77C69.193 113.745 69.2459 113.731 69.3 113.728C69.8571 113.59 70.4363 113.567 71.0027 113.659C71.5691 113.752 72.1108 113.958 72.595 114.266C73.0792 114.574 73.4958 114.978 73.8197 115.451C74.1435 115.925 74.3677 116.46 74.4788 117.023C74.5899 117.586 74.5856 118.166 74.4661 118.727C74.3465 119.288 74.1143 119.819 73.7834 120.288C73.4526 120.757 73.03 121.154 72.5412 121.455C72.0524 121.756 71.5077 121.954 70.94 122.038C70.6669 122.094 70.3887 122.12 70.11 122.118V122.118Z" fill="white"/>
</g>
<path d="M82.52 129.048C85.42 128.558 91.37 126.938 94.27 129.048C97.17 131.158 94.38 138.678 84.27 140.918C74.16 143.158 58.19 136.828 58.19 136.828C59.8114 134.484 62.1864 132.765 64.92 131.958C69.35 130.768 77.56 129.908 82.52 129.048Z" fill="#EEC1BB"/>
<path d="M88.3 151.658C88.2371 151.654 88.1772 151.63 88.13 151.588C87.49 151.018 72.39 137.588 72.4 131.878C72.3854 131.548 72.4442 131.219 72.5721 130.915C72.7001 130.61 72.8941 130.338 73.14 130.118C73.1625 130.094 73.1896 130.075 73.2197 130.062C73.2498 130.049 73.2822 130.042 73.315 130.042C73.3478 130.042 73.3803 130.049 73.4104 130.062C73.4405 130.075 73.4676 130.094 73.49 130.118C73.5358 130.165 73.5615 130.227 73.5615 130.293C73.5615 130.358 73.5358 130.421 73.49 130.468C73.298 130.641 73.1471 130.854 73.0485 131.093C72.9499 131.332 72.906 131.59 72.92 131.848C72.92 136.928 86.24 149.158 88.23 150.968C89.14 149.018 93.95 138.118 91.43 132.068C91.089 131.221 90.564 130.46 89.893 129.841C89.2219 129.222 88.4217 128.76 87.55 128.488C87.4875 128.465 87.436 128.419 87.4062 128.36C87.3765 128.3 87.3707 128.232 87.39 128.168C87.4002 128.136 87.4166 128.107 87.4383 128.081C87.46 128.056 87.4865 128.035 87.5163 128.021C87.5461 128.006 87.5786 127.997 87.6119 127.995C87.6452 127.993 87.6785 127.997 87.71 128.008C88.6502 128.302 89.5131 128.803 90.2361 129.472C90.9591 130.141 91.5241 130.963 91.89 131.878C94.74 138.708 88.8 150.968 88.54 151.488C88.5243 151.522 88.5007 151.551 88.4711 151.574C88.4415 151.597 88.4068 151.612 88.37 151.618L88.3 151.658Z" fill="#407BFF"/>
<g opacity="0.5">
<path opacity="0.5" d="M88.3 151.658C88.2371 151.654 88.1772 151.63 88.13 151.588C87.49 151.018 72.39 137.588 72.4 131.878C72.3854 131.548 72.4442 131.219 72.5721 130.915C72.7001 130.61 72.8941 130.338 73.14 130.118C73.1625 130.094 73.1896 130.075 73.2197 130.062C73.2498 130.049 73.2822 130.042 73.315 130.042C73.3478 130.042 73.3803 130.049 73.4104 130.062C73.4405 130.075 73.4676 130.094 73.49 130.118C73.5358 130.165 73.5615 130.227 73.5615 130.293C73.5615 130.358 73.5358 130.421 73.49 130.468C73.298 130.641 73.1471 130.854 73.0485 131.093C72.9499 131.332 72.906 131.59 72.92 131.848C72.92 136.928 86.24 149.158 88.23 150.968C89.14 149.018 93.95 138.118 91.43 132.068C91.089 131.221 90.564 130.46 89.893 129.841C89.2219 129.222 88.4217 128.76 87.55 128.488C87.4875 128.465 87.436 128.419 87.4062 128.36C87.3765 128.3 87.3707 128.232 87.39 128.168C87.4002 128.136 87.4166 128.107 87.4383 128.081C87.46 128.056 87.4865 128.035 87.5163 128.021C87.5461 128.006 87.5786 127.997 87.6119 127.995C87.6452 127.993 87.6785 127.997 87.71 128.008C88.6502 128.302 89.5131 128.803 90.2361 129.472C90.9591 130.141 91.5241 130.963 91.89 131.878C94.74 138.708 88.8 150.968 88.54 151.488C88.5243 151.522 88.5007 151.551 88.4711 151.574C88.4415 151.597 88.4068 151.612 88.37 151.618L88.3 151.658Z" fill="white"/>
</g>
<path d="M87.23 150.858L89.04 150.668L89.85 155.708L89.04 157.618L87.63 156.548L87.23 150.858Z" fill="#407BFF"/>
<path d="M37.3899 146.218C37.3899 146.218 34.3899 148.698 31.8499 147.438C29.3099 146.178 25.5099 141.368 25.8499 140.078C26.1899 138.788 29.3099 134.748 29.9999 135.078C30.6899 135.408 36.1099 141.768 37.3799 142.798C38.6499 143.828 37.3899 146.218 37.3899 146.218Z" fill="#EEC1BB"/>
<path d="M38.15 144.388H38.02L32.12 142.878C31.8459 142.805 31.5924 142.669 31.3791 142.482C31.1658 142.294 30.9984 142.06 30.89 141.798L25.22 128.738V128.658C25.2033 128.583 25.205 128.505 25.2249 128.43C25.2448 128.356 25.2823 128.287 25.3343 128.23C25.3863 128.174 25.4512 128.13 25.5235 128.103C25.5959 128.077 25.6736 128.068 25.75 128.078L31.24 128.808C31.561 128.848 31.8658 128.971 32.1239 129.166C32.382 129.361 32.5841 129.62 32.71 129.918L38.63 143.718C38.6632 143.794 38.676 143.878 38.6673 143.96C38.6585 144.043 38.6285 144.122 38.5801 144.189C38.5318 144.257 38.4667 144.311 38.3913 144.346C38.3159 144.38 38.2328 144.395 38.15 144.388V144.388Z" fill="#263238"/>
<path opacity="0.2" d="M38.15 144.388H38.02L32.12 142.878C31.8458 142.804 31.5923 142.669 31.379 142.481C31.1657 142.294 30.9984 142.06 30.89 141.798L25.22 128.738V128.658H25.29L30.78 129.378C31.101 129.421 31.4053 129.547 31.663 129.744C31.9207 129.94 32.123 130.2 32.25 130.498L38.17 144.298C38.1677 144.329 38.1609 144.359 38.15 144.388V144.388Z" fill="white"/>
</svg>
