<svg width="388" height="337" viewBox="0 0 388 337" fill="none" xmlns="http://www.w3.org/2000/svg">
<path opacity="0.9" d="M134.43 284.41C102.64 277.94 8.54001 262.02 8.54001 187.27C8.54001 109.36 63.82 89.67 138.85 89.67C208.92 89.67 191.2 12.67 285.97 12.67C366.21 12.67 422.49 133.67 324.03 232.14C264.26 291.9 170.37 291.75 134.43 284.41Z" fill="#C0C7EE" fill-opacity="0.58"/>
<path d="M193.89 336.46C300.972 336.46 387.78 331.392 387.78 325.14C387.78 318.888 300.972 313.82 193.89 313.82C86.8075 313.82 0 318.888 0 325.14C0 331.392 86.8075 336.46 193.89 336.46Z" fill="#C6CBEE" fill-opacity="0.48"/>
<path d="M278.9 296.15H174.21C172.196 296.171 170.199 295.775 168.344 294.989C166.49 294.202 164.817 293.042 163.432 291.579C162.046 290.117 160.978 288.384 160.292 286.49C159.607 284.596 159.321 282.58 159.45 280.57L173.05 21.03C173.31 16.8417 175.146 12.9071 178.188 10.0168C181.23 7.12658 185.254 5.495 189.45 5.45H294.13C296.145 5.42794 298.143 5.82218 299.999 6.60803C301.855 7.39388 303.528 8.55441 304.915 10.017C306.301 11.4795 307.371 13.2126 308.057 15.1076C308.742 17.0027 309.03 19.0189 308.9 21.03L295.3 280.57C295.038 284.757 293.201 288.691 290.16 291.581C287.118 294.47 283.095 296.103 278.9 296.15V296.15Z" fill="#407BFF"/>
<path d="M293.59 15.9H188.9C186.24 15.9325 183.691 16.9684 181.762 18.8005C179.834 20.6325 178.669 23.1254 178.5 25.78L165.4 275.78C165.317 277.055 165.499 278.333 165.933 279.535C166.367 280.736 167.045 281.835 167.924 282.763C168.802 283.69 169.863 284.426 171.039 284.925C172.216 285.423 173.482 285.674 174.76 285.66H279.45C282.11 285.628 284.659 284.592 286.588 282.76C288.516 280.927 289.681 278.435 289.85 275.78L302.95 25.78C303.033 24.5051 302.851 23.2268 302.417 22.0252C301.983 20.8236 301.305 19.7247 300.426 18.7972C299.548 17.8697 298.487 17.1336 297.311 16.6351C296.134 16.1366 294.868 15.8863 293.59 15.9V15.9Z" fill="#407BFF"/>
<path opacity="0.8" d="M293.59 15.9H188.9C186.24 15.9325 183.691 16.9684 181.762 18.8005C179.834 20.6325 178.669 23.1254 178.5 25.78L165.4 275.78C165.317 277.055 165.499 278.333 165.933 279.535C166.367 280.736 167.045 281.835 167.924 282.763C168.802 283.69 169.863 284.426 171.039 284.925C172.216 285.423 173.482 285.674 174.76 285.66H279.45C282.11 285.628 284.659 284.592 286.588 282.76C288.516 280.927 289.681 278.435 289.85 275.78L302.95 25.78C303.033 24.5051 302.851 23.2268 302.417 22.0252C301.983 20.8236 301.305 19.7247 300.426 18.7972C299.548 17.8697 298.487 17.1336 297.311 16.6351C296.134 16.1366 294.868 15.8863 293.59 15.9V15.9Z" fill="white"/>
<path d="M302.71 5.45H294.16C296.175 5.42794 298.173 5.82218 300.029 6.60803C301.885 7.39388 303.558 8.55441 304.945 10.017C306.331 11.4795 307.401 13.2126 308.087 15.1076C308.772 17.0027 309.06 19.0189 308.93 21.03L295.33 280.57C295.07 284.758 293.234 288.693 290.192 291.583C287.15 294.473 283.126 296.105 278.93 296.15H287.48C291.676 296.105 295.7 294.473 298.742 291.583C301.784 288.693 303.62 284.758 303.88 280.57L317.48 21.03C317.609 19.0189 317.322 17.0027 316.637 15.1076C315.951 13.2126 314.881 11.4795 313.495 10.017C312.108 8.55441 310.435 7.39388 308.579 6.60803C306.723 5.82218 304.725 5.42794 302.71 5.45V5.45Z" fill="#407BFF"/>
<path opacity="0.4" d="M302.71 5.45H294.16C296.175 5.42794 298.173 5.82218 300.029 6.60803C301.885 7.39388 303.558 8.55441 304.945 10.017C306.331 11.4795 307.401 13.2126 308.087 15.1076C308.772 17.0027 309.06 19.0189 308.93 21.03L295.33 280.57C295.07 284.758 293.234 288.693 290.192 291.583C287.15 294.473 283.126 296.105 278.93 296.15H287.48C291.676 296.105 295.7 294.473 298.742 291.583C301.784 288.693 303.62 284.758 303.88 280.57L317.48 21.03C317.609 19.0189 317.322 17.0027 316.637 15.1076C315.951 13.2126 314.881 11.4795 313.495 10.017C312.108 8.55441 310.435 7.39388 308.579 6.60803C306.723 5.82218 304.725 5.42794 302.71 5.45V5.45Z" fill="white"/>
<path opacity="0.4" d="M188.89 15.9L203.11 285.75H240.11L225.89 15.95H188.89V15.9Z" fill="white"/>
<path opacity="0.4" d="M246.81 285.7H255.14L240.92 15.9H232.59L246.81 285.7Z" fill="white"/>
<path d="M194.17 0.900002H197.84C197.959 0.900002 198.074 0.852587 198.158 0.768196C198.243 0.683805 198.29 0.569344 198.29 0.449997C198.29 0.33065 198.243 0.216197 198.158 0.131805C198.074 0.047414 197.959 0 197.84 0H194.17C194.051 0 193.936 0.047414 193.852 0.131805C193.767 0.216197 193.72 0.33065 193.72 0.449997C193.72 0.569344 193.767 0.683805 193.852 0.768196C193.936 0.852587 194.051 0.900002 194.17 0.900002V0.900002Z" fill="#407BFF"/>
<path d="M167.49 30.52C167.72 26.24 167.54 21.67 168.49 17.52C170.61 7.88 179.27 1.28 188.97 0.949998C189.54 0.949998 189.55 0.030004 188.97 0.050004C184.724 0.142992 180.591 1.43813 177.051 3.78515C173.511 6.13217 170.709 9.43485 168.97 13.31C166.61 18.66 166.97 24.85 166.65 30.57C166.65 31.15 167.52 31.15 167.55 30.57L167.49 30.52Z" fill="#407BFF"/>
<path d="M249.49 69.45H225.49C224.434 69.4618 223.388 69.2555 222.415 68.8441C221.443 68.4326 220.566 67.8249 219.839 67.0589C219.113 66.2929 218.552 65.3851 218.193 64.3925C217.833 63.3998 217.682 62.3436 217.75 61.29L219.01 37.29C219.144 35.0955 220.105 33.0334 221.699 31.5192C223.293 30.005 225.402 29.1512 227.6 29.13H251.6C252.655 29.1181 253.702 29.3244 254.673 29.7359C255.645 30.1475 256.522 30.7554 257.247 31.5216C257.973 32.2877 258.533 33.1956 258.891 34.1883C259.25 35.1809 259.399 36.2369 259.33 37.29L258.08 61.29C257.941 63.4828 256.979 65.5423 255.386 67.0555C253.793 68.5688 251.687 69.4241 249.49 69.45Z" fill="white"/>
<path d="M234.17 52.91C232.488 51.0682 231.495 48.7008 231.36 46.21H231.26C230.26 46.21 229.56 45.14 229.63 43.83C229.7 42.52 230.54 41.45 231.51 41.45H231.76L231.94 40.81C237.73 40.5 240.94 38.59 242.71 37.03C243.078 37.8117 243.606 38.507 244.261 39.0705C244.916 39.634 245.682 40.0529 246.51 40.3C246.6 40.67 246.68 41.06 246.74 41.45H246.99C247.99 41.45 248.7 42.51 248.63 43.83C248.56 45.15 247.71 46.21 246.74 46.21H246.64C246.234 48.6092 245.123 50.8334 243.45 52.6C244.818 53.035 246.262 53.1815 247.69 53.03C253.54 52.69 250.45 40.66 247.3 36.35C245.38 33.71 244.3 32.48 243.21 32.97C241.99 32.3 234.66 29.28 229.92 38.17C225 47.4 223.54 55.8 234.17 52.91Z" fill="#407BFF"/>
<path d="M250.28 59.38L244.23 57.45C244.23 57.45 239 59.45 237.75 64.45C237.03 59.45 232.01 57.45 232.01 57.45L225.76 59.38C222.01 59.9 220.19 63.11 219.31 66.43C220.037 67.3749 220.974 68.1378 222.046 68.6584C223.119 69.1791 224.298 69.4432 225.49 69.43H249.49C250.725 69.4242 251.944 69.1533 253.066 68.6358C254.187 68.1182 255.184 67.366 255.99 66.43C255.46 63.11 253.97 59.9 250.28 59.38Z" fill="#407BFF"/>
<path d="M266.86 65.92C266.895 65.4473 266.895 64.9727 266.86 64.5L269.25 62.44C269.037 61.4488 268.701 60.4881 268.25 59.58L265.18 59.74C264.647 58.9847 264.007 58.311 263.28 57.74L263.6 54.68C262.719 54.1715 261.779 53.7751 260.8 53.5L258.56 55.75C258.093 55.6861 257.622 55.6527 257.15 55.65C256.672 55.6527 256.194 55.6861 255.72 55.75L253.79 53.48C252.773 53.7566 251.793 54.1527 250.87 54.66V57.75C250.083 58.3219 249.373 58.9943 248.76 59.75L245.71 59.59C245.157 60.4901 244.708 61.4494 244.37 62.45L246.54 64.51C246.447 64.9783 246.39 65.453 246.37 65.93C246.335 66.3993 246.335 66.8707 246.37 67.34L243.99 69.4C244.208 70.3899 244.543 71.3501 244.99 72.26L248.06 72.1C248.599 72.8507 249.238 73.5237 249.96 74.1L249.65 77.16C250.527 77.6685 251.464 78.0649 252.44 78.34L254.62 76.07C255.087 76.1339 255.558 76.1673 256.03 76.17C256.505 76.1674 256.979 76.134 257.45 76.07L259.39 78.34C260.405 78.0599 261.385 77.664 262.31 77.16V74.1C263.093 73.5228 263.802 72.851 264.42 72.1L267.47 72.26C268.023 71.3618 268.47 70.4019 268.8 69.4L266.71 67.33C266.791 66.8638 266.841 66.3928 266.86 65.92ZM256.44 69.13C256.024 69.138 255.61 69.0591 255.226 68.8985C254.841 68.7378 254.495 68.4989 254.208 68.197C253.921 67.895 253.7 67.5366 253.559 67.1446C253.418 66.7526 253.361 66.3355 253.39 65.92C253.445 65.0549 253.825 64.2426 254.454 63.6456C255.082 63.0485 255.913 62.7108 256.78 62.7C257.193 62.6989 257.602 62.7831 257.981 62.9475C258.36 63.1118 258.701 63.3527 258.983 63.655C259.265 63.9573 259.481 64.3145 259.618 64.7043C259.755 65.094 259.81 65.5079 259.78 65.92C259.728 66.7765 259.355 67.582 258.736 68.1766C258.118 68.7712 257.298 69.1115 256.44 69.13V69.13Z" fill="#407BFF"/>
<path opacity="0.4" d="M266.86 65.92C266.895 65.4473 266.895 64.9727 266.86 64.5L269.25 62.44C269.037 61.4488 268.701 60.4881 268.25 59.58L265.18 59.74C264.647 58.9847 264.007 58.311 263.28 57.74L263.6 54.68C262.719 54.1715 261.779 53.7751 260.8 53.5L258.56 55.75C258.093 55.6861 257.622 55.6527 257.15 55.65C256.672 55.6527 256.194 55.6861 255.72 55.75L253.79 53.48C252.773 53.7566 251.793 54.1527 250.87 54.66V57.75C250.083 58.3219 249.373 58.9943 248.76 59.75L245.71 59.59C245.157 60.4901 244.708 61.4494 244.37 62.45L246.54 64.51C246.447 64.9783 246.39 65.453 246.37 65.93C246.335 66.3993 246.335 66.8707 246.37 67.34L243.99 69.4C244.208 70.3899 244.543 71.3501 244.99 72.26L248.06 72.1C248.599 72.8507 249.238 73.5237 249.96 74.1L249.65 77.16C250.527 77.6685 251.464 78.0649 252.44 78.34L254.62 76.07C255.087 76.1339 255.558 76.1673 256.03 76.17C256.505 76.1674 256.979 76.134 257.45 76.07L259.39 78.34C260.405 78.0599 261.385 77.664 262.31 77.16V74.1C263.093 73.5228 263.802 72.851 264.42 72.1L267.47 72.26C268.023 71.3618 268.47 70.4019 268.8 69.4L266.71 67.33C266.791 66.8638 266.841 66.3928 266.86 65.92ZM256.44 69.13C256.024 69.138 255.61 69.0591 255.226 68.8985C254.841 68.7378 254.495 68.4989 254.208 68.197C253.921 67.895 253.7 67.5366 253.559 67.1446C253.418 66.7526 253.361 66.3355 253.39 65.92C253.445 65.0549 253.825 64.2426 254.454 63.6456C255.082 63.0485 255.913 62.7108 256.78 62.7C257.193 62.6989 257.602 62.7831 257.981 62.9475C258.36 63.1118 258.701 63.3527 258.983 63.655C259.265 63.9573 259.481 64.3145 259.618 64.7043C259.755 65.094 259.81 65.5079 259.78 65.92C259.728 66.7765 259.355 67.582 258.736 68.1766C258.118 68.7712 257.298 69.1115 256.44 69.13V69.13Z" fill="white"/>
<path d="M256.44 69.13C256.024 69.138 255.61 69.0591 255.226 68.8985C254.841 68.7378 254.495 68.4989 254.208 68.197C253.921 67.895 253.7 67.5366 253.559 67.1446C253.418 66.7526 253.361 66.3355 253.39 65.92C253.445 65.0549 253.825 64.2426 254.454 63.6455C255.082 63.0485 255.913 62.7108 256.78 62.7C257.193 62.6989 257.602 62.7831 257.981 62.9475C258.36 63.1118 258.701 63.3527 258.983 63.655C259.265 63.9573 259.481 64.3145 259.618 64.7043C259.755 65.094 259.81 65.5079 259.78 65.92C259.728 66.7765 259.355 67.582 258.736 68.1766C258.118 68.7712 257.298 69.1115 256.44 69.13Z" fill="white"/>
<path d="M235.82 180.12H232.41L232.72 174.26H236.12L235.82 180.12Z" fill="#407BFF"/>
<path d="M251.33 180.12H247.93L248.44 170.46H251.84L251.33 180.12Z" fill="#407BFF"/>
<path d="M266.85 180.12H263.45L264.15 166.66H267.56L266.85 180.12Z" fill="#407BFF"/>
<path d="M282.37 180.12H278.96L279.87 162.87H283.27L282.37 180.12Z" fill="white"/>
<path d="M188.79 180.12H206.09C208.421 180.097 210.656 179.191 212.346 177.587C214.036 175.982 215.056 173.796 215.2 171.47C215.272 170.354 215.112 169.234 214.731 168.182C214.35 167.13 213.757 166.168 212.987 165.356C212.217 164.544 211.288 163.9 210.258 163.464C209.228 163.027 208.119 162.808 207 162.82H189.71C187.379 162.843 185.144 163.749 183.454 165.353C181.764 166.958 180.744 169.144 180.6 171.47C180.528 172.586 180.688 173.704 181.068 174.755C181.448 175.807 182.041 176.768 182.81 177.58C183.578 178.392 184.506 179.036 185.535 179.473C186.564 179.91 187.672 180.131 188.79 180.12V180.12Z" fill="white"/>
<path d="M189.6 164.75H206.9C208.997 164.727 211.021 165.515 212.549 166.95C214.078 168.385 214.992 170.356 215.1 172.45C215.15 172.14 215.18 171.82 215.2 171.5C215.272 170.384 215.112 169.264 214.731 168.212C214.35 167.16 213.757 166.198 212.987 165.386C212.217 164.574 211.288 163.93 210.258 163.494C209.228 163.057 208.119 162.838 207 162.85H189.71C187.379 162.873 185.144 163.779 183.454 165.383C181.764 166.988 180.744 169.174 180.6 171.5C180.6 171.82 180.6 172.14 180.6 172.45C180.962 170.316 182.062 168.377 183.706 166.971C185.35 165.564 187.436 164.778 189.6 164.75V164.75Z" fill="#407BFF"/>
<path opacity="0.3" d="M189.6 164.75H206.9C208.997 164.727 211.021 165.515 212.549 166.95C214.078 168.385 214.992 170.356 215.1 172.45C215.15 172.14 215.18 171.82 215.2 171.5C215.272 170.384 215.112 169.264 214.731 168.212C214.35 167.16 213.757 166.198 212.987 165.386C212.217 164.574 211.288 163.93 210.258 163.494C209.228 163.057 208.119 162.838 207 162.85H189.71C187.379 162.873 185.144 163.779 183.454 165.383C181.764 166.988 180.744 169.174 180.6 171.5C180.6 171.82 180.6 172.14 180.6 172.45C180.962 170.316 182.062 168.377 183.706 166.971C185.35 165.564 187.436 164.778 189.6 164.75V164.75Z" fill="white"/>
<path d="M195.121 177.488C198.633 174.065 198.846 168.587 195.597 165.253C192.348 161.919 186.866 161.99 183.354 165.413C179.842 168.836 179.628 174.314 182.878 177.648C186.127 180.982 191.609 180.911 195.121 177.488Z" fill="#407BFF"/>
<path d="M179.04 254.69H175.64L176.05 246.93H179.45L179.04 254.69Z" fill="#407BFF"/>
<path d="M191.66 252.79H188.26L188.42 249.78H191.82L191.66 252.79Z" fill="#407BFF"/>
<path d="M204.13 253.74H200.73L200.98 248.83H204.39L204.13 253.74Z" fill="#407BFF"/>
<path d="M216.7 252.79H213.29L213.45 249.78H216.86L216.7 252.79Z" fill="#407BFF"/>
<path d="M229.12 254.69H225.71L226.12 246.93H229.52L229.12 254.69Z" fill="#407BFF"/>
<path d="M241.73 252.79H238.33L238.49 249.78H241.89L241.73 252.79Z" fill="#407BFF"/>
<path d="M254.2 253.74H250.8L251.06 248.83H254.46L254.2 253.74Z" fill="#407BFF"/>
<path d="M266.77 252.79H263.37L263.52 249.78H266.93L266.77 252.79Z" fill="#407BFF"/>
<path d="M279.19 254.69H275.79L276.19 246.93H279.6L279.19 254.69Z" fill="#407BFF"/>
<g opacity="0.3">
<path opacity="0.3" d="M179.04 254.69H175.64L176.05 246.93H179.45L179.04 254.69Z" fill="black"/>
<path opacity="0.3" d="M191.66 252.79H188.26L188.42 249.78H191.82L191.66 252.79Z" fill="black"/>
<path opacity="0.3" d="M204.13 253.74H200.73L200.98 248.83H204.39L204.13 253.74Z" fill="black"/>
<path opacity="0.3" d="M216.7 252.79H213.29L213.45 249.78H216.86L216.7 252.79Z" fill="black"/>
<path opacity="0.3" d="M229.12 254.69H225.71L226.12 246.93H229.52L229.12 254.69Z" fill="black"/>
<path opacity="0.3" d="M241.73 252.79H238.33L238.49 249.78H241.89L241.73 252.79Z" fill="black"/>
<path opacity="0.3" d="M254.2 253.74H250.8L251.06 248.83H254.46L254.2 253.74Z" fill="black"/>
<path opacity="0.3" d="M266.77 252.79H263.37L263.52 249.78H266.93L266.77 252.79Z" fill="black"/>
<path opacity="0.3" d="M279.19 254.69H275.79L276.19 246.93H279.6L279.19 254.69Z" fill="black"/>
</g>
<path d="M219.51 255.97C219.56 255.11 219.71 252.14 219.76 251.29C219.81 250.44 219.96 247.46 220 246.61C220.04 246.006 219.955 245.4 219.75 244.83C219.545 244.26 219.224 243.739 218.808 243.298C218.392 242.858 217.89 242.509 217.333 242.271C216.776 242.034 216.176 241.915 215.57 241.92C214.308 241.935 213.099 242.427 212.184 243.297C211.27 244.167 210.718 245.35 210.64 246.61C210.59 247.46 210.44 250.43 210.39 251.29C210.34 252.15 210.19 255.11 210.15 255.97C210.111 256.573 210.198 257.178 210.403 257.747C210.609 258.316 210.93 258.836 211.346 259.275C211.761 259.714 212.263 260.063 212.82 260.299C213.376 260.536 213.975 260.655 214.58 260.65C215.84 260.635 217.048 260.144 217.963 259.277C218.877 258.409 219.429 257.228 219.51 255.97Z" fill="#407BFF"/>
<path d="M186.6 221.82H203.91C206.24 221.796 208.474 220.891 210.162 219.286C211.851 217.681 212.868 215.495 213.01 213.17C213.083 212.054 212.925 210.935 212.545 209.883C212.165 208.831 211.573 207.869 210.804 207.057C210.035 206.245 209.106 205.6 208.077 205.164C207.047 204.727 205.938 204.508 204.82 204.52H187.51C185.179 204.543 182.944 205.449 181.254 207.053C179.564 208.658 178.544 210.844 178.4 213.17C178.328 214.287 178.488 215.406 178.869 216.458C179.25 217.51 179.843 218.472 180.613 219.284C181.383 220.096 182.312 220.74 183.342 221.176C184.372 221.613 185.481 221.832 186.6 221.82V221.82Z" fill="white"/>
<path d="M187.41 206.42H204.71C206.805 206.397 208.829 207.185 210.355 208.621C211.882 210.056 212.794 212.027 212.9 214.12C212.954 213.806 212.987 213.489 213 213.17C213.073 212.054 212.915 210.935 212.535 209.883C212.155 208.831 211.563 207.869 210.794 207.057C210.025 206.245 209.096 205.6 208.067 205.164C207.037 204.727 205.928 204.508 204.81 204.52H187.51C185.179 204.543 182.944 205.449 181.254 207.053C179.564 208.658 178.544 210.844 178.4 213.17C178.4 213.49 178.4 213.81 178.4 214.12C178.759 211.983 179.859 210.041 181.506 208.633C183.153 207.225 185.243 206.442 187.41 206.42Z" fill="#407BFF"/>
<path opacity="0.3" d="M187.41 206.42H204.71C206.805 206.397 208.829 207.185 210.355 208.621C211.882 210.056 212.794 212.027 212.9 214.12C212.954 213.806 212.987 213.489 213 213.17C213.073 212.054 212.915 210.935 212.535 209.883C212.155 208.831 211.563 207.869 210.794 207.057C210.025 206.245 209.096 205.6 208.067 205.164C207.037 204.727 205.928 204.508 204.81 204.52H187.51C185.179 204.543 182.944 205.449 181.254 207.053C179.564 208.658 178.544 210.844 178.4 213.17C178.4 213.49 178.4 213.81 178.4 214.12C178.759 211.983 179.859 210.041 181.506 208.633C183.153 207.225 185.243 206.442 187.41 206.42Z" fill="white"/>
<path d="M195.71 213.17C195.854 210.844 196.874 208.658 198.564 207.053C200.254 205.449 202.489 204.543 204.82 204.52C205.938 204.508 207.047 204.727 208.077 205.164C209.106 205.6 210.035 206.245 210.804 207.057C211.573 207.869 212.165 208.831 212.545 209.883C212.925 210.935 213.083 212.054 213.01 213.17C212.868 215.495 211.851 217.681 210.162 219.286C208.474 220.891 206.24 221.796 203.91 221.82C202.791 221.832 201.682 221.613 200.652 221.176C199.622 220.74 198.693 220.096 197.923 219.284C197.153 218.472 196.56 217.51 196.179 216.458C195.798 215.406 195.638 214.287 195.71 213.17Z" fill="#407BFF"/>
<path d="M188.3 100.75H282.71C283.947 100.737 285.134 100.257 286.032 99.4057C286.929 98.5543 287.472 97.3948 287.55 96.16C287.587 95.5678 287.502 94.9744 287.3 94.4167C287.097 93.8589 286.782 93.3488 286.374 92.9182C285.966 92.4875 285.473 92.1456 284.927 91.9136C284.381 91.6817 283.793 91.5647 283.2 91.57H188.78C187.544 91.5828 186.358 92.0634 185.462 92.915C184.566 93.7666 184.026 94.9261 183.95 96.16C183.91 96.7528 183.993 97.3475 184.194 97.9066C184.395 98.4657 184.71 98.977 185.119 99.4083C185.528 99.8395 186.022 100.181 186.569 100.412C187.116 100.643 187.706 100.758 188.3 100.75V100.75Z" fill="white"/>
<path d="M188.78 93.6H283.15C284.136 93.5914 285.095 93.9228 285.866 94.5384C286.636 95.154 287.171 96.0163 287.38 96.98C287.435 96.7192 287.475 96.4555 287.5 96.19C287.537 95.5979 287.452 95.0044 287.25 94.4467C287.047 93.8889 286.732 93.3789 286.324 92.9482C285.916 92.5176 285.423 92.1756 284.877 91.9437C284.331 91.7117 283.743 91.5947 283.15 91.6H188.78C187.544 91.6129 186.358 92.0934 185.462 92.9451C184.566 93.7967 184.026 94.9561 183.95 96.19C183.928 96.6004 183.969 97.0117 184.07 97.41C184.313 96.338 184.909 95.3791 185.764 94.6878C186.618 93.9966 187.681 93.6134 188.78 93.6V93.6Z" fill="#407BFF"/>
<path opacity="0.3" d="M188.78 93.6H283.15C284.136 93.5914 285.095 93.9228 285.866 94.5384C286.636 95.154 287.171 96.0163 287.38 96.98C287.435 96.7192 287.475 96.4555 287.5 96.19C287.537 95.5979 287.452 95.0044 287.25 94.4467C287.047 93.8889 286.732 93.3789 286.324 92.9482C285.916 92.5176 285.423 92.1756 284.877 91.9437C284.331 91.7117 283.743 91.5947 283.15 91.6H188.78C187.544 91.6129 186.358 92.0934 185.462 92.9451C184.566 93.7967 184.026 94.9561 183.95 96.19C183.928 96.6004 183.969 97.0117 184.07 97.41C184.313 96.338 184.909 95.3791 185.764 94.6878C186.618 93.9966 187.681 93.6134 188.78 93.6V93.6Z" fill="white"/>
<path d="M211.437 102.209C214.95 98.7872 215.164 93.3095 211.916 89.9746C208.667 86.6397 203.185 86.7104 199.672 90.1325C196.16 93.5547 195.945 99.0324 199.194 102.367C202.443 105.702 207.924 105.632 211.437 102.209Z" fill="#407BFF"/>
<path d="M281.06 207.85C281.088 207.42 281.026 206.989 280.879 206.584C280.732 206.178 280.504 205.808 280.207 205.495C279.91 205.183 279.552 204.935 279.155 204.767C278.758 204.599 278.331 204.515 277.9 204.52H250.04C249.143 204.531 248.283 204.88 247.632 205.497C246.982 206.115 246.588 206.955 246.53 207.85L245.97 218.49C245.942 218.92 246.004 219.351 246.151 219.756C246.298 220.162 246.526 220.532 246.823 220.845C247.12 221.157 247.478 221.405 247.875 221.573C248.272 221.741 248.699 221.825 249.13 221.82H276.99C277.887 221.809 278.747 221.46 279.398 220.843C280.048 220.225 280.442 219.385 280.5 218.49L281.06 207.85Z" fill="#407BFF"/>
<path d="M249.94 206.42H277.8C278.231 206.415 278.658 206.499 279.055 206.667C279.452 206.835 279.81 207.083 280.107 207.395C280.403 207.708 280.632 208.078 280.779 208.484C280.926 208.889 280.988 209.32 280.96 209.75L281.06 207.85C281.088 207.42 281.026 206.989 280.879 206.584C280.732 206.178 280.504 205.808 280.207 205.495C279.91 205.183 279.552 204.935 279.155 204.767C278.758 204.599 278.331 204.515 277.9 204.52H250.04C249.143 204.531 248.283 204.88 247.632 205.497C246.982 206.115 246.588 206.955 246.53 207.85L246.43 209.75C246.488 208.855 246.882 208.014 247.532 207.397C248.183 206.78 249.043 206.431 249.94 206.42Z" fill="#407BFF"/>
<path opacity="0.3" d="M249.94 206.42H277.8C278.231 206.415 278.658 206.499 279.055 206.667C279.452 206.835 279.81 207.083 280.107 207.395C280.403 207.708 280.632 208.078 280.779 208.484C280.926 208.889 280.988 209.32 280.96 209.75L281.06 207.85C281.088 207.42 281.026 206.989 280.879 206.584C280.732 206.178 280.504 205.808 280.207 205.495C279.91 205.183 279.552 204.935 279.155 204.767C278.758 204.599 278.331 204.515 277.9 204.52H250.04C249.143 204.531 248.283 204.88 247.632 205.497C246.982 206.115 246.588 206.955 246.53 207.85L246.43 209.75C246.488 208.855 246.882 208.014 247.532 207.397C248.183 206.78 249.043 206.431 249.94 206.42Z" fill="black"/>
<path d="M263.84 207.85C263.868 207.42 263.806 206.989 263.659 206.584C263.512 206.178 263.284 205.808 262.987 205.495C262.69 205.183 262.332 204.935 261.935 204.767C261.538 204.599 261.111 204.515 260.68 204.52H250.04C249.143 204.531 248.283 204.88 247.632 205.497C246.982 206.115 246.588 206.955 246.53 207.85L245.97 218.49C245.942 218.92 246.004 219.351 246.151 219.756C246.298 220.162 246.526 220.532 246.823 220.845C247.12 221.157 247.478 221.405 247.875 221.573C248.272 221.741 248.699 221.825 249.13 221.82H259.77C260.667 221.809 261.527 221.46 262.178 220.843C262.828 220.225 263.222 219.385 263.28 218.49L263.84 207.85Z" fill="white"/>
<path d="M256.45 216.1H253.05L253.36 210.24H256.76L256.45 216.1Z" fill="#407BFF"/>
<path d="M281.17 129.24H186.81C185.573 129.255 184.388 129.736 183.491 130.587C182.594 131.438 182.05 132.596 181.97 133.83C181.931 134.422 182.016 135.017 182.217 135.575C182.419 136.133 182.734 136.644 183.143 137.075C183.551 137.506 184.044 137.848 184.591 138.079C185.138 138.311 185.726 138.427 186.32 138.42H280.71C281.947 138.409 283.134 137.93 284.03 137.078C284.927 136.226 285.467 135.065 285.54 133.83C285.579 133.236 285.494 132.64 285.291 132.08C285.088 131.52 284.771 131.009 284.361 130.578C283.95 130.146 283.455 129.805 282.905 129.575C282.356 129.344 281.765 129.23 281.17 129.24V129.24Z" fill="#407BFF"/>
<path opacity="0.3" d="M186.81 131.24H281.17C282.155 131.229 283.114 131.558 283.885 132.172C284.655 132.786 285.191 133.647 285.4 134.61C285.466 134.355 285.506 134.093 285.52 133.83C285.559 133.238 285.474 132.643 285.273 132.085C285.071 131.527 284.756 131.016 284.347 130.585C283.939 130.154 283.446 129.812 282.899 129.581C282.352 129.349 281.764 129.233 281.17 129.24H186.81C186.088 129.224 185.372 129.374 184.717 129.677C184.061 129.981 183.484 130.43 183.028 130.99C182.573 131.551 182.252 132.208 182.089 132.911C181.927 133.615 181.927 134.347 182.09 135.05C182.336 133.978 182.935 133.02 183.791 132.329C184.647 131.638 185.71 131.255 186.81 131.24V131.24Z" fill="black"/>
<path d="M266.53 142.48H259.3C258.652 142.486 258.009 142.36 257.412 142.108C256.814 141.856 256.275 141.484 255.827 141.016C255.379 140.547 255.031 139.991 254.807 139.383C254.582 138.775 254.484 138.127 254.52 137.48L254.9 130.25C254.993 128.901 255.592 127.637 256.576 126.71C257.56 125.783 258.858 125.262 260.21 125.25H267.44C268.088 125.243 268.73 125.37 269.327 125.622C269.924 125.874 270.463 126.246 270.91 126.715C271.357 127.184 271.704 127.739 271.927 128.347C272.151 128.956 272.247 129.603 272.21 130.25L271.83 137.48C271.737 138.827 271.14 140.09 270.158 141.016C269.176 141.943 267.88 142.466 266.53 142.48Z" fill="white"/>
<path d="M265.29 136.76H261.89L262.2 130.9H265.6L265.29 136.76Z" fill="#407BFF"/>
<path d="M116.52 103.31L103.71 117.81C104.71 124.73 106.8 144.81 106.8 144.81C104.88 147.35 100.19 146.63 100.19 146.63C96.3602 137.092 94.7926 126.796 95.61 116.55C96.51 107.18 108.53 88.75 117.09 83.55C118.487 82.7047 119.999 82.068 121.58 81.66L123.27 81.46L117.27 103.75L116.52 103.31Z" fill="#407BFF"/>
<path opacity="0.6" d="M116.52 103.31L103.71 117.81C104.71 124.73 106.8 144.81 106.8 144.81C104.88 147.35 100.19 146.63 100.19 146.63C96.3602 137.092 94.7926 126.796 95.61 116.55C96.51 107.18 108.53 88.75 117.09 83.55C118.487 82.7047 119.999 82.068 121.58 81.66L123.27 81.46L117.27 103.75L116.52 103.31Z" fill="black"/>
<path d="M106.1 146.39L109.2 149.7C109.301 149.81 109.379 149.939 109.43 150.08L111.25 155.2C111.36 155.469 111.36 155.771 111.25 156.04L110.37 157.85C110.298 158 110.191 158.132 110.059 158.234C109.927 158.337 109.774 158.407 109.61 158.44L103.28 159.75C103.138 159.779 102.992 159.779 102.85 159.751C102.708 159.723 102.573 159.667 102.452 159.586C102.332 159.505 102.23 159.401 102.15 159.279C102.071 159.158 102.016 159.022 101.99 158.88L100.77 152.14C100.742 152.005 100.742 151.865 100.77 151.73L101.61 147.41C101.653 147.195 101.76 146.997 101.917 146.844C102.074 146.69 102.274 146.588 102.49 146.55L105.12 146.08C105.296 146.047 105.478 146.058 105.649 146.112C105.82 146.166 105.975 146.262 106.1 146.39V146.39Z" fill="#FAB27B"/>
<path d="M108.77 145.63L98.91 150.1L98.78 145.33L107.88 141.83L108.77 145.63Z" fill="#407BFF"/>
<path opacity="0.5" d="M108.77 145.63L98.91 150.1L98.78 145.33L107.88 141.83L108.77 145.63Z" fill="white"/>
<path d="M104.95 163.27C99.07 184.27 101.56 215.27 98.33 236.06C96.11 250.38 80.93 297.51 80.93 297.51L94.33 301.57C94.33 301.57 111.05 260.06 114.33 247.69C119.59 227.62 127.49 189.54 127.49 189.54C127.49 189.54 130.44 178.74 129.1 177.54C127.76 176.34 104.95 163.27 104.95 163.27Z" fill="#407BFF"/>
<path opacity="0.3" d="M119.71 177.69L129.4 180.83L125.77 197.83C125.77 197.83 127.55 181.57 119.71 177.69Z" fill="black"/>
<path d="M83.62 296.9L81.22 304.51L87.72 307.43L90.94 299.35L83.62 296.9Z" fill="#FAB27B"/>
<path opacity="0.2" d="M82.2 301.41L89.06 304.06L89.97 301.77L82.76 299.64L82.2 301.41Z" fill="black"/>
<path d="M81.07 293.34L97.46 297.82L94.49 303.1L80.15 298.87L81.07 293.34Z" fill="#407BFF"/>
<path opacity="0.5" d="M81.07 293.34L97.46 297.82L94.49 303.1L80.15 298.87L81.07 293.34Z" fill="white"/>
<path d="M89.11 308.47C89.0772 308.447 89.0515 308.415 89.0356 308.378C89.0197 308.341 89.0143 308.3 89.02 308.26C89.0279 308.222 89.0475 308.186 89.0761 308.16C89.1048 308.133 89.1411 308.115 89.18 308.11C89.33 308.11 92.59 307.61 93.73 308.46C93.8378 308.536 93.9295 308.632 93.9999 308.744C94.0703 308.856 94.1179 308.98 94.14 309.11C94.1781 309.257 94.1697 309.411 94.1159 309.553C94.0622 309.694 93.9657 309.816 93.84 309.9C93.0075 310.103 92.1296 309.996 91.37 309.6C90.5851 309.29 89.8289 308.912 89.11 308.47V308.47ZM89.79 308.47C91.15 309.21 93.08 309.95 93.63 309.59C93.71 309.59 93.8 309.46 93.75 309.18C93.741 309.099 93.7127 309.021 93.6674 308.953C93.6222 308.886 93.5613 308.829 93.49 308.79C93.3937 308.713 93.2857 308.652 93.17 308.61C92.0638 308.342 90.9166 308.288 89.79 308.45V308.47Z" fill="#407BFF"/>
<path d="M89.02 308.42C89.0024 308.39 88.9932 308.355 88.9932 308.32C88.9932 308.285 89.0024 308.25 89.02 308.22C89.07 308.13 90.08 306.15 91.37 305.73C91.554 305.666 91.749 305.64 91.9432 305.654C92.1374 305.668 92.3268 305.721 92.5 305.81C92.98 306.06 93.04 306.37 92.97 306.59C92.8 307.51 90.31 308.45 89.24 308.5C89.2143 308.51 89.1857 308.51 89.16 308.5C89.1319 308.499 89.1043 308.492 89.0799 308.478C89.0555 308.464 89.0349 308.444 89.02 308.42ZM92.22 306.11C91.9913 306.023 91.7387 306.023 91.51 306.11C90.6729 306.561 89.9954 307.26 89.57 308.11C90.74 307.92 92.46 307.11 92.57 306.56C92.57 306.51 92.57 306.37 92.29 306.21H92.18L92.22 306.11Z" fill="#407BFF"/>
<path d="M88.71 307.09L80.36 303.82C80.2072 303.757 80.0373 303.748 79.8788 303.796C79.7204 303.843 79.5831 303.943 79.49 304.08L75.32 310.29C75.142 310.553 75.0747 310.876 75.1327 311.189C75.1907 311.501 75.3693 311.778 75.63 311.96L75.86 312.08C78.86 313.2 81.63 314.08 85.38 315.56C89.8 317.3 88.47 317.39 93.64 319.5C96.76 320.77 98.73 317.43 97.47 316.74C91.69 313.59 91.78 311.5 90.28 308.41C89.9394 307.79 89.3795 307.319 88.71 307.09V307.09Z" fill="#263238"/>
<path d="M143.19 303.1L143.34 310.43L150.43 311.11L150.86 303.1H143.19Z" fill="#FAB27B"/>
<path opacity="0.2" d="M150.68 306.5L150.78 304.58L143.23 304.89L143.28 307.13L150.68 306.5Z" fill="black"/>
<path d="M104.95 163.27C107.17 152.69 116.03 143.27 116.03 143.27L150.03 145.45C150.03 145.45 152.17 167.29 152.67 174.59C153.67 189.33 157.81 212.22 157.92 227C158.07 247 153.49 300.07 153.49 300.07L140.65 301.59C140.65 301.59 140.84 252.5 138.74 233.99C137.15 219.99 127.57 181.53 127.57 181.53C127.57 181.53 101.24 181.01 104.95 163.27Z" fill="#407BFF"/>
<path d="M138.43 299.52L155.39 298.48L154.28 304.43L139.34 305.05L138.43 299.52Z" fill="#407BFF"/>
<path opacity="0.5" d="M138.43 299.52L155.39 298.48L154.28 304.43L139.34 305.05L138.43 299.52Z" fill="white"/>
<path d="M151.97 311.62C151.931 311.61 151.895 311.589 151.869 311.558C151.842 311.528 151.825 311.49 151.82 311.45C151.812 311.412 151.818 311.372 151.836 311.337C151.854 311.303 151.884 311.275 151.92 311.26C152.05 311.19 154.98 309.66 156.33 310.1C156.584 310.171 156.8 310.34 156.93 310.57C157.016 310.695 157.062 310.843 157.062 310.995C157.062 311.147 157.016 311.295 156.93 311.42C156.21 311.892 155.341 312.08 154.49 311.95C153.642 311.912 152.799 311.801 151.97 311.62ZM152.61 311.38C154.13 311.63 156.2 311.7 156.61 311.18C156.67 311.12 156.72 311 156.61 310.76C156.575 310.686 156.524 310.621 156.46 310.571C156.395 310.52 156.32 310.486 156.24 310.47C156.121 310.431 155.996 310.41 155.87 310.41C154.731 310.521 153.624 310.85 152.61 311.38V311.38Z" fill="#407BFF"/>
<path d="M151.86 311.6C151.834 311.578 151.814 311.55 151.8 311.519C151.786 311.488 151.779 311.454 151.78 311.42C151.78 311.32 152.11 309.12 153.19 308.3C153.342 308.18 153.517 308.092 153.705 308.042C153.892 307.992 154.088 307.981 154.28 308.01C154.81 308.08 154.97 308.36 154.98 308.58C155.12 309.51 153.08 311.22 152.08 311.58C152.068 311.587 152.054 311.591 152.04 311.591C152.026 311.591 152.012 311.587 152 311.58C151.979 311.593 151.956 311.601 151.932 311.604C151.908 311.608 151.883 311.606 151.86 311.6V311.6ZM154.14 308.37C153.891 308.361 153.647 308.439 153.45 308.59C152.813 309.274 152.398 310.135 152.26 311.06C153.26 310.5 154.66 309.16 154.63 308.6C154.63 308.55 154.63 308.41 154.25 308.37H154.14Z" fill="#407BFF"/>
<path d="M151.17 310.44L142.17 310.08C142.005 310.074 141.843 310.125 141.711 310.223C141.578 310.321 141.483 310.461 141.44 310.62L139.53 317.85C139.489 318.002 139.479 318.161 139.499 318.318C139.52 318.474 139.571 318.625 139.65 318.761C139.729 318.898 139.834 319.017 139.96 319.113C140.085 319.209 140.228 319.279 140.38 319.32C140.463 319.33 140.547 319.33 140.63 319.32C143.86 319.39 146.74 319.32 150.77 319.49C155.51 319.68 154.29 320.2 159.87 320.49C163.23 320.67 163.99 316.87 162.58 316.63C156.08 315.55 155.48 313.55 153.06 311.12C152.531 310.676 151.861 310.435 151.17 310.44V310.44Z" fill="#263238"/>
<path d="M140.54 73.03C139.95 74.92 138.47 78.11 140.54 80.96L130.33 79.96C130.33 79.96 131.42 72.43 132.05 69.96C132.46 68.37 132.99 66.64 138.36 68.14C141.44 69.03 140.94 71.75 140.54 73.03Z" fill="#FAB27B"/>
<path d="M131.33 70.24C125.71 65.9 113.83 54.14 125.23 43.87C134.72 35.32 143.44 40.32 146.41 46.1C149.74 52.57 157.29 69.86 140.54 73.03C137.46 73.61 134.25 72.49 131.33 70.24Z" fill="#FAB27B"/>
<path d="M123.3 80.3C123.3 80.3 131.18 73.38 146.15 82.51L145.94 84.65L123.44 82.47L123.3 80.3Z" fill="#407BFF"/>
<path opacity="0.5" d="M123.3 80.3C123.3 80.3 131.18 73.38 146.15 82.51L145.94 84.65L123.44 82.47L123.3 80.3Z" fill="white"/>
<path opacity="0.1" d="M138.39 70.99C138.39 73.3 139.1 74.5 139.93 75.1C140.084 74.3965 140.288 73.7047 140.54 73.03C138.53 72.15 138.39 70.99 138.39 70.99Z" fill="black"/>
<path d="M144.39 82.24C141.15 81.5481 137.875 81.0274 134.58 80.68C128.78 80 124.35 79.55 121.15 80.96C116.05 83.21 115.4 84.65 115.4 84.65L116.4 101.18C117.195 109.155 117.339 117.182 116.83 125.18C116.83 125.25 116.43 140.93 107.96 149.35C111.481 152.206 115.65 154.153 120.1 155.02L124.88 143.58L126.39 155.58C126.39 155.58 143.6 160.68 157.8 155.97C157.8 155.97 150.03 143.55 152.53 130.85C153.74 124.74 154.62 121.85 155.3 117.05C155.692 114.461 155.692 111.829 155.3 109.24L152.11 87.44C152.11 87.44 146.47 82.75 144.39 82.24Z" fill="#407BFF"/>
<path opacity="0.6" d="M144.39 82.24C141.15 81.5481 137.875 81.0274 134.58 80.68C128.78 80 124.35 79.55 121.15 80.96C116.05 83.21 115.4 84.65 115.4 84.65L116.4 101.18C117.195 109.155 117.339 117.182 116.83 125.18C116.83 125.25 116.43 140.93 107.96 149.35C111.481 152.206 115.65 154.153 120.1 155.02L124.88 143.58L126.39 155.58C126.39 155.58 143.6 160.68 157.8 155.97C157.8 155.97 150.03 143.55 152.53 130.85C153.74 124.74 154.62 121.85 155.3 117.05C155.692 114.461 155.692 111.829 155.3 109.24L152.11 87.44C152.11 87.44 146.47 82.75 144.39 82.24Z" fill="black"/>
<path d="M154.28 123.24C154.69 121.03 155.05 118.95 155.28 117.1C155.672 114.511 155.672 111.879 155.28 109.29L150.71 104.15C150.71 104.15 155.11 110.33 154.28 123.24Z" fill="black"/>
<path d="M195.09 99.75L198.25 90.75C198.311 90.5687 198.44 90.4182 198.61 90.33L203.56 87.8C203.694 87.7363 203.844 87.7128 203.991 87.7323C204.138 87.7518 204.277 87.8135 204.39 87.91L207.92 91.01C208.059 91.1335 208.147 91.305 208.166 91.4904C208.184 91.6758 208.132 91.8613 208.02 92.01L204.37 96.81C204.329 96.8652 204.295 96.9258 204.27 96.99C203.99 97.7 202.11 102.19 198.11 103.31L197.96 103.37L196.62 104.08C196.457 104.179 196.262 104.212 196.076 104.171C195.889 104.13 195.726 104.018 195.62 103.86L193.91 101.47C193.845 101.381 193.802 101.278 193.782 101.17C193.762 101.061 193.767 100.95 193.795 100.843C193.824 100.737 193.876 100.638 193.948 100.555C194.02 100.471 194.109 100.405 194.21 100.36L194.66 100.15C194.757 100.119 194.845 100.067 194.92 99.998C194.994 99.9289 195.052 99.8442 195.09 99.75V99.75Z" fill="#FAB27B"/>
<path d="M144.3 82.23C150.29 83.7078 155.543 87.3023 159.09 92.35C163.541 97.9694 168.569 103.107 174.09 107.68C174.09 107.68 185.65 105.22 192.94 98.91L197.22 105.3C197.22 105.3 179.66 118.54 172.51 117.85C166.41 117.26 155.29 109.32 155.29 109.32L150.71 104.18L144.3 82.23Z" fill="#407BFF"/>
<path opacity="0.6" d="M144.3 82.23C150.29 83.7078 155.543 87.3023 159.09 92.35C163.541 97.9694 168.569 103.107 174.09 107.68C174.09 107.68 185.65 105.22 192.94 98.91L197.22 105.3C197.22 105.3 179.66 118.54 172.51 117.85C166.41 117.26 155.29 109.32 155.29 109.32L150.71 104.18L144.3 82.23Z" fill="black"/>
<path d="M193.34 98.11L199.76 106.08L195.46 107.22L190.34 99.73L193.34 98.11Z" fill="#407BFF"/>
<path opacity="0.5" d="M193.34 98.11L199.76 106.08L195.46 107.22L190.34 99.73L193.34 98.11Z" fill="white"/>
<path d="M150.58 59.92V63.02L152.67 62.73L150.58 59.92Z" fill="#E07F50"/>
<path d="M134.19 78.48C129.38 78.97 115.19 79.25 116.88 68.84C118.57 58.43 116.27 53.27 120.68 45.94C125.09 38.61 134.28 36.47 142.55 38.64C149.44 40.44 150 45.26 148.13 48.16C146.26 51.06 145.42 51.6 145.75 53.66C146.08 55.72 144.83 56.87 144.29 57.84C143.695 58.5391 142.94 59.0845 142.09 59.43C141.718 61.4533 141.845 63.5368 142.46 65.5C143.46 69.31 145.5 77.31 134.19 78.48Z" fill="black"/>
<path d="M140.59 38.75C142.902 38.9896 145.153 39.6362 147.24 40.66C148.87 41.5 150.5 42.75 150.87 44.66C151.4 47.41 149.27 50.02 147.58 51.92C147.31 52.23 147.83 52.59 148.09 52.29C151.09 48.93 153.41 44.21 149.01 40.99C146.509 39.3472 143.633 38.3634 140.65 38.13C140.568 38.122 140.486 38.1471 140.422 38.1996C140.358 38.2521 140.318 38.3278 140.31 38.41C140.302 38.4922 140.327 38.5742 140.38 38.638C140.432 38.7017 140.508 38.742 140.59 38.75V38.75Z" fill="black"/>
<path d="M120.71 45.88C117.54 49.99 117.39 55.36 116.71 60.26C116.26 63.72 112.36 70.47 115.12 73.73C115.38 74.04 115.88 73.65 115.62 73.34C113.73 71.11 115.62 67.83 116.26 65.52C116.865 63.2489 117.277 60.9306 117.49 58.59C117.92 54.4 118.49 49.72 121.18 46.26C121.43 45.94 120.92 45.56 120.67 45.88H120.71Z" fill="black"/>
<path d="M148.43 54.02C148.37 54.15 148.48 53.92 148.5 53.89C148.561 53.7702 148.639 53.6592 148.73 53.56C148.867 53.3941 149.051 53.2731 149.258 53.2125C149.465 53.1519 149.685 53.1545 149.89 53.22C150.27 53.31 150.43 52.73 150.05 52.64C149.597 52.5285 149.119 52.5923 148.711 52.8185C148.303 53.0447 147.995 53.4167 147.85 53.86C147.7 54.21 148.28 54.37 148.43 54.02V54.02Z" fill="black"/>
<path d="M145.97 58.58C146.61 60.5 145.97 62.44 144.6 62.91C143.23 63.38 141.6 62.2 140.9 60.27C140.2 58.34 140.9 56.41 142.27 55.94C143.64 55.47 145.32 56.65 145.97 58.58Z" fill="#FAB27B"/>
<path d="M150.71 53.75C150.62 54.47 149.92 54.62 149.56 54.68C149.2 54.74 149.17 55.15 149.24 55.68C149.31 56.21 149.56 56.59 149.8 56.55C150.04 56.51 150.19 56.08 150.13 55.55C150.105 55.4062 150.064 55.2655 150.01 55.13C151.14 54.45 150.71 53.75 150.71 53.75Z" fill="black"/>
</svg>
