<svg width="454" height="707" viewBox="0 0 454 707" fill="none" xmlns="http://www.w3.org/2000/svg">
<g clip-path="url(#clip0)">
<path fill-rule="evenodd" clip-rule="evenodd" d="M454 0H0V566H-108.667H-249.333H-366.556H-390V624.948L-366.556 617.452C-366.045 617.296 -365.524 617.137 -364.992 616.974C-341.071 609.658 -295.202 595.63 -249.333 610.296C-226.806 617.336 -204.278 631.139 -181.751 644.943C-157.389 659.87 -133.028 674.797 -108.667 681.171C-61.7778 693.437 -14.8889 674.015 32 654.252L33.7371 653.532C80.047 634.346 126.357 615.159 172.667 622.563C198.536 626.511 224.406 638.757 250.276 651.002C271.295 660.952 292.314 670.901 313.333 676.4C359.522 688.484 405.711 679.076 429.49 674.232L430.556 674.015L454 668.904V595V566V0Z" fill="url(#paint0_linear)"/>
<path d="M35.6762 152.839C74.0922 161.159 97.4263 197.209 124.958 237.534C152.195 277.965 183.729 322.455 174.631 365.005C165.729 407.666 116.788 448.176 64.6956 451.759C12.7991 455.454 -42.2485 422.222 -71.863 371.458C-101.181 320.588 -105.362 252.292 -80.8021 208.383C-55.9457 164.369 -2.64389 144.847 35.6762 152.839Z" fill="url(#paint1_linear)" fill-opacity="0.49"/>
<path d="M43.7647 190.689C73.9207 197.213 92.2307 225.52 113.835 257.184C135.208 288.93 159.953 323.864 152.802 357.285C145.804 390.793 107.374 422.623 66.4787 425.452C25.7372 428.367 -17.4697 402.282 -40.7066 362.42C-63.7111 322.476 -66.9781 268.838 -47.6875 234.345C-28.1644 199.77 13.6838 184.422 43.7647 190.689Z" fill="url(#paint2_linear)"/>
<path fill-rule="evenodd" clip-rule="evenodd" d="M416.351 -120.282L257.704 -39.4523L257.735 -39.3921L169.199 5.71684L184.206 10.6307C185.021 10.9267 185.881 11.2361 186.782 11.56C202.262 17.1247 229.601 26.9529 239.344 46.076C249.476 65.9626 240.016 96.1989 230.691 126.001L230.612 126.254C221.069 156.605 211.868 186.782 224.425 205.504C233.861 219.625 255.484 227.333 277.222 235.081C284.756 237.767 292.304 240.457 299.363 243.421C326.981 254.47 347.218 269.648 352.393 292.5C354.878 302.859 354.169 314.924 353.46 326.995C352.636 341.008 351.812 355.03 355.984 366.4C363.858 387.749 388.528 400.175 401.344 406.631L401.538 406.728L413.807 413.037L473.024 382.866L472.993 382.806L631.521 302.037L416.351 -120.282Z" fill="url(#paint3_linear)"/>
<path fill-rule="evenodd" clip-rule="evenodd" d="M438.958 -132.1L280.312 -51.2699L280.343 -51.2096L191.806 -6.10064L206.813 -1.18679C207.628 -0.890809 208.489 -0.581379 209.39 -0.257507C224.869 5.30725 252.209 15.1354 261.952 34.2585C272.084 54.1451 262.623 84.3814 253.299 114.183L253.22 114.436C243.677 144.787 234.476 174.964 247.033 193.686C256.469 207.807 278.092 215.515 299.829 223.264C307.364 225.949 314.911 228.64 321.97 231.604C349.588 242.652 369.825 257.831 375.001 280.683C377.485 291.042 376.776 303.106 376.067 315.177C375.244 329.191 374.42 343.212 378.591 354.582C386.466 375.931 411.135 388.357 423.952 394.813L424.145 394.911L436.414 401.22L495.631 371.049L495.6 370.988L654.128 290.219L438.958 -132.1Z" fill="url(#paint4_linear)"/>
<path fill-rule="evenodd" clip-rule="evenodd" d="M466.19 -147L307.544 -66.1701L307.574 -66.1097L219.038 -21.0007L234.045 -16.0869C234.86 -15.7909 235.721 -15.4815 236.621 -15.1576C252.101 -9.59285 279.44 0.235296 289.183 19.3584C299.316 39.245 289.855 69.4813 280.53 99.283L280.451 99.5361C270.908 129.887 261.708 160.064 274.265 178.786C283.7 192.907 305.324 200.615 327.061 208.363C334.595 211.049 342.143 213.74 349.202 216.704C376.82 227.752 397.057 242.931 402.233 265.783C404.717 276.142 404.008 288.206 403.299 300.277C402.475 314.291 401.652 328.312 405.823 339.682C413.697 361.031 438.367 373.457 451.184 379.913L451.377 380.011L463.646 386.32L522.863 356.149L522.832 356.088L681.36 275.319L466.19 -147Z" fill="url(#paint5_linear)"/>
</g>
<defs>
<linearGradient id="paint0_linear" x1="1077" y1="858.738" x2="-303" y2="134.739" gradientUnits="userSpaceOnUse">
<stop stop-color="#5DB9B4"/>
<stop offset="1" stop-color="#5A6CB7"/>
</linearGradient>
<linearGradient id="paint1_linear" x1="245.689" y1="273.397" x2="33.6098" y2="507.861" gradientUnits="userSpaceOnUse">
<stop stop-color="#7E97E1" stop-opacity="0.25"/>
<stop offset="1" stop-color="#67AAB9" stop-opacity="0.19"/>
</linearGradient>
<linearGradient id="paint2_linear" x1="208.605" y1="285.317" x2="41.9906" y2="469.457" gradientUnits="userSpaceOnUse">
<stop stop-color="#9F91EF" stop-opacity="0.22"/>
<stop offset="1" stop-color="#64A9C2" stop-opacity="0.28"/>
</linearGradient>
<linearGradient id="paint3_linear" x1="274.175" y1="-47.8442" x2="489.376" y2="374.535" gradientUnits="userSpaceOnUse">
<stop stop-color="#5A76B6" stop-opacity="0.46"/>
<stop offset="1" stop-color="#368DBD" stop-opacity="0"/>
</linearGradient>
<linearGradient id="paint4_linear" x1="296.783" y1="-59.6618" x2="511.984" y2="362.717" gradientUnits="userSpaceOnUse">
<stop stop-color="#5A76B6" stop-opacity="0.57"/>
<stop offset="1" stop-color="#368DBD" stop-opacity="0"/>
</linearGradient>
<linearGradient id="paint5_linear" x1="324.014" y1="-74.562" x2="539.215" y2="347.817" gradientUnits="userSpaceOnUse">
<stop stop-color="#5A76B6" stop-opacity="0.51"/>
<stop offset="1" stop-color="#368DBD" stop-opacity="0"/>
</linearGradient>
<clipPath id="clip0">
<rect width="454" height="707" fill="white"/>
</clipPath>
</defs>
</svg>
