<svg width="348" height="370" viewBox="0 0 348 370" fill="none" xmlns="http://www.w3.org/2000/svg">
<path d="M209.011 19.0014C192.371 34.0014 183.831 53.7214 174.441 72.5314C165.051 91.3414 153.591 110.611 133.431 122.221C119.131 130.451 97.0312 126.591 81.5912 133.221C56.7412 143.941 46.8912 153.031 40.8912 175.781C33.7512 202.851 88.0712 271.881 140.341 288.001C172.341 297.871 217.101 292.931 241.951 273.411C266.801 253.891 262.741 215.761 266.951 187.531C269.951 167.211 268.371 146.101 276.701 126.831C284.081 109.751 298.811 95.3114 305.431 78.0114C314.231 55.0114 306.431 24.3914 283.641 8.34142C261.221 -7.40858 227.081 2.76142 209.011 19.0014Z" fill="#CFD2ED" fill-opacity="0.35"/>
<path opacity="0.1" d="M184.451 63.1714L146.711 204.331H159.401L196.721 63.1714H184.451Z" fill="white"/>
<path opacity="0.1" d="M204.041 63.1714L166.301 204.331H191.481L228.801 63.1714H204.041Z" fill="white"/>
<path d="M339.901 190.531L347.901 77.2313C347.976 76.3608 347.866 75.4844 347.58 74.6588C347.295 73.8332 346.839 73.0768 346.242 72.4386C345.645 71.8004 344.921 71.2946 344.116 70.954C343.312 70.6134 342.445 70.4456 341.571 70.4613L143.831 70.6313C141.992 70.6567 140.227 71.3645 138.88 72.6173C137.533 73.8701 136.7 75.5786 136.541 77.4113L128.591 190.721C128.518 191.592 128.629 192.469 128.916 193.295C129.203 194.12 129.66 194.876 130.258 195.514C130.855 196.152 131.58 196.658 132.385 196.999C133.19 197.339 134.057 197.507 134.931 197.491L332.591 197.321C334.436 197.303 336.208 196.597 337.56 195.341C338.912 194.085 339.747 192.37 339.901 190.531V190.531Z" fill="#263238"/>
<path d="M337.361 188.061L345.361 74.7614C345.437 73.8906 345.329 73.0135 345.044 72.1872C344.758 71.3609 344.302 70.6039 343.705 69.9653C343.108 69.3268 342.384 68.821 341.578 68.481C340.773 68.1409 339.905 67.9741 339.031 67.9915L141.291 68.1615C139.452 68.1848 137.688 68.8922 136.342 70.1456C134.996 71.399 134.165 73.1088 134.011 74.9415L126.011 188.251C125.937 189.122 126.046 189.998 126.332 190.824C126.618 191.65 127.074 192.406 127.671 193.044C128.267 193.682 128.991 194.188 129.796 194.529C130.601 194.869 131.468 195.037 132.341 195.021L330.071 194.851C331.913 194.828 333.68 194.12 335.028 192.864C336.375 191.609 337.207 189.897 337.361 188.061V188.061Z" fill="#407BFF"/>
<path opacity="0.6" d="M332.121 189.741C331.715 190.115 331.183 190.322 330.631 190.321L132.891 190.491C132.574 190.488 132.261 190.42 131.97 190.292C131.68 190.164 131.418 189.979 131.201 189.747C130.985 189.515 130.817 189.242 130.709 188.944C130.6 188.645 130.554 188.328 130.571 188.011L138.571 74.7114C138.602 74.1612 138.846 73.6448 139.251 73.2714C139.655 72.8937 140.188 72.686 140.741 72.6914L338.481 72.5214C338.799 72.5249 339.112 72.5927 339.402 72.7207C339.693 72.8486 339.954 73.034 340.171 73.2658C340.388 73.4975 340.555 73.7708 340.664 74.0691C340.772 74.3674 340.819 74.6845 340.801 75.0014L332.801 188.301C332.765 188.85 332.522 189.365 332.121 189.741V189.741Z" fill="white"/>
<path d="M266.351 127.451H196.941C196.329 127.462 195.742 127.693 195.288 128.103C194.834 128.513 194.544 129.074 194.471 129.681L193.401 139.831C193.367 140.113 193.394 140.4 193.479 140.671C193.564 140.942 193.706 141.191 193.895 141.403C194.084 141.615 194.316 141.785 194.576 141.9C194.836 142.015 195.117 142.073 195.401 142.071H264.811C265.425 142.059 266.014 141.826 266.469 141.414C266.925 141.003 267.217 140.441 267.291 139.831L268.351 129.681C268.384 129.4 268.356 129.115 268.27 128.845C268.185 128.575 268.042 128.327 267.853 128.116C267.664 127.905 267.433 127.737 267.174 127.622C266.915 127.508 266.634 127.449 266.351 127.451Z" fill="white"/>
<path d="M205.201 168.901H194.371C193.757 168.914 193.169 169.147 192.713 169.559C192.258 169.97 191.966 170.532 191.891 171.141L190.831 181.291C190.799 181.573 190.826 181.858 190.912 182.128C190.998 182.397 191.14 182.646 191.329 182.857C191.518 183.068 191.75 183.236 192.009 183.35C192.268 183.465 192.548 183.523 192.831 183.521H203.661C204.273 183.509 204.861 183.278 205.316 182.868C205.772 182.459 206.064 181.899 206.141 181.291L207.201 171.141C207.235 170.859 207.209 170.573 207.124 170.302C207.039 170.031 206.897 169.781 206.708 169.569C206.518 169.357 206.286 169.188 206.026 169.073C205.767 168.958 205.485 168.899 205.201 168.901Z" fill="white"/>
<path d="M223.901 168.901H213.071C212.457 168.914 211.869 169.147 211.413 169.559C210.958 169.97 210.666 170.532 210.591 171.141L209.531 181.291C209.499 181.573 209.526 181.858 209.612 182.128C209.698 182.397 209.84 182.646 210.029 182.857C210.218 183.068 210.45 183.236 210.709 183.35C210.968 183.465 211.248 183.523 211.531 183.521H222.361C222.973 183.509 223.561 183.278 224.016 182.868C224.472 182.459 224.764 181.899 224.841 181.291L225.901 171.141C225.935 170.859 225.909 170.573 225.824 170.302C225.739 170.031 225.597 169.781 225.408 169.569C225.218 169.357 224.986 169.188 224.726 169.073C224.467 168.958 224.185 168.899 223.901 168.901Z" fill="white"/>
<path d="M242.591 168.901H231.771C231.157 168.914 230.569 169.147 230.113 169.559C229.658 169.97 229.366 170.532 229.291 171.141L228.231 181.291C228.199 181.573 228.226 181.858 228.312 182.128C228.398 182.397 228.54 182.646 228.729 182.857C228.918 183.068 229.15 183.236 229.409 183.35C229.668 183.465 229.948 183.523 230.231 183.521H241.061C241.673 183.509 242.261 183.278 242.716 182.868C243.172 182.459 243.464 181.899 243.541 181.291L244.591 171.141C244.625 170.859 244.599 170.573 244.514 170.302C244.429 170.031 244.287 169.781 244.098 169.569C243.908 169.357 243.676 169.188 243.416 169.073C243.157 168.958 242.875 168.899 242.591 168.901Z" fill="white"/>
<path d="M261.301 168.901H250.471C249.857 168.914 249.269 169.147 248.813 169.559C248.358 169.97 248.066 170.532 247.991 171.141L246.931 181.291C246.899 181.573 246.926 181.858 247.012 182.128C247.098 182.397 247.24 182.646 247.429 182.857C247.618 183.068 247.85 183.236 248.109 183.35C248.368 183.465 248.648 183.523 248.931 183.521H259.761C260.373 183.509 260.961 183.278 261.416 182.868C261.872 182.459 262.164 181.899 262.241 181.291L263.301 171.141C263.335 170.859 263.309 170.573 263.224 170.302C263.139 170.031 262.997 169.781 262.808 169.569C262.618 169.357 262.386 169.188 262.126 169.073C261.867 168.958 261.585 168.899 261.301 168.901Z" fill="white"/>
<path d="M249.061 162.491H205.651C205.095 162.505 204.543 162.397 204.032 162.177C203.522 161.957 203.065 161.63 202.692 161.216C202.32 160.803 202.042 160.315 201.876 159.784C201.71 159.253 201.66 158.693 201.731 158.141L202.251 153.141C202.395 151.984 202.952 150.917 203.819 150.136C204.686 149.356 205.805 148.914 206.971 148.891H250.381C250.938 148.88 251.49 148.988 252.001 149.209C252.511 149.431 252.968 149.759 253.34 150.173C253.712 150.587 253.991 151.076 254.157 151.607C254.323 152.139 254.372 152.699 254.301 153.251L253.781 158.251C253.635 159.407 253.077 160.472 252.211 161.25C251.344 162.029 250.226 162.469 249.061 162.491V162.491ZM206.971 149.901C206.05 149.923 205.168 150.273 204.483 150.89C203.799 151.506 203.358 152.348 203.241 153.261L202.721 158.261C202.666 158.674 202.701 159.094 202.824 159.491C202.947 159.889 203.155 160.255 203.434 160.564C203.713 160.874 204.056 161.118 204.438 161.282C204.821 161.445 205.235 161.524 205.651 161.511H249.061C249.981 161.492 250.864 161.144 251.548 160.529C252.233 159.914 252.674 159.074 252.791 158.161L253.311 153.161C253.367 152.749 253.331 152.329 253.208 151.931C253.085 151.534 252.877 151.168 252.598 150.858C252.32 150.549 251.977 150.304 251.594 150.141C251.211 149.977 250.797 149.899 250.381 149.911L206.971 149.901Z" fill="#407BFF"/>
<path d="M268.851 106.311H199.441C198.829 106.326 198.243 106.56 197.789 106.972C197.336 107.383 197.045 107.944 196.971 108.551L195.901 118.701C195.869 118.983 195.896 119.268 195.982 119.538C196.068 119.807 196.21 120.056 196.399 120.267C196.588 120.478 196.82 120.646 197.079 120.76C197.338 120.875 197.618 120.933 197.901 120.931H267.301C267.913 120.919 268.501 120.688 268.956 120.278C269.412 119.869 269.704 119.309 269.781 118.701L270.841 108.551C270.875 108.27 270.849 107.985 270.765 107.715C270.68 107.444 270.539 107.195 270.351 106.983C270.163 106.771 269.932 106.602 269.673 106.486C269.415 106.37 269.135 106.311 268.851 106.311Z" fill="white"/>
<path d="M205.381 134.761C205.423 134.448 205.397 134.129 205.304 133.827C205.211 133.524 205.053 133.246 204.842 133.01C204.631 132.775 204.372 132.587 204.082 132.462C203.791 132.336 203.477 132.274 203.161 132.281C202.482 132.298 201.831 132.557 201.326 133.012C200.822 133.467 200.497 134.087 200.411 134.761C200.372 135.075 200.401 135.393 200.496 135.694C200.591 135.995 200.75 136.272 200.962 136.506C201.173 136.741 201.433 136.927 201.722 137.052C202.012 137.177 202.326 137.238 202.641 137.231C203.318 137.217 203.968 136.96 204.471 136.507C204.974 136.053 205.297 135.434 205.381 134.761V134.761Z" fill="#263238"/>
<path d="M213.021 134.761C213.062 134.447 213.034 134.128 212.939 133.826C212.845 133.524 212.687 133.245 212.475 133.01C212.263 132.774 212.003 132.587 211.713 132.462C211.422 132.336 211.108 132.275 210.791 132.281C210.112 132.296 209.462 132.554 208.958 133.01C208.455 133.466 208.133 134.087 208.051 134.761C208.011 135.074 208.038 135.392 208.132 135.693C208.226 135.994 208.384 136.271 208.594 136.506C208.805 136.74 209.064 136.927 209.354 137.052C209.643 137.177 209.956 137.238 210.271 137.231C210.95 137.218 211.6 136.961 212.105 136.507C212.61 136.054 212.935 135.434 213.021 134.761V134.761Z" fill="#263238"/>
<path d="M220.651 134.761C220.692 134.447 220.664 134.128 220.569 133.826C220.475 133.524 220.317 133.245 220.105 133.01C219.893 132.774 219.633 132.587 219.343 132.462C219.052 132.336 218.738 132.275 218.421 132.281C217.742 132.296 217.092 132.554 216.588 133.01C216.085 133.466 215.763 134.087 215.681 134.761C215.642 135.075 215.671 135.393 215.766 135.694C215.861 135.995 216.02 136.272 216.232 136.506C216.443 136.74 216.703 136.927 216.992 137.052C217.282 137.177 217.596 137.238 217.911 137.231C218.588 137.217 219.238 136.96 219.741 136.507C220.244 136.053 220.567 135.434 220.651 134.761V134.761Z" fill="#263238"/>
<path d="M228.281 134.761C228.323 134.448 228.297 134.129 228.204 133.827C228.111 133.524 227.953 133.246 227.742 133.01C227.531 132.775 227.272 132.587 226.982 132.462C226.691 132.336 226.377 132.274 226.061 132.281C225.382 132.296 224.732 132.554 224.228 133.01C223.725 133.466 223.403 134.087 223.321 134.761C223.28 135.078 223.308 135.4 223.405 135.704C223.502 136.008 223.664 136.288 223.881 136.523C224.097 136.757 224.363 136.941 224.658 137.062C224.954 137.183 225.272 137.237 225.591 137.221C226.258 137.196 226.895 136.935 227.387 136.485C227.88 136.034 228.197 135.424 228.281 134.761V134.761Z" fill="#263238"/>
<path d="M236.071 134.761C236.112 134.447 236.084 134.128 235.989 133.826C235.895 133.524 235.737 133.245 235.525 133.01C235.313 132.774 235.053 132.587 234.763 132.462C234.472 132.336 234.158 132.275 233.841 132.281C233.162 132.296 232.512 132.554 232.008 133.01C231.505 133.466 231.183 134.087 231.101 134.761C231.061 135.074 231.088 135.392 231.182 135.693C231.276 135.994 231.434 136.271 231.644 136.506C231.855 136.74 232.114 136.927 232.404 137.052C232.693 137.177 233.006 137.238 233.321 137.231C234 137.218 234.65 136.961 235.155 136.507C235.66 136.054 235.985 135.434 236.071 134.761V134.761Z" fill="#263238"/>
<path d="M207.881 113.621C207.923 113.308 207.897 112.99 207.804 112.688C207.711 112.386 207.553 112.108 207.342 111.873C207.131 111.638 206.871 111.452 206.581 111.328C206.291 111.203 205.977 111.143 205.661 111.151C204.984 111.165 204.334 111.423 203.831 111.876C203.328 112.33 203.005 112.949 202.921 113.621C202.879 113.934 202.905 114.253 202.999 114.555C203.092 114.857 203.249 115.135 203.46 115.37C203.672 115.604 203.931 115.791 204.221 115.915C204.512 116.04 204.825 116.1 205.141 116.091C205.819 116.08 206.47 115.823 206.973 115.369C207.477 114.915 207.799 114.294 207.881 113.621V113.621Z" fill="#263238"/>
<path d="M215.521 113.621C215.56 113.308 215.531 112.99 215.436 112.689C215.341 112.388 215.182 112.111 214.971 111.877C214.759 111.642 214.5 111.456 214.21 111.331C213.92 111.206 213.607 111.145 213.291 111.151C212.621 111.175 211.981 111.436 211.486 111.889C210.991 112.342 210.674 112.956 210.591 113.621C210.551 113.934 210.578 114.252 210.672 114.553C210.766 114.854 210.924 115.131 211.134 115.366C211.345 115.6 211.604 115.787 211.894 115.912C212.183 116.037 212.496 116.098 212.811 116.091C213.483 116.07 214.126 115.81 214.622 115.357C215.119 114.904 215.438 114.289 215.521 113.621V113.621Z" fill="#263238"/>
<path d="M223.151 113.621C223.192 113.309 223.164 112.991 223.07 112.69C222.977 112.389 222.819 112.111 222.608 111.877C222.397 111.642 222.138 111.456 221.849 111.331C221.56 111.206 221.246 111.144 220.931 111.151C220.253 111.165 219.602 111.422 219.097 111.875C218.592 112.329 218.267 112.948 218.181 113.621C218.141 113.935 218.169 114.254 218.263 114.555C218.357 114.857 218.516 115.135 218.728 115.37C218.94 115.604 219.2 115.79 219.49 115.915C219.781 116.04 220.095 116.1 220.411 116.091C221.089 116.079 221.74 115.823 222.243 115.369C222.747 114.915 223.069 114.294 223.151 113.621V113.621Z" fill="#263238"/>
<path d="M230.781 113.621C230.823 113.308 230.797 112.99 230.704 112.688C230.611 112.386 230.453 112.108 230.242 111.873C230.031 111.638 229.771 111.452 229.481 111.328C229.191 111.203 228.877 111.143 228.561 111.151C227.884 111.165 227.234 111.423 226.731 111.876C226.228 112.33 225.905 112.949 225.821 113.621C225.779 113.934 225.805 114.253 225.899 114.555C225.992 114.857 226.149 115.135 226.36 115.37C226.572 115.604 226.831 115.791 227.121 115.915C227.412 116.04 227.725 116.1 228.041 116.091C228.719 116.08 229.37 115.823 229.873 115.369C230.377 114.915 230.699 114.294 230.781 113.621Z" fill="#263238"/>
<path d="M238.421 113.621C238.46 113.308 238.431 112.99 238.336 112.689C238.241 112.388 238.082 112.111 237.871 111.877C237.659 111.642 237.4 111.456 237.11 111.331C236.82 111.206 236.507 111.145 236.191 111.151C235.514 111.165 234.864 111.423 234.361 111.876C233.858 112.33 233.535 112.949 233.451 113.621C233.411 113.935 233.439 114.254 233.533 114.555C233.627 114.857 233.786 115.135 233.998 115.37C234.21 115.604 234.47 115.79 234.76 115.915C235.051 116.04 235.365 116.1 235.681 116.091C236.359 116.079 237.01 115.823 237.513 115.369C238.017 114.915 238.339 114.294 238.421 113.621V113.621Z" fill="#263238"/>
<path d="M246.051 113.621C246.092 113.309 246.064 112.991 245.97 112.69C245.877 112.389 245.719 112.111 245.508 111.877C245.297 111.642 245.038 111.456 244.749 111.331C244.46 111.206 244.146 111.144 243.831 111.151C243.153 111.165 242.502 111.422 241.997 111.875C241.492 112.329 241.167 112.948 241.081 113.621C241.041 113.935 241.069 114.254 241.163 114.555C241.257 114.857 241.416 115.135 241.628 115.37C241.84 115.604 242.1 115.79 242.39 115.915C242.681 116.04 242.995 116.1 243.311 116.091C243.989 116.079 244.64 115.823 245.143 115.369C245.647 114.915 245.969 114.294 246.051 113.621V113.621Z" fill="#263238"/>
<path d="M239.591 83.9313L239.051 89.0613C239.013 89.2845 238.9 89.4882 238.731 89.639C238.562 89.7897 238.347 89.8787 238.121 89.8913C238.015 89.8953 237.909 89.8758 237.81 89.8343C237.712 89.7929 237.624 89.7304 237.553 89.6512C237.481 89.5721 237.428 89.4783 237.397 89.3764C237.365 89.2745 237.357 89.1669 237.371 89.0613L237.911 83.9313C237.959 83.5515 237.924 83.1659 237.809 82.8007C237.694 82.4355 237.502 82.0992 237.246 81.8147C236.99 81.5302 236.676 81.3041 236.325 81.1516C235.974 80.9992 235.594 80.9241 235.211 80.9313H233.361C232.539 80.9509 231.751 81.2642 231.141 81.8146C230.53 82.3649 230.136 83.1158 230.031 83.9313L229.561 88.6913H227.881L228.351 83.9313C228.51 82.6588 229.122 81.486 230.075 80.6283C231.028 79.7705 232.259 79.2852 233.541 79.2613H235.381C235.978 79.2463 236.572 79.3606 237.12 79.5965C237.669 79.8324 238.16 80.1843 238.56 80.628C238.96 81.0716 239.26 81.5966 239.438 82.1668C239.615 82.737 239.668 83.3389 239.591 83.9313Z" fill="#407BFF"/>
<path d="M239.591 88.8714L238.541 98.8714C238.501 99.1818 238.35 99.4674 238.117 99.6765C237.884 99.8857 237.584 100.004 237.271 100.011H227.271C227.127 100.013 226.985 99.9831 226.853 99.9243C226.722 99.8655 226.605 99.7791 226.51 99.6709C226.415 99.5626 226.344 99.4351 226.303 99.2971C226.262 99.1592 226.251 99.0139 226.271 98.8714L227.321 88.8714C227.341 88.6658 227.409 88.4679 227.52 88.294C227.632 88.1201 227.783 87.9752 227.961 87.8714C228.152 87.7595 228.37 87.7008 228.591 87.7014H238.591C238.796 87.6992 238.997 87.7547 239.171 87.8614C239.332 87.9707 239.457 88.1245 239.532 88.3038C239.606 88.4832 239.627 88.6804 239.591 88.8714V88.8714Z" fill="#407BFF"/>
<path d="M293.461 67.9714C293.329 67.9714 293.201 67.9187 293.108 67.825C293.014 67.7312 292.961 67.604 292.961 67.4714C292.961 67.3388 293.014 67.2116 293.108 67.1179C293.201 67.0241 293.329 66.9714 293.461 66.9714L317.901 66.8314C318.034 66.8314 318.161 66.8841 318.255 66.9779C318.349 67.0716 318.401 67.1988 318.401 67.3314C318.401 67.464 318.349 67.5912 318.255 67.685C318.161 67.7787 318.034 67.8314 317.901 67.8314L293.471 67.9714H293.461Z" fill="#263238"/>
<path d="M322.591 67.8014C322.459 67.8014 322.331 67.7487 322.238 67.6549C322.144 67.5612 322.091 67.434 322.091 67.3014C322.091 67.1688 322.144 67.0416 322.238 66.9478C322.331 66.8541 322.459 66.8014 322.591 66.8014H331.231C331.364 66.8014 331.491 66.8541 331.585 66.9478C331.679 67.0416 331.731 67.1688 331.731 67.3014C331.731 67.434 331.679 67.5612 331.585 67.6549C331.491 67.7487 331.364 67.8014 331.231 67.8014H322.591Z" fill="#263238"/>
<g opacity="0.3">
<path opacity="0.3" d="M159.691 72.6614H187.691L159.221 190.491H136.651C136 190.479 135.36 190.319 134.779 190.024C134.199 189.729 133.692 189.306 133.298 188.788C132.904 188.269 132.632 187.668 132.502 187.03C132.373 186.392 132.39 185.732 132.551 185.101L159.691 72.6614Z" fill="white"/>
<path opacity="0.3" d="M200.091 72.6614H211.961L183.521 190.491H171.651L200.091 72.6614Z" fill="white"/>
</g>
<path d="M11.2412 35.8814H16.9212C15.5906 35.8625 14.2707 36.1228 13.0469 36.6454C11.823 37.1681 10.7223 37.9415 9.81582 38.9159C8.90934 39.8902 8.2172 41.0437 7.78408 42.3021C7.35096 43.5604 7.18647 44.8956 7.30123 46.2214L19.3512 218.521C19.5797 221.311 20.8391 223.916 22.8839 225.828C24.9287 227.74 27.6123 228.821 30.4112 228.861H24.7412C21.9412 228.821 19.2564 227.74 17.21 225.829C15.1635 223.917 13.902 221.312 13.6712 218.521L1.59123 46.2214C1.47618 44.893 1.64146 43.5553 2.07637 42.2949C2.51128 41.0344 3.20611 39.8794 4.11586 38.9046C5.02561 37.9298 6.12998 37.157 7.35744 36.6362C8.5849 36.1154 9.90807 35.8583 11.2412 35.8814Z" fill="#407BFF"/>
<path d="M11.2412 35.8815H16.9212C15.5905 35.8625 14.2707 36.1228 13.0468 36.6454C11.823 37.1681 10.7223 37.9415 9.8158 38.9159C8.90932 39.8902 8.21718 41.0438 7.78406 42.3021C7.35094 43.5604 7.18645 44.8956 7.30121 46.2215L19.3512 218.521C19.5796 221.311 20.8391 223.916 22.8839 225.828C24.9287 227.74 27.6122 228.821 30.4112 228.861H24.7412C19.0312 228.861 13.2712 224.231 12.8712 218.521L0.821214 46.2215C0.421214 40.5115 5.53121 35.8815 11.2412 35.8815Z" fill="#263238"/>
<path d="M26.4312 228.871H95.9312C97.2652 228.896 98.5895 228.64 99.8181 228.12C101.047 227.6 102.152 226.827 103.063 225.852C103.974 224.877 104.67 223.722 105.105 222.46C105.541 221.199 105.706 219.861 105.591 218.531L93.5012 46.2215C93.275 43.4281 92.0152 40.8194 89.968 38.9054C87.9209 36.9914 85.2335 35.9096 82.4312 35.8715H12.9412C11.6096 35.8524 10.2889 36.1129 9.06425 36.6362C7.83964 37.1594 6.73845 37.9338 5.83181 38.9092C4.92517 39.8847 4.23326 41.0395 3.80081 42.299C3.36836 43.5586 3.20498 44.8948 3.32122 46.2215L15.3212 218.521C15.5503 221.321 16.8165 223.934 18.8716 225.848C20.9267 227.763 23.6227 228.841 26.4312 228.871Z" fill="#407BFF"/>
<g opacity="0.6">
<path opacity="0.6" d="M82.2512 39.2214C84.1983 39.2522 86.0642 40.0065 87.4857 41.3374C88.9072 42.6683 89.7825 44.4806 89.9412 46.4214L101.991 218.721C102.073 219.601 101.968 220.487 101.684 221.323C101.399 222.159 100.941 222.926 100.34 223.572C99.7384 224.219 99.0072 224.732 98.194 225.076C97.3809 225.42 96.5041 225.589 95.6212 225.571H26.1312C24.1831 225.541 22.316 224.787 20.8928 223.456C19.4697 222.126 18.5923 220.313 18.4312 218.371L6.43122 46.0714C6.34986 45.1964 6.45337 44.314 6.735 43.4816C7.01664 42.6491 7.47013 41.8851 8.06605 41.2392C8.66197 40.5934 9.38702 40.0799 10.1942 39.7323C11.0013 39.3847 11.8725 39.2106 12.7512 39.2214H82.2512Z" fill="white"/>
</g>
<g opacity="0.3">
<path opacity="0.3" d="M62.5912 225.551H34.9012L57.7612 39.2214H80.0712C81.0346 39.2178 81.9884 39.4131 82.8728 39.7951C83.7573 40.1771 84.5533 40.7375 85.2112 41.4414L62.5912 225.551Z" fill="white"/>
<path opacity="0.3" d="M29.9312 225.551H23.6912L46.5512 39.2014H52.7912L29.9312 225.551Z" fill="white"/>
</g>
<path d="M78.1112 121.121H27.7712C27.6386 121.121 27.5114 121.069 27.4177 120.975C27.3239 120.881 27.2712 120.754 27.2712 120.621C27.2712 120.489 27.3239 120.362 27.4177 120.268C27.5114 120.174 27.6386 120.121 27.7712 120.121H78.1112C78.243 120.124 78.3687 120.178 78.4619 120.271C78.5552 120.364 78.6087 120.49 78.6112 120.621C78.6112 120.754 78.5585 120.881 78.4648 120.975C78.371 121.069 78.2438 121.121 78.1112 121.121Z" fill="white"/>
<path d="M73.6912 128.571H34.2612C34.1286 128.571 34.0014 128.519 33.9077 128.425C33.8139 128.331 33.7612 128.204 33.7612 128.071C33.7612 127.939 33.8139 127.812 33.9077 127.718C34.0014 127.624 34.1286 127.571 34.2612 127.571H73.6912C73.8238 127.571 73.951 127.624 74.0448 127.718C74.1386 127.812 74.1912 127.939 74.1912 128.071C74.1912 128.204 74.1386 128.331 74.0448 128.425C73.951 128.519 73.8238 128.571 73.6912 128.571Z" fill="white"/>
<path d="M29.2712 86.3014L29.3412 88.3014H28.0512L27.9812 86.3014L25.6912 82.7114H27.0612L28.6412 85.1914L30.0412 82.7114H31.3112L29.2712 86.3014Z" fill="#407BFF"/>
<path d="M31.3612 85.4814C31.3442 85.0884 31.4111 84.6962 31.5575 84.3309C31.7039 83.9657 31.9265 83.6359 32.2103 83.3634C32.4941 83.0909 32.8328 82.8821 33.2036 82.7507C33.5745 82.6193 33.9691 82.5684 34.3612 82.6015C34.7577 82.5813 35.1543 82.64 35.5279 82.7743C35.9015 82.9085 36.2448 83.1156 36.5378 83.3835C36.8308 83.6514 37.0677 83.9748 37.2348 84.3349C37.4019 84.695 37.4958 85.0847 37.5112 85.4814C37.5297 85.8754 37.4639 86.2687 37.3181 86.6351C37.1723 87.0015 36.95 87.3326 36.666 87.6062C36.382 87.8798 36.0429 88.0896 35.6713 88.2215C35.2997 88.3535 34.9042 88.4046 34.5112 88.3714C34.1139 88.3916 33.7166 88.3325 33.3423 88.1976C32.968 88.0628 32.6243 87.8548 32.3312 87.5859C32.0381 87.317 31.8013 86.9924 31.6348 86.6311C31.4683 86.2698 31.3753 85.879 31.3612 85.4814V85.4814ZM36.1612 85.4814C36.1626 85.2448 36.1165 85.0102 36.0257 84.7916C35.9348 84.5731 35.8011 84.375 35.6323 84.209C35.4636 84.043 35.2632 83.9126 35.0432 83.8254C34.8231 83.7383 34.5878 83.6961 34.3512 83.7014C34.1193 83.6917 33.888 83.7319 33.673 83.8193C33.458 83.9067 33.2643 84.0393 33.105 84.2081C32.9457 84.3769 32.8245 84.5779 32.7497 84.7976C32.6748 85.0173 32.6481 85.2505 32.6712 85.4814C32.6685 85.719 32.7136 85.9546 32.8038 86.1743C32.894 86.3941 33.0276 86.5934 33.1965 86.7604C33.3654 86.9275 33.5662 87.0588 33.7869 87.1466C34.0076 87.2344 34.2437 87.2768 34.4812 87.2715C34.7131 87.2781 34.9438 87.2354 35.1581 87.1463C35.3723 87.0572 35.5652 86.9236 35.724 86.7545C35.8827 86.5853 36.0038 86.3843 36.0792 86.1649C36.1546 85.9454 36.1825 85.7125 36.1612 85.4814Z" fill="#407BFF"/>
<path d="M38.4012 85.8214L38.3012 82.6914H39.5912L39.6912 85.7714C39.6912 86.8314 40.2112 87.2714 40.9912 87.2714C41.7712 87.2714 42.2112 86.8314 42.1812 85.7714L42.0712 82.6914H43.3412L43.4512 85.8214C43.5038 86.1578 43.4782 86.5018 43.3766 86.8268C43.2749 87.1518 43.0999 87.449 42.8649 87.6956C42.63 87.9421 42.3416 88.1312 42.0219 88.2484C41.7022 88.3656 41.3598 88.4077 41.0212 88.3714C40.6754 88.4023 40.327 88.3582 39.9998 88.2419C39.6727 88.1257 39.3745 87.9402 39.1257 87.698C38.8769 87.4559 38.6833 87.1628 38.5583 86.8389C38.4332 86.515 38.3797 86.1679 38.4012 85.8214V85.8214Z" fill="#407BFF"/>
<path d="M48.3712 88.2814L47.2412 86.7214H46.0512L46.1112 88.2814H44.8212L44.6212 82.6914H47.0412C48.5312 82.6914 49.4912 83.4714 49.5312 84.6914C49.5636 85.0631 49.475 85.4353 49.2785 85.7524C49.0821 86.0696 48.7884 86.3148 48.4412 86.4514L49.7612 88.2514L48.3712 88.2814ZM47.0012 83.7514H46.0012L46.0712 85.6914H47.0712C47.8612 85.6914 48.2412 85.3314 48.2212 84.6914C48.2012 84.0514 47.7912 83.7514 47.0012 83.7514Z" fill="#407BFF"/>
<path d="M52.4912 85.4814C52.4705 85.0943 52.5322 84.7072 52.6722 84.3458C52.8122 83.9843 53.0273 83.6566 53.3032 83.3844C53.5792 83.1122 53.9098 82.9017 54.2732 82.7667C54.6366 82.6317 55.0245 82.5754 55.4112 82.6014C55.849 82.5879 56.2845 82.6704 56.687 82.8431C57.0896 83.0159 57.4494 83.2747 57.7412 83.6014L56.9412 84.3614C56.7643 84.1558 56.5447 83.9912 56.2978 83.879C56.0508 83.7667 55.7824 83.7095 55.5112 83.7114C55.2769 83.6991 55.0427 83.7371 54.8244 83.8231C54.606 83.909 54.4087 84.0408 54.2457 84.2095C54.0826 84.3782 53.9577 84.58 53.8793 84.8011C53.8009 85.0223 53.7708 85.2577 53.7912 85.4914C53.7897 85.732 53.8369 85.9704 53.9301 86.1922C54.0233 86.4141 54.1605 86.6147 54.3334 86.782C54.5064 86.9493 54.7114 87.0798 54.9362 87.1656C55.1609 87.2515 55.4008 87.2909 55.6412 87.2814C55.9068 87.2868 56.17 87.23 56.4096 87.1154C56.6493 87.0008 56.8587 86.8316 57.0212 86.6214L57.8712 87.3814C57.5992 87.7135 57.2529 87.977 56.8604 88.1507C56.4678 88.3244 56.0399 88.4034 55.6112 88.3814C55.2155 88.3974 54.8206 88.335 54.4492 88.1977C54.0778 88.0603 53.7372 87.8508 53.4472 87.5812C53.1571 87.3116 52.9233 86.9873 52.7593 86.6269C52.5952 86.2665 52.5041 85.8772 52.4912 85.4814V85.4814Z" fill="#407BFF"/>
<path d="M58.2112 85.4815C58.1949 85.0929 58.2607 84.7053 58.4041 84.3438C58.5475 83.9823 58.7655 83.6551 59.0438 83.3834C59.3221 83.1117 59.6544 82.9017 60.0192 82.767C60.3841 82.6322 60.7732 82.5759 61.1612 82.6015C61.5577 82.5813 61.9543 82.6401 62.3279 82.7743C62.7015 82.9086 63.0448 83.1156 63.3378 83.3835C63.6308 83.6514 63.8677 83.9748 64.0348 84.3349C64.2019 84.695 64.2959 85.0848 64.3112 85.4815C64.329 85.8708 64.2643 86.2596 64.1215 86.6223C63.9787 86.985 63.761 87.3134 63.4826 87.5862C63.2041 87.859 62.8713 88.0699 62.5057 88.2052C62.1402 88.3406 61.7502 88.3972 61.3612 88.3715C60.9639 88.3916 60.5666 88.3325 60.1923 88.1977C59.8181 88.0628 59.4744 87.8549 59.1812 87.5859C58.8881 87.317 58.6514 86.9924 58.4849 86.6311C58.3183 86.2698 58.2253 85.879 58.2112 85.4815V85.4815ZM63.0012 85.4815C63.004 85.2453 62.9591 85.0109 62.8694 84.7924C62.7797 84.5739 62.6469 84.3757 62.4789 84.2096C62.3109 84.0435 62.1112 83.9129 61.8917 83.8256C61.6722 83.7383 61.4374 83.6961 61.2012 83.7015C60.9693 83.6917 60.7381 83.7319 60.5231 83.8193C60.3081 83.9067 60.1144 84.0393 59.9551 84.2081C59.7957 84.3769 59.6746 84.5779 59.5997 84.7976C59.5249 85.0173 59.4981 85.2505 59.5212 85.4815C59.5171 85.7185 59.561 85.9539 59.6501 86.1736C59.7392 86.3933 59.8718 86.5927 60.0399 86.7599C60.208 86.9271 60.4082 87.0586 60.6284 87.1465C60.8486 87.2344 61.0842 87.2769 61.3212 87.2715C61.5536 87.2797 61.7851 87.2382 62.0001 87.1496C62.2151 87.0611 62.4086 86.9275 62.5677 86.758C62.7269 86.5884 62.8479 86.3868 62.9226 86.1666C62.9974 85.9465 63.0242 85.7128 63.0012 85.4815V85.4815Z" fill="#407BFF"/>
<path d="M65.1912 82.6915H67.7212C68.1153 82.6529 68.5131 82.6958 68.89 82.8174C69.2668 82.939 69.6146 83.1367 69.9119 83.3983C70.2091 83.6599 70.4494 83.9798 70.6179 84.3382C70.7864 84.6965 70.8794 85.0857 70.8912 85.4814C70.9134 85.8724 70.8492 86.2635 70.7034 86.6269C70.5576 86.9903 70.3336 87.3172 70.0473 87.5844C69.761 87.8516 69.4195 88.0525 69.0469 88.173C68.6743 88.2934 68.2797 88.3305 67.8912 88.2815H65.3512L65.1912 82.6915ZM67.8212 87.2215C68.0571 87.2459 68.2954 87.218 68.5192 87.1396C68.743 87.0612 68.9468 86.9344 69.1159 86.7682C69.285 86.6019 69.4152 86.4004 69.4974 86.178C69.5796 85.9555 69.6116 85.7177 69.5912 85.4814C69.5907 85.2406 69.5402 85.0025 69.443 84.7822C69.3457 84.5618 69.2037 84.3641 69.0261 84.2015C68.8484 84.0389 68.6389 83.9149 68.4109 83.8374C68.1828 83.76 67.9412 83.7307 67.7012 83.7515H66.5212L66.6412 87.2215H67.8212Z" fill="#407BFF"/>
<path d="M76.2512 87.2215V88.2215H71.9312L71.7312 82.6315H75.9512V83.6315H73.0912V84.8415H75.6812V85.8415H73.0912V87.1315L76.2512 87.2215Z" fill="#407BFF"/>
<path d="M38.9712 109.031V111.271H28.4812V109.501L34.0612 104.111C35.4212 102.781 35.6512 101.951 35.6412 101.111C35.6412 99.8115 34.7012 99.0515 32.9512 99.0515C32.3194 99.0196 31.6891 99.1381 31.112 99.3971C30.5348 99.6561 30.0274 100.048 29.6312 100.541L27.7512 99.1115C28.3976 98.3209 29.2222 97.6947 30.1574 97.2845C31.0926 96.8743 32.1118 96.6916 33.1312 96.7515C36.2312 96.7515 38.2612 98.3215 38.3012 100.851C38.3012 102.231 37.9612 103.501 36.0212 105.361L32.2712 108.991L38.9712 109.031Z" fill="#263238"/>
<path d="M50.5912 106.991C50.5912 109.391 48.8512 111.471 45.0212 111.471C43.0921 111.506 41.2017 110.928 39.6212 109.821L40.7312 107.761C41.9362 108.691 43.4193 109.188 44.9412 109.171C46.8312 109.171 47.9412 108.331 47.9412 107.011C47.9412 105.691 46.9412 104.881 44.8012 104.881H43.5012V103.071L46.5912 99.2215H40.1012V97.0015H49.8412V98.7815L46.4412 102.901C49.1712 103.221 50.5912 104.841 50.5912 106.991Z" fill="#263238"/>
<path d="M63.9312 107.221C63.9312 109.871 61.7012 111.521 58.1512 111.521C54.6012 111.521 52.3012 109.871 52.2612 107.221C52.2312 106.493 52.4288 105.773 52.8267 105.162C53.2245 104.551 53.8028 104.079 54.4812 103.811C53.9275 103.531 53.463 103.101 53.1398 102.572C52.8165 102.042 52.6474 101.432 52.6512 100.811C52.6512 98.3614 54.7312 96.8114 57.8912 96.8114C61.0512 96.8114 63.2612 98.3414 63.3012 100.811C63.3322 101.429 63.1821 102.041 62.8694 102.574C62.5567 103.107 62.0951 103.537 61.5412 103.811C62.2366 104.073 62.8368 104.539 63.2632 105.147C63.6896 105.755 63.9225 106.478 63.9312 107.221V107.221ZM61.2512 107.141C61.2512 105.731 59.9912 104.851 58.0312 104.851C56.0712 104.851 54.9012 105.731 54.9312 107.141C54.9612 108.551 56.1512 109.441 58.1112 109.441C60.0712 109.441 61.2812 108.541 61.2512 107.091V107.141ZM55.2512 100.941C55.2512 102.161 56.2512 102.941 57.9812 102.941C59.7112 102.941 60.7012 102.161 60.6712 100.941C60.6412 99.7214 59.5412 98.9414 57.9012 98.9414C56.2612 98.9414 55.2512 99.6014 55.2712 100.891L55.2512 100.941Z" fill="#263238"/>
<path d="M77.2312 107.221C77.2312 109.871 75.0012 111.521 71.4512 111.521C67.9012 111.521 65.5912 109.821 65.5912 107.221C65.5627 106.493 65.7609 105.774 66.1586 105.163C66.5562 104.552 67.1337 104.08 67.8112 103.811C67.2572 103.532 66.7928 103.103 66.471 102.572C66.1492 102.042 65.9829 101.432 65.9912 100.811C65.9412 98.3614 68.0612 96.8114 71.2212 96.8114C74.3812 96.8114 76.5912 98.3414 76.6312 100.811C76.6622 101.429 76.5121 102.041 76.1994 102.574C75.8867 103.107 75.425 103.537 74.8712 103.811C75.561 104.078 76.1547 104.545 76.5755 105.154C76.9964 105.762 77.2248 106.482 77.2312 107.221V107.221ZM74.5512 107.141C74.5512 105.731 73.2912 104.851 71.3312 104.851C69.3712 104.851 68.2012 105.731 68.2312 107.141C68.2612 108.551 69.4512 109.441 71.4112 109.441C73.3712 109.441 74.5912 108.541 74.5912 107.091L74.5512 107.141ZM68.5512 100.941C68.5512 102.161 69.6012 102.941 71.2812 102.941C72.9612 102.941 74.0012 102.161 73.9812 100.941C73.9612 99.7214 72.8412 98.9414 71.2112 98.9414C69.5812 98.9414 68.5912 99.6014 68.5912 100.891L68.5512 100.941Z" fill="#263238"/>
<path d="M3.0812 85.5314C2.95363 85.5316 2.8308 85.4831 2.73785 85.3957C2.6449 85.3083 2.58886 85.1887 2.5812 85.0614L0.811207 60.8914C0.802928 60.7603 0.846529 60.6313 0.932598 60.5321C1.01867 60.433 1.1403 60.3716 1.27121 60.3614C1.40331 60.353 1.53351 60.3963 1.63428 60.4821C1.73505 60.568 1.7985 60.6896 1.81121 60.8214L3.59121 84.9914C3.59667 85.0571 3.58909 85.1232 3.5689 85.186C3.54871 85.2487 3.51631 85.3069 3.47355 85.3571C3.4308 85.4073 3.37854 85.4485 3.31978 85.4784C3.26103 85.5083 3.19694 85.5263 3.13121 85.5314H3.0812Z" fill="#407BFF"/>
<path d="M0.971217 56.7214C0.845257 56.7218 0.72379 56.6747 0.631091 56.5894C0.538393 56.5041 0.481293 56.387 0.471217 56.2614L0.00122357 49.8814C-0.00337269 49.8158 0.00500845 49.7499 0.0258894 49.6874C0.0467704 49.625 0.0797408 49.5673 0.12292 49.5176C0.210124 49.4173 0.333612 49.3557 0.46622 49.3464C0.598828 49.3372 0.729696 49.3809 0.830028 49.4681C0.93036 49.5553 0.991941 49.6788 1.00122 49.8114L1.47122 56.1914C1.4795 56.3225 1.4359 56.4515 1.34983 56.5507C1.26376 56.6499 1.14213 56.7112 1.01122 56.7214H0.971217Z" fill="#407BFF"/>
<path d="M47.9612 26.3114C47.8286 26.3114 47.7014 26.2588 47.6077 26.165C47.5139 26.0712 47.4612 25.944 47.4612 25.8114V11.1014C47.4612 10.9688 47.5139 10.8417 47.6077 10.7479C47.7014 10.6541 47.8286 10.6014 47.9612 10.6014C48.0938 10.6014 48.221 10.6541 48.3148 10.7479C48.4085 10.8417 48.4612 10.9688 48.4612 11.1014V25.8114C48.4612 25.944 48.4085 26.0712 48.3148 26.165C48.221 26.2588 48.0938 26.3114 47.9612 26.3114Z" fill="#407BFF"/>
<path d="M36.3112 29.4314C36.224 29.4309 36.1384 29.4075 36.0629 29.3637C35.9875 29.3198 35.9249 29.257 35.8812 29.1814L28.5212 16.4414C28.4549 16.3261 28.4372 16.1891 28.4719 16.0606C28.5065 15.9321 28.5909 15.8227 28.7062 15.7564C28.8216 15.6901 28.9586 15.6724 29.087 15.7071C29.2155 15.7417 29.3249 15.8261 29.3912 15.9414L36.7412 28.6814C36.7751 28.7376 36.7973 28.8001 36.8065 28.865C36.8158 28.9299 36.8119 28.9961 36.7951 29.0595C36.7783 29.1229 36.749 29.1823 36.7088 29.2342C36.6686 29.286 36.6184 29.3293 36.5612 29.3614C36.4847 29.4044 36.3989 29.4284 36.3112 29.4314V29.4314Z" fill="#407BFF"/>
<path d="M59.5912 29.4314C59.5043 29.4318 59.4185 29.4113 59.3412 29.3714C59.227 29.3027 59.1442 29.1921 59.1106 29.0631C59.0769 28.9342 59.0951 28.7971 59.1612 28.6814L66.5112 15.9414C66.5775 15.8261 66.6869 15.7417 66.8154 15.7071C66.9439 15.6724 67.0808 15.6901 67.1962 15.7564C67.3116 15.8227 67.3959 15.9321 67.4306 16.0606C67.4653 16.1891 67.4475 16.3261 67.3812 16.4414L60.0412 29.2214C59.991 29.2926 59.9231 29.3494 59.8441 29.3862C59.7652 29.4231 59.678 29.4386 59.5912 29.4314Z" fill="#407BFF"/>
<path d="M231.921 349.091C230.872 328.162 232.921 307.192 238.001 286.861L239.001 287.101C233.947 307.338 231.905 328.209 232.941 349.041L231.921 349.091Z" fill="#407BFF"/>
<path d="M233.811 286.121C233.811 287.981 235.531 294.591 237.401 294.541C239.271 294.491 240.621 287.821 240.571 285.951C240.56 285.508 240.462 285.07 240.281 284.664C240.101 284.259 239.843 283.892 239.521 283.586C239.199 283.28 238.821 283.041 238.406 282.881C237.992 282.722 237.55 282.645 237.106 282.656C236.662 282.668 236.225 282.766 235.819 282.946C235.413 283.126 235.047 283.385 234.741 283.707C234.435 284.028 234.196 284.407 234.036 284.822C233.876 285.236 233.8 285.678 233.811 286.121V286.121Z" fill="#407BFF"/>
<path d="M241.081 307.111C241.081 305.241 239.361 298.641 237.501 298.681C235.641 298.721 234.281 305.401 234.321 307.271C234.332 307.715 234.43 308.153 234.609 308.559C234.789 308.965 235.046 309.332 235.368 309.638C235.689 309.944 236.068 310.185 236.482 310.345C236.896 310.505 237.337 310.582 237.781 310.571C238.225 310.561 238.663 310.463 239.069 310.284C239.475 310.104 239.841 309.846 240.148 309.525C240.454 309.204 240.694 308.825 240.855 308.411C241.015 307.997 241.092 307.555 241.081 307.111V307.111Z" fill="#407BFF"/>
<path d="M226.951 300.221C228.821 300.221 235.421 298.501 235.371 296.631C235.321 294.761 228.661 293.411 226.791 293.461C226.347 293.472 225.91 293.57 225.504 293.749C225.098 293.929 224.731 294.187 224.425 294.508C224.118 294.829 223.878 295.208 223.718 295.622C223.558 296.036 223.481 296.478 223.491 296.921C223.502 297.365 223.6 297.803 223.779 298.209C223.959 298.615 224.216 298.982 224.538 299.288C224.859 299.594 225.238 299.835 225.652 299.995C226.066 300.155 226.507 300.232 226.951 300.221V300.221Z" fill="#407BFF"/>
<path d="M247.941 292.982C246.081 292.982 239.471 294.702 239.521 296.562C239.571 298.422 246.241 299.782 248.111 299.742C248.555 299.73 248.992 299.632 249.398 299.452C249.804 299.272 250.17 299.013 250.476 298.691C250.782 298.37 251.022 297.991 251.181 297.576C251.341 297.162 251.417 296.72 251.406 296.277C251.395 295.833 251.297 295.395 251.116 294.99C250.936 294.584 250.678 294.217 250.356 293.911C250.034 293.605 249.656 293.366 249.241 293.206C248.827 293.047 248.385 292.97 247.941 292.982V292.982Z" fill="#407BFF"/>
<path d="M227.451 291.761C228.811 293.051 234.661 296.541 235.951 295.181C237.241 293.821 233.471 288.181 232.121 286.871C231.473 286.252 230.605 285.916 229.708 285.936C228.812 285.957 227.961 286.333 227.341 286.981C226.722 287.63 226.386 288.498 226.406 289.394C226.427 290.291 226.803 291.142 227.451 291.761V291.761Z" fill="#407BFF"/>
<path d="M247.441 301.461C246.091 300.171 240.241 296.691 238.951 298.041C237.661 299.391 241.421 305.041 242.771 306.361C243.093 306.668 243.472 306.908 243.887 307.069C244.301 307.229 244.743 307.306 245.188 307.295C245.632 307.284 246.07 307.186 246.476 307.006C246.883 306.826 247.25 306.568 247.556 306.246C247.863 305.925 248.103 305.546 248.263 305.131C248.423 304.717 248.5 304.274 248.49 303.83C248.479 303.386 248.381 302.948 248.201 302.542C248.021 302.135 247.763 301.768 247.441 301.461V301.461Z" fill="#407BFF"/>
<path d="M232.591 306.612C233.881 305.252 237.361 299.402 236.011 298.112C234.661 296.822 229.011 300.592 227.691 301.942C227.072 302.591 226.736 303.46 226.758 304.358C226.779 305.255 227.156 306.107 227.806 306.727C228.456 307.346 229.325 307.682 230.223 307.66C231.12 307.638 231.972 307.261 232.591 306.612V306.612Z" fill="#407BFF"/>
<path d="M242.301 286.622C241.011 287.972 237.521 293.822 238.881 295.112C240.241 296.402 245.881 292.642 247.191 291.292C247.498 290.97 247.738 290.592 247.899 290.178C248.059 289.764 248.136 289.323 248.126 288.879C248.116 288.435 248.018 287.997 247.839 287.591C247.66 287.185 247.402 286.818 247.081 286.512C246.76 286.205 246.382 285.965 245.968 285.804C245.554 285.644 245.112 285.566 244.668 285.577C244.225 285.587 243.787 285.684 243.381 285.864C242.975 286.043 242.608 286.3 242.301 286.622V286.622Z" fill="#407BFF"/>
<path d="M233.441 296.711C233.461 297.502 233.715 298.269 234.17 298.915C234.626 299.561 235.263 300.058 236 300.342C236.738 300.627 237.543 300.687 238.315 300.514C239.086 300.341 239.789 299.943 240.335 299.371C240.88 298.799 241.244 298.078 241.38 297.299C241.516 296.52 241.419 295.719 241.099 294.995C240.78 294.272 240.254 293.66 239.587 293.235C238.919 292.811 238.142 292.594 237.351 292.611C236.825 292.623 236.306 292.739 235.825 292.951C235.343 293.164 234.908 293.469 234.545 293.85C234.182 294.231 233.898 294.68 233.708 295.171C233.519 295.662 233.428 296.185 233.441 296.711V296.711Z" fill="white"/>
<path d="M232.871 326.471C232.871 326.471 233.561 316.261 239.171 314.651C244.781 313.041 246.831 310.841 246.831 310.841C246.831 310.841 246.261 326.671 232.871 326.471Z" fill="#407BFF"/>
<path opacity="0.5" d="M232.871 326.471C232.871 326.471 233.561 316.261 239.171 314.651C244.781 313.041 246.831 310.841 246.831 310.841C246.831 310.841 246.261 326.671 232.871 326.471Z" fill="white"/>
<path d="M232.131 334.292C232.131 334.292 231.441 324.081 225.831 322.461C220.221 320.841 218.171 318.661 218.171 318.661C218.171 318.661 218.741 334.492 232.131 334.292Z" fill="#407BFF"/>
<path opacity="0.5" d="M232.131 334.292C232.131 334.292 231.441 324.081 225.831 322.461C220.221 320.841 218.171 318.661 218.171 318.661C218.171 318.661 218.741 334.492 232.131 334.292Z" fill="white"/>
<path d="M253.291 355.561C253.291 363.561 243.801 369.981 232.101 369.981C220.401 369.981 210.911 363.531 210.911 355.561C210.911 351.561 213.341 347.881 217.271 345.271C219.748 343.656 222.5 342.511 225.391 341.891H238.811C241.777 342.53 244.596 343.72 247.121 345.401C250.941 348.011 253.291 351.591 253.291 355.561Z" fill="#407BFF"/>
<path opacity="0.8" d="M238.811 341.891C241.777 342.53 244.596 343.72 247.121 345.401C250.941 348.011 253.291 351.591 253.291 355.561C253.291 363.561 243.801 369.981 232.101 369.981C220.401 369.981 210.911 363.531 210.911 355.561C210.911 351.561 213.341 347.881 217.271 345.271C219.748 343.656 222.5 342.511 225.391 341.891H238.811Z" fill="white"/>
<path d="M232.661 343.191H231.661V350.321H232.661V343.191Z" fill="#407BFF"/>
<path d="M248.051 341.672L246.931 345.172L246.911 345.211H217.281L217.221 345.021L216.151 341.672H248.051Z" fill="#407BFF"/>
<path d="M250.791 358.461C248.668 361.404 245.879 363.803 242.651 365.461C237.561 368.161 216.151 368.851 213.701 356.711C213.701 356.541 213.611 356.371 213.581 356.201C213.474 355.45 213.539 354.683 213.772 353.961C214.006 353.238 214.4 352.578 214.926 352.03C215.453 351.483 216.097 351.062 216.81 350.801C217.523 350.54 218.286 350.444 219.041 350.521C221.071 350.658 223.11 350.544 225.111 350.181C232.798 349.017 240.642 349.436 248.161 351.411C248.874 351.6 249.53 351.957 250.076 352.452C250.622 352.947 251.042 353.566 251.299 354.256C251.557 354.947 251.645 355.689 251.557 356.421C251.468 357.152 251.206 357.852 250.791 358.461V358.461Z" fill="#263238"/>
<path d="M97.1012 354.422C97.2883 354.349 97.4542 354.23 97.5835 354.076C97.7128 353.922 97.8014 353.738 97.8412 353.542C97.8794 353.423 97.8847 353.296 97.8565 353.174C97.8283 353.053 97.7677 352.941 97.6812 352.852C96.9112 352.052 93.7812 352.622 93.4312 352.692C93.3905 352.695 93.352 352.711 93.3214 352.738C93.2908 352.765 93.2697 352.802 93.2612 352.842C93.2533 352.881 93.2566 352.921 93.2707 352.958C93.2849 352.995 93.3093 353.028 93.3412 353.052C93.9653 353.507 94.6356 353.896 95.3412 354.212C95.8852 354.486 96.508 354.56 97.1012 354.422V354.422ZM97.3812 353.132C97.4181 353.173 97.4431 353.224 97.4536 353.278C97.4642 353.333 97.4599 353.389 97.4412 353.442C97.4182 353.573 97.362 353.696 97.278 353.799C97.194 353.902 97.0849 353.982 96.9612 354.032C96.3912 354.242 95.3012 353.852 93.9612 353.032C95.2612 352.812 96.9712 352.702 97.3812 353.132V353.132Z" fill="#407BFF"/>
<path d="M93.4912 353.091C94.4912 352.971 96.6512 351.841 96.8412 350.861C96.8744 350.701 96.8506 350.535 96.7739 350.391C96.6972 350.246 96.5724 350.133 96.4212 350.071C96.2803 349.994 96.1243 349.947 95.9639 349.935C95.8034 349.923 95.6422 349.946 95.4912 350.001C94.2912 350.411 93.3112 352.711 93.2712 352.811C93.2568 352.843 93.2494 352.877 93.2494 352.911C93.2494 352.946 93.2568 352.98 93.2712 353.011C93.2945 353.042 93.3256 353.066 93.3612 353.081L93.4912 353.091ZM96.2112 350.431C96.4512 350.561 96.4612 350.691 96.4412 350.781C96.3212 351.381 94.8512 352.311 93.8212 352.601C94.1912 351.851 94.9112 350.601 95.6312 350.381C95.7914 350.316 95.971 350.316 96.1312 350.381L96.2112 350.431Z" fill="#407BFF"/>
<path d="M84.0012 349.061L92.1412 352.351L99.2512 333.541L91.1012 330.251L84.0012 349.061Z" fill="#FFB573"/>
<path d="M93.1712 351.682L84.0312 347.992C83.8755 347.923 83.7004 347.914 83.5385 347.966C83.3766 348.017 83.2389 348.126 83.1512 348.272L79.1512 354.972C79.0567 355.144 79.0001 355.334 78.9851 355.53C78.9702 355.726 78.9972 355.923 79.0644 356.107C79.1316 356.292 79.2374 356.46 79.3749 356.601C79.5123 356.741 79.6781 356.85 79.8612 356.922C83.0812 358.162 84.6912 358.592 88.7112 360.222C91.1912 361.222 94.7112 362.932 98.1112 364.322C101.511 365.712 103.111 362.452 101.801 361.572C95.9912 357.642 95.8012 355.372 94.3512 352.732C94.0928 352.254 93.6752 351.883 93.1712 351.682Z" fill="#263238"/>
<path d="M99.1412 342.771L85.0012 337.051L86.3012 331.871L101.471 337.421L99.1412 342.771Z" fill="#407BFF"/>
<path d="M113.301 125.052C110.431 133.362 101.941 152.922 95.3912 144.772C94.2121 143.332 93.2487 141.728 92.5312 140.012C89.7612 133.162 89.0712 122.062 88.7212 119.632L86.4912 112.022C86.4518 111.892 86.4316 111.757 86.4312 111.622V107.272C86.4312 105.512 87.8512 104.462 89.7712 104.622C89.7712 104.622 92.8712 104.262 92.8712 106.112L93.4712 112.642C93.7812 114.912 92.8812 118.072 93.4112 120.152C95.4112 127.982 98.1612 128.342 99.8912 136.422C102.301 130.592 106.611 120.502 106.611 120.502C109.471 120.862 114.241 122.322 113.301 125.052Z" fill="#FFB573"/>
<path d="M103.041 147.751C102.591 148.453 101.978 149.035 101.253 149.447C100.529 149.86 99.7153 150.09 98.8823 150.118C98.0493 150.147 97.2218 149.973 96.4709 149.611C95.72 149.249 95.0681 148.711 94.5712 148.041C93.3857 146.466 92.4544 144.715 91.8112 142.851C89.2112 134.321 87.6012 129.041 87.3812 120.131C88.3026 119.2 89.4668 118.546 90.7414 118.244C92.016 117.942 93.3498 118.003 94.5912 118.421L98.8512 132.851C98.8512 132.851 107.521 111.301 111.031 110.531C115.161 109.621 116.881 113.311 118.631 117.851C119.891 121.111 108.691 139.041 103.041 147.751Z" fill="#407BFF"/>
<path d="M138.071 88.9614C137.071 93.9614 134.891 104.881 138.391 108.221C138.391 108.221 137.021 113.291 127.731 113.291C117.501 113.291 122.841 108.221 122.841 108.221C128.421 106.891 128.271 102.751 127.301 98.8614L138.071 88.9614Z" fill="#FFB573"/>
<path d="M122.441 77.2215C122.501 77.2308 122.562 77.2308 122.621 77.2215C122.714 77.1706 122.783 77.0861 122.814 76.9855C122.846 76.885 122.838 76.7761 122.791 76.6815C122.524 76.107 122.121 75.6058 121.618 75.2209C121.115 74.836 120.526 74.5788 119.901 74.4715C119.849 74.4645 119.796 74.4681 119.746 74.4821C119.695 74.4961 119.648 74.5201 119.607 74.5528C119.566 74.5855 119.532 74.6261 119.507 74.6723C119.482 74.7185 119.466 74.7692 119.461 74.8215C119.454 74.8735 119.458 74.9264 119.472 74.977C119.486 75.0276 119.51 75.0749 119.543 75.116C119.575 75.157 119.616 75.1911 119.662 75.2161C119.708 75.2411 119.759 75.2565 119.811 75.2615V75.2615C120.303 75.3575 120.766 75.5689 121.16 75.8783C121.555 76.1877 121.871 76.5864 122.081 77.0415C122.12 77.1006 122.174 77.1484 122.237 77.18C122.3 77.2117 122.371 77.226 122.441 77.2215V77.2215Z" fill="#263238"/>
<path d="M119.391 81.5415C118.6 83.0037 117.61 84.3497 116.451 85.5415C116.765 85.8293 117.138 86.0454 117.544 86.1749C117.949 86.3044 118.379 86.3442 118.801 86.2915L119.391 81.5415Z" fill="#ED893E"/>
<path d="M120.191 80.0815C120.341 80.7415 120.101 81.3615 119.671 81.4515C119.241 81.5415 118.761 81.0815 118.621 80.4515C118.481 79.8215 118.711 79.1715 119.151 79.0715C119.591 78.9715 120.051 79.4115 120.191 80.0815Z" fill="#263238"/>
<path d="M119.351 79.0415L117.651 78.9215C117.651 78.9215 118.741 79.9915 119.351 79.0415Z" fill="#263238"/>
<path opacity="0.2" d="M112.941 120.791C114.711 119.161 115.941 119.651 116.721 120.941C117.531 124.681 112.721 132.521 110.831 135.491L112.941 120.791Z" fill="black"/>
<path d="M153.891 125.722C153.661 129.842 153.271 135.032 152.641 141.562C151.981 148.452 151.041 156.822 149.751 166.992C136.161 166.992 121.931 166.782 115.321 166.782C115.881 153.272 116.081 139.582 110.021 112.702C109.945 112.368 109.937 112.023 109.997 111.687C110.057 111.35 110.184 111.029 110.371 110.743C110.557 110.456 110.8 110.21 111.083 110.02C111.367 109.829 111.686 109.697 112.021 109.632C115.972 108.915 119.963 108.444 123.971 108.222C129.148 107.851 134.344 107.851 139.521 108.222C146.191 108.832 153.771 110.382 153.771 110.382C153.771 110.382 154.591 112.862 153.891 125.722Z" fill="#407BFF"/>
<path opacity="0.2" d="M153.891 125.721C153.661 129.841 153.271 135.031 152.641 141.561C148.981 137.321 145.521 122.721 146.641 117.731C149.369 119.749 151.768 122.178 153.751 124.931C153.812 125.192 153.859 125.456 153.891 125.721Z" fill="black"/>
<path d="M189.181 144.021L196.181 140.101L197.481 147.231C197.481 147.231 191.581 149.501 188.481 147.911L189.181 144.021Z" fill="#FFB573"/>
<path d="M200.811 140.912L201.301 143.242C201.373 143.599 201.339 143.969 201.202 144.307C201.065 144.645 200.832 144.935 200.531 145.142L197.451 147.222L196.151 140.092L198.561 139.492C198.802 139.431 199.053 139.42 199.299 139.46C199.544 139.499 199.779 139.588 199.99 139.72C200.2 139.853 200.381 140.027 200.522 140.232C200.664 140.437 200.762 140.668 200.811 140.912Z" fill="#FFB573"/>
<path d="M147.191 118.642C149.421 123.182 157.601 140.332 161.191 144.292L161.901 145.032L162.251 145.402C162.371 145.522 162.471 145.632 162.661 145.802C163.307 146.414 164.018 146.954 164.781 147.412C166.145 148.199 167.613 148.792 169.141 149.172C171.821 149.793 174.572 150.052 177.321 149.942C182.443 149.737 187.518 148.876 192.421 147.382L191.591 143.222C189.281 143.422 186.861 143.562 184.521 143.602C182.202 143.67 179.881 143.596 177.571 143.382C175.429 143.228 173.314 142.815 171.271 142.152C170.446 141.874 169.665 141.48 168.951 140.982C168.678 140.79 168.426 140.568 168.201 140.322C168.122 140.24 168.049 140.153 167.981 140.062L167.721 139.752L167.191 139.132C164.431 135.672 157.141 118.992 154.951 114.822L147.191 118.642Z" fill="#FFB573"/>
<path d="M189.071 151.121C183.308 154.184 176.566 154.839 170.321 152.941C164.364 151.026 159.339 146.953 156.231 141.521C152.621 136.211 143.011 121.191 144.231 117.311C145.661 112.671 148.701 109.791 153.781 111.041C157.351 111.901 164.161 129.241 167.461 136.171C168.751 138.101 171.231 141.171 174.001 142.111C178.891 143.801 182.491 143.111 187.611 142.341C188.551 142.901 188.481 143.771 188.951 144.741C189.456 145.726 189.729 146.812 189.75 147.918C189.771 149.023 189.538 150.119 189.071 151.121V151.121Z" fill="#407BFF"/>
<path d="M143.111 80.9514C141.581 89.1714 141.111 92.6814 136.391 96.4214C129.311 102.041 119.541 98.3614 118.591 89.8414C117.731 82.1714 120.381 70.0115 128.901 67.7215C130.777 67.2066 132.754 67.1801 134.643 67.6443C136.532 68.1085 138.272 69.0481 139.696 70.3738C141.119 71.6995 142.181 73.3672 142.779 75.2186C143.376 77.0699 143.491 79.0434 143.111 80.9514V80.9514Z" fill="#FFB573"/>
<path d="M172.291 126.461C170.721 128.251 170.231 129.291 168.041 130.261C165.851 131.231 161.111 130.381 159.601 128.531C160.091 129.971 162.951 132.531 164.451 132.761C162.758 133.69 160.8 134.014 158.898 133.679C156.996 133.345 155.266 132.372 153.991 130.921C154.2 131.823 154.638 132.656 155.261 133.341C155.884 134.026 156.673 134.539 157.551 134.831C138.391 135.331 146.461 126.311 134.461 113.481C121.181 99.2815 124.061 87.5415 124.061 87.5415C124.093 84.6175 123.177 81.7618 121.451 79.4015C119.531 76.9415 120.091 73.6215 120.701 71.7615C121.591 69.0315 124.301 68.0715 126.901 67.9115C127.361 65.2215 132.901 65.7115 133.571 66.1615C134.241 66.6115 134.321 66.5215 134.931 66.1615C136.281 65.2915 139.681 64.3915 143.321 67.3315C145.541 69.1315 147.921 72.3315 148.001 79.2115C148.081 86.3415 144.671 94.8115 156.471 105.641C163.421 112.001 160.091 125.711 172.291 126.461Z" fill="#263238"/>
<path d="M122.481 81.5715C121.551 82.8899 121.165 84.5156 121.401 86.1115C121.741 88.2215 123.791 88.3615 125.281 87.0115C126.771 85.6615 128.071 83.2215 126.971 81.4715C125.871 79.7215 123.641 79.9715 122.481 81.5715Z" fill="#FFB573"/>
<path d="M141.041 166.981C141.041 166.981 136.951 224.391 132.351 262.251C130.968 273.614 127.503 284.624 122.131 294.732L99.5912 337.292L88.0312 332.741C88.0312 332.741 96.0312 292.292 111.621 270.232C111.621 270.232 99.9612 204.301 115.221 166.781L141.041 166.981Z" fill="#263238"/>
<path opacity="0.2" d="M125.321 180.891C125.321 180.891 128.761 206.891 130.641 222.361C123.591 213.061 118.121 200.081 125.321 180.891Z" fill="black"/>
<path d="M170.231 359.811C170.366 359.662 170.458 359.48 170.501 359.283C170.543 359.087 170.533 358.883 170.471 358.691C170.448 358.569 170.392 358.455 170.309 358.361C170.227 358.268 170.12 358.199 170.001 358.161C168.931 357.801 166.441 359.751 166.161 359.971C166.13 359.998 166.107 360.033 166.095 360.071C166.083 360.11 166.081 360.152 166.091 360.191C166.104 360.228 166.126 360.261 166.156 360.285C166.186 360.31 166.223 360.326 166.261 360.331C167.039 360.45 167.827 360.48 168.611 360.421C169.205 360.412 169.778 360.196 170.231 359.811V359.811ZM169.861 358.551C169.915 358.567 169.962 358.598 169.998 358.641C170.033 358.684 170.055 358.736 170.061 358.791C170.105 358.916 170.115 359.05 170.091 359.18C170.066 359.31 170.008 359.431 169.921 359.531C169.521 359.981 168.381 360.141 166.821 359.981C167.841 359.221 169.301 358.351 169.861 358.551V358.551Z" fill="#407BFF"/>
<path d="M166.411 360.301C167.201 359.751 168.611 357.741 168.311 356.791C168.264 356.633 168.163 356.496 168.027 356.404C167.89 356.311 167.726 356.268 167.561 356.281C167.402 356.277 167.244 356.307 167.097 356.369C166.95 356.431 166.819 356.524 166.711 356.641C165.841 357.561 166.071 360.041 166.081 360.151C166.087 360.187 166.101 360.221 166.122 360.25C166.143 360.28 166.17 360.304 166.201 360.321C166.237 360.331 166.275 360.331 166.311 360.321C166.346 360.325 166.381 360.318 166.411 360.301V360.301ZM167.551 356.691C167.821 356.691 167.891 356.811 167.921 356.901C168.091 357.491 167.241 358.981 166.471 359.711C166.355 358.748 166.544 357.772 167.011 356.921C167.125 356.795 167.282 356.716 167.451 356.701L167.551 356.691Z" fill="#407BFF"/>
<path d="M156.111 361.111L164.871 360.271L162.191 340.371L153.431 341.221L156.111 361.111Z" fill="#FFB573"/>
<path d="M165.461 359.221L155.621 360.171C155.452 360.184 155.293 360.258 155.175 360.379C155.057 360.501 154.988 360.662 154.981 360.831L154.621 368.601C154.621 368.799 154.663 368.994 154.744 369.174C154.825 369.354 154.943 369.515 155.09 369.646C155.237 369.777 155.411 369.876 155.599 369.935C155.787 369.995 155.985 370.014 156.181 369.991C159.601 369.611 161.181 369.251 165.561 368.831C168.221 368.571 172.141 368.471 175.821 368.121C179.501 367.771 179.331 364.171 177.821 363.991C170.821 363.201 169.531 361.301 167.031 359.611C166.569 359.303 166.014 359.165 165.461 359.221V359.221Z" fill="#263238"/>
<path d="M149.701 166.971C149.701 166.971 160.911 235.481 163.061 276.061L163.471 348.761L154.401 350.531C154.401 350.531 141.271 304.151 139.751 277.341C135.751 206.221 112.581 206.101 126.521 166.841L149.701 166.971Z" fill="#263238"/>
<path d="M166.481 349.061L151.471 351.111L149.941 345.351L165.991 343.261L166.481 349.061Z" fill="#407BFF"/>
<path d="M85.5912 93.4714H86.1612C86.0256 93.4713 85.8913 93.4987 85.7666 93.552C85.6419 93.6054 85.5294 93.6836 85.4358 93.7818C85.3423 93.88 85.2697 93.9962 85.2225 94.1234C85.1753 94.2505 85.1544 94.386 85.1612 94.5214L86.0812 111.931C86.1084 112.205 86.2359 112.458 86.4391 112.643C86.6422 112.827 86.9066 112.93 87.1812 112.931H86.5912C86.3173 112.928 86.0541 112.825 85.8514 112.64C85.6487 112.456 85.5205 112.204 85.4912 111.931L84.5912 94.5214C84.5844 94.386 84.6053 94.2505 84.6525 94.1234C84.6997 93.9962 84.7723 93.88 84.8658 93.7818C84.9594 93.6836 85.0719 93.6054 85.1966 93.552C85.3213 93.4987 85.4556 93.4713 85.5912 93.4714Z" fill="#407BFF"/>
<path opacity="0.1" d="M85.5912 93.4714H86.1612C86.0256 93.4713 85.8913 93.4987 85.7666 93.552C85.6419 93.6054 85.5294 93.6836 85.4358 93.7818C85.3423 93.88 85.2697 93.9962 85.2225 94.1234C85.1753 94.2505 85.1544 94.386 85.1612 94.5214L86.0812 111.931C86.1084 112.205 86.2359 112.458 86.4391 112.643C86.6422 112.827 86.9066 112.93 87.1812 112.931H86.5912C86.3173 112.928 86.0541 112.825 85.8514 112.64C85.6487 112.456 85.5205 112.204 85.4912 111.931L84.5912 94.5214C84.5844 94.386 84.6053 94.2505 84.6525 94.1234C84.6997 93.9962 84.7723 93.88 84.8658 93.7818C84.9594 93.6836 85.0719 93.6054 85.1966 93.552C85.3213 93.4987 85.4556 93.4713 85.5912 93.4714Z" fill="white"/>
<path d="M86.7412 112.981H93.7412C94.0064 112.981 94.2608 112.876 94.4483 112.689C94.6358 112.501 94.7412 112.247 94.7412 111.981L93.8312 94.5715C93.8136 94.2902 93.6906 94.0258 93.4867 93.8312C93.2828 93.6366 93.013 93.526 92.7312 93.5215H85.7312C85.5956 93.5213 85.4613 93.5487 85.3366 93.6021C85.2119 93.6554 85.0994 93.7336 85.0058 93.8318C84.9123 93.9301 84.8397 94.0463 84.7925 94.1734C84.7453 94.3006 84.7244 94.436 84.7312 94.5715L85.6412 111.981C85.6705 112.254 85.7987 112.506 86.0014 112.69C86.2041 112.875 86.4673 112.978 86.7412 112.981V112.981Z" fill="#407BFF"/>
<path opacity="0.4" d="M86.7412 112.981H93.7412C94.0064 112.981 94.2608 112.876 94.4483 112.689C94.6358 112.501 94.7412 112.247 94.7412 111.981L93.8312 94.5715C93.8136 94.2902 93.6906 94.0258 93.4867 93.8312C93.2828 93.6366 93.013 93.526 92.7312 93.5215H85.7312C85.5956 93.5213 85.4613 93.5487 85.3366 93.6021C85.2119 93.6554 85.0994 93.7336 85.0058 93.8318C84.9123 93.9301 84.8397 94.0463 84.7925 94.1734C84.7453 94.3006 84.7244 94.436 84.7312 94.5715L85.6412 111.981C85.6705 112.254 85.7987 112.506 86.0014 112.69C86.2041 112.875 86.4673 112.978 86.7412 112.981V112.981Z" fill="white"/>
<path d="M94.3212 111.572C94.3267 111.659 94.3144 111.746 94.2852 111.829C94.256 111.911 94.2104 111.987 94.1512 112.052C94.0255 112.174 93.8567 112.242 93.6812 112.242H86.8712C86.6808 112.239 86.4983 112.165 86.3609 112.033C86.2235 111.901 86.1414 111.722 86.1312 111.532L85.2412 94.6415C85.2348 94.5556 85.2466 94.4693 85.2759 94.3883C85.3052 94.3073 85.3513 94.2334 85.4112 94.1715C85.4713 94.1072 85.5441 94.0562 85.6251 94.0217C85.706 93.9873 85.7933 93.9702 85.8812 93.9715H92.6912C92.8817 93.9738 93.0641 94.0484 93.2015 94.1803C93.339 94.3121 93.4211 94.4913 93.4312 94.6815L93.4912 95.8915L94.3212 111.572Z" fill="#263238"/>
<g opacity="0.1">
<path opacity="0.1" d="M93.4912 95.8914L91.2312 112.221H88.5212L91.0812 93.9514H92.6912C92.8817 93.9537 93.0641 94.0283 93.2015 94.1602C93.339 94.292 93.4211 94.4712 93.4312 94.6614L93.4912 95.8914Z" fill="white"/>
<path opacity="0.1" d="M87.5412 112.241H86.9312L89.4912 93.9714H90.1012L87.5412 112.241Z" fill="white"/>
</g>
<path d="M113.111 168.921C108.02 178.956 105.284 190.02 105.111 201.271C122.111 214.461 137.941 199.011 157.401 201.621C156.721 192.831 153.731 176.621 150.191 168.501C137.301 169.051 125.261 167.761 113.111 168.921Z" fill="#407BFF"/>
<path d="M114.881 165.352C114.881 165.352 113.511 168.882 113.881 168.882H149.591C149.901 168.882 150.151 168.732 150.171 168.532L150.481 165.532C150.481 165.322 150.231 165.142 149.901 165.142H115.441C115.338 165.127 115.232 165.139 115.135 165.176C115.037 165.213 114.95 165.273 114.881 165.352V165.352Z" fill="white"/>
<path d="M119.911 169.221H118.991C118.801 169.221 118.661 169.121 118.671 169.001L119.111 165.001C119.111 164.881 119.281 164.792 119.461 164.792H120.391C120.571 164.792 120.711 164.881 120.701 165.001L120.271 169.001C120.243 169.072 120.193 169.132 120.128 169.172C120.063 169.212 119.987 169.229 119.911 169.221V169.221Z" fill="#407BFF"/>
<path d="M142.271 169.221H141.351C141.171 169.221 141.031 169.121 141.041 169.001L141.471 165.001C141.471 164.881 141.641 164.792 141.831 164.792H142.751C142.931 164.792 143.071 164.881 143.061 165.001L142.631 169.001C142.591 169.081 142.461 169.221 142.271 169.221Z" fill="#407BFF"/>
</svg>
